<?xml version="1.0" encoding="utf-8" ?>
<svg xmlns="http://www.w3.org/2000/svg" xmlns:xlink="http://www.w3.org/1999/xlink" width="123" height="119">
	<defs>
		<clipPath id="clip_0">
			<rect x="-780" y="-3024" width="1682" height="11838" clip-rule="evenodd"/>
		</clipPath>
	</defs>
	<g clip-path="url(#clip_0)">
		<path fill="rgb(35,114,185)" stroke="none" d="M71.0048 11.5399L113.496 11.5399C118.736 11.5399 123 15.7985 123 21.033L123 90.2738C123 95.5079 118.736 99.7665 113.495 99.7665L82.8844 99.7665L84.2095 107.708L86.5348 107.708C89.6518 107.708 92.188 110.241 92.188 113.354C92.188 116.467 89.652 119 86.5348 119L36.4652 119C33.3482 119 30.812 116.467 30.812 113.354C30.812 110.241 33.348 107.708 36.4652 107.708L38.7905 107.708L40.1156 99.7665L9.50465 99.7665C4.26393 99.7665 0 95.5082 0 90.2738L0 21.033C0 15.7985 4.26393 11.5399 9.50465 11.5399L51.9955 11.5399L51.9955 9.4928C51.9955 4.25861 56.2594 0 61.5001 0C66.7408 0 71.0048 4.25837 71.0048 9.4928L71.0048 11.5399ZM55.5995 13.3397C55.5995 13.3442 55.5988 13.3488 55.5988 13.3536L55.5988 19.2335L67.4012 19.2335L67.4012 9.4928C67.4012 6.24312 64.7541 3.59903 61.5001 3.59903C58.2461 3.59903 55.599 6.24312 55.5988 9.49304L55.5988 13.3258C55.5988 13.3306 55.5995 13.3351 55.5995 13.3397ZM9.50465 96.1673L113.496 96.1673C116.749 96.1673 119.397 93.5234 119.397 90.2735L119.396 90.2735L119.396 21.0327C119.396 17.783 116.749 15.139 113.495 15.139L71.0048 15.139L71.0048 19.2335L113.495 19.2335C114.49 19.2335 115.297 20.0392 115.297 21.033L115.297 90.2737C115.297 91.2676 114.49 92.0733 113.495 92.0733L9.50465 92.0733C8.5096 92.0733 7.70289 91.2676 7.70289 90.2737L7.70289 21.033C7.70289 20.0392 8.5096 19.2335 9.50465 19.2335L51.9952 19.2335L51.9952 15.1392L9.50465 15.1392C6.25091 15.1392 3.60352 17.783 3.60352 21.033L3.60352 90.2737C3.60352 93.5234 6.25091 96.1678 9.50465 96.1673ZM61.6241 22.8325L61.6241 26.8027C61.6241 27.7965 62.4308 28.6022 63.4258 28.6022C64.4209 28.6022 65.2276 27.7965 65.2276 26.8027L65.2276 22.8325L111.694 22.8325L111.694 53.854L100.441 53.854L94.1824 50.7288C94.1404 50.7077 94.1142 50.6655 94.1142 50.6182L94.1142 47.8925C96.4492 46.1612 97.9656 43.3877 97.9656 40.2667L97.9656 36.42C97.9656 31.1856 93.7017 26.927 88.4607 26.927C83.2471 26.927 79.0022 31.1414 78.958 36.3384C78.9577 36.3449 78.9577 36.3516 78.9575 36.3581C78.9573 36.3788 78.9558 36.3991 78.9558 36.42L78.9558 40.2667C78.9558 43.3877 80.4722 46.1612 82.8073 47.8925L82.8073 50.6945L76.4809 53.8537L65.2276 53.8537L65.2276 34.4965C65.2276 33.5026 64.4209 32.6969 63.4258 32.6969C62.4308 32.6969 61.6241 33.5026 61.6241 34.4965L61.6241 88.4742L55.5988 88.4742L55.5988 78.4526C55.5988 75.5669 53.9933 72.9727 51.4093 71.6824L45.1774 68.5701C44.4785 68.221 44.0444 67.5195 44.0444 66.7392L44.0444 62.782C47.5314 60.3725 49.8216 56.3526 49.8216 51.8066L49.8216 47.9597C49.8216 43.2651 47.3789 39.1325 43.6982 36.7545C43.9255 36.0263 44.0442 35.2635 44.0442 34.4965C44.0442 30.3225 40.6444 26.9267 36.4652 26.9267C32.2861 26.9267 28.8861 30.3225 28.8861 34.4965C28.8861 35.2731 29.0038 36.0284 29.2315 36.7547C25.5514 39.1327 23.1087 43.2654 23.1087 47.9597L23.1087 51.8064C23.1087 56.3524 25.3991 60.3725 28.8861 62.782L28.8861 66.7392C28.8861 67.5195 28.4517 68.221 27.7529 68.5701L21.5212 71.6821C18.937 72.9725 17.3315 75.5667 17.3315 78.4526L17.3315 88.474L11.3064 88.474L11.3064 22.8325L61.6241 22.8325ZM94.3621 36.5076C89.5898 36.3276 85.0237 35.4958 82.7299 35.0164C83.3622 32.4419 85.691 30.5258 88.461 30.5258C91.7149 30.5258 94.3621 33.1699 94.3621 36.4198L94.3621 36.5076ZM36.4655 30.526C34.2733 30.526 32.4898 32.3073 32.4898 34.4967C32.4898 34.7369 32.5167 34.9723 32.5583 35.204C33.7946 34.8256 35.1062 34.6205 36.4652 34.6205C37.8264 34.6205 39.14 34.8261 40.378 35.2057C40.4193 34.9744 40.4409 34.7378 40.4409 34.4967C40.4409 32.3073 38.6576 30.526 36.4655 30.526ZM36.4655 38.2195C41.8431 38.2195 46.2183 42.589 46.2183 47.9602L46.2183 48.6123C38.7172 50.9056 34.2464 45.2069 34.0555 44.9572C33.7419 44.5399 33.2627 44.2789 32.7418 44.2419C32.221 44.204 31.7096 44.3955 31.3401 44.7645C29.6202 46.4822 27.9357 47.3107 26.7192 47.7107C26.8523 42.4546 31.1714 38.2195 36.4655 38.2195ZM94.3618 40.1097C89.6179 39.9449 85.1361 39.1807 82.5596 38.6598L82.5596 40.2667C82.5596 43.5163 85.2067 46.1604 88.4607 46.1604C91.7145 46.1604 94.3618 43.5166 94.3618 40.2667L94.3618 40.1097ZM32.5021 48.5531C33.2886 49.2938 34.4124 50.2026 35.8433 50.9824C37.536 51.9045 39.8737 52.7575 42.7291 52.7575C43.8143 52.7575 44.9753 52.6315 46.2027 52.3421C45.9235 57.465 41.6632 61.5475 36.4652 61.5475C31.0876 61.5475 26.7124 57.178 26.7124 51.8068L26.7124 51.434C28.1493 51.1043 30.2797 50.3382 32.5021 48.5531ZM84.5382 53.854L92.3982 53.854C91.2297 53.1934 90.5104 51.9714 90.5104 50.6182L90.5104 49.5349C89.8498 49.6805 89.1646 49.7597 88.4607 49.7597C87.7568 49.7597 87.0714 49.6805 86.4108 49.5349L86.4108 51.8068C86.4108 52.4883 86.0252 53.1116 85.4145 53.4163L84.5382 53.854ZM94.1139 85.2356C94.1139 85.2829 94.1401 85.3253 94.1824 85.3464L100.445 88.474L100.445 88.4742L111.693 88.4742L111.693 57.4528L65.2274 57.4528L65.2274 88.474L76.4754 88.474L82.807 85.3121L82.807 82.5099C80.4719 80.7785 78.9556 78.0051 78.9556 74.884L78.9556 71.0374C78.9556 71.0165 78.957 70.9961 78.9573 70.9755C78.9575 70.969 78.9575 70.9623 78.9577 70.9558C79.0019 65.7591 83.2469 61.5446 88.4605 61.5446C93.7014 61.5446 97.9654 65.803 97.9654 71.0374L97.9654 74.884C97.9654 78.0051 96.449 80.7785 94.1139 82.5099L94.1139 85.2356ZM32.4901 66.7392C32.4901 67.2356 32.4235 67.7193 32.302 68.1834L36.4655 72.3417L40.629 68.1834C40.5072 67.7193 40.4409 67.2356 40.4409 66.7392L40.4409 64.5426C39.1847 64.9347 37.8492 65.146 36.4655 65.146C35.0815 65.146 33.7463 64.9347 32.4901 64.5426L32.4901 66.7392ZM94.3621 71.1257C89.5898 70.9458 85.0237 70.1139 82.7299 69.6345C83.3622 67.0602 85.691 65.1441 88.461 65.1441C91.7149 65.1441 94.3621 67.7882 94.3621 71.0379L94.3621 71.1257ZM26.4184 79.6175L22.3332 75.5374C22.3135 75.5177 22.2924 75.5009 22.2722 75.4822C22.5287 75.2562 22.8161 75.0592 23.1329 74.9011L29.3646 71.7889C29.6839 71.6296 29.9811 71.441 30.2581 71.2318L34.6635 75.6317L34.6635 88.4737L28.6382 88.4737L28.6382 84.97C28.6382 82.9483 27.8497 81.047 26.4184 79.6175ZM38.2673 75.6319L42.6727 71.232C42.9497 71.4412 43.2468 71.6298 43.5661 71.7891L49.798 74.9013C50.1147 75.0594 50.4022 75.2562 50.6586 75.4822C50.6384 75.5007 50.6172 75.5177 50.5975 75.5374L46.5123 79.6175C45.081 81.047 44.2926 82.948 44.2926 84.97L44.2926 88.474L38.2673 88.474L38.2673 75.6319ZM82.5596 74.8843C82.5596 78.134 85.2067 80.7781 88.4607 80.7781C91.7145 80.7781 94.3618 78.1345 94.3618 74.8843L94.3618 74.7274C89.6179 74.5625 85.1361 73.7983 82.5596 73.2774L82.5596 74.8843ZM25.0349 88.4742L25.0349 84.9702C25.0349 83.9095 24.6212 82.9123 23.8705 82.1625L20.9353 79.231L20.9353 88.4742L25.0349 88.4742ZM49.0603 82.1625C48.3093 82.9125 47.8959 83.9097 47.8959 84.9702L47.8959 88.474L51.9955 88.474L51.9955 79.231L49.0603 82.1625ZM92.4027 88.4742L84.5331 88.4742L85.4148 88.0339C86.0252 87.7292 86.4108 87.1061 86.4108 86.4245L86.4108 84.1525C87.0714 84.2981 87.7568 84.3773 88.4607 84.3773C89.1646 84.3773 89.8498 84.2981 90.5104 84.1525L90.5104 85.2358C90.5104 86.591 91.2313 87.8137 92.4027 88.4742ZM86.535 111.307C87.6653 111.307 88.5847 112.225 88.5847 113.354C88.5847 114.482 87.6651 115.401 86.535 115.401L36.4655 115.401C35.3352 115.401 34.4158 114.482 34.4158 113.354C34.4158 112.225 35.3354 111.307 36.4655 111.307L40.3162 111.307L40.3191 111.307L40.3244 111.307L71.1287 111.307C72.1238 111.307 72.9305 110.501 72.9305 109.507C72.9305 108.513 72.1238 107.708 71.1287 107.708L42.4437 107.708L43.7689 99.7665L79.2311 99.7665L80.5565 107.708L78.8316 107.708C77.8366 107.708 77.0299 108.513 77.0299 109.507C77.0299 110.501 77.8366 111.307 78.8316 111.307L82.6761 111.307L82.6814 111.307L82.6843 111.307L86.535 111.307Z" fill-rule="evenodd"/>
	</g>
	<defs>
		<clipPath id="clip_1">
			<rect x="-780" y="-3024" width="1682" height="11838" clip-rule="evenodd"/>
		</clipPath>
	</defs>
	<g clip-path="url(#clip_1)">
		<path fill="rgb(35,114,185)" stroke="none" transform="translate(60 8)" d="M2.00532 0L1.98404 0C0.882447 0 0 0.895467 0 2C0 3.10453 0.903723 4 2.00532 4C3.10691 4 4 3.10453 4 2C4 0.895467 3.10691 0 2.00532 0Z"/>
	</g>
</svg>
