<?xml version="1.0" encoding="utf-8" ?>
<svg xmlns="http://www.w3.org/2000/svg" xmlns:xlink="http://www.w3.org/1999/xlink" width="135" height="136">
	<defs>
		<clipPath id="clip_0">
			<rect x="114.23242" y="0.3671875" width="20.451324" height="20.575283" clip-rule="evenodd"/>
		</clipPath>
	</defs>
	<g clip-path="url(#clip_0)">
		<path fill="rgb(107,165,67)" stroke="none" transform="translate(114.232 0.367188)" d="M10.3283 0.000367403C12.0206 0.00771547 13.7026 0.40745 15.1696 1.25689C18.5626 3.22176 20.4813 6.65478 20.451 10.3729C20.405 15.9982 15.8182 20.5753 10.2275 20.5753L10.1413 20.575C7.00471 20.5489 4.09488 19.1131 2.12614 16.5725C1.11932 15.273 0.438603 13.735 0.158138 12.1122C-0.960802 5.65066 4.01162 0 10.2239 0L10.3283 0.000367403Z" fill-rule="evenodd"/>
	</g>
	<defs>
		<clipPath id="clip_1">
			<rect x="-774" y="-7853" width="1682" height="11838" clip-rule="evenodd"/>
		</clipPath>
	</defs>
	<g clip-path="url(#clip_1)">
		<path fill="rgb(107,165,67)" stroke="none" transform="translate(0 57)" d="M10.4983 0C4.75678 0 0.0476102 4.67167 0.000360967 10.4139C-0.0472632 16.2027 4.62366 20.952 10.4132 21L10.5006 21C16.2425 21 20.9524 16.3283 20.9996 10.5864C21.0473 4.79729 16.3756 0.0479991 10.5864 0.000374993L10.4983 0Z"/>
	</g>
	<defs>
		<clipPath id="clip_2">
			<rect x="-774" y="-7853" width="1682" height="11838" clip-rule="evenodd"/>
		</clipPath>
	</defs>
	<g clip-path="url(#clip_2)">
		<path fill="rgb(107,165,67)" stroke="none" transform="translate(4 62)" d="M0.61669 9.34907C-1.45957 4.61362 2.01027 0 6.49856 0L6.5539 0C10.2158 0.0300888 13.1552 3.09952 12.9936 6.78967C12.8395 10.3112 9.80869 13.0236 6.28462 12.9998C3.84808 12.9835 1.59539 11.5808 0.61669 9.34907Z"/>
	</g>
	<defs>
		<clipPath id="clip_3">
			<rect x="-774" y="-7853" width="1682" height="11838" clip-rule="evenodd"/>
		</clipPath>
	</defs>
	<g clip-path="url(#clip_3)">
		<path fill="rgb(107,165,67)" stroke="none" transform="translate(39 18)" d="M10.4985 0C4.7567 0 0.0472343 4.67158 0.000360932 10.4134C-0.0472624 16.2028 4.62395 20.952 10.413 20.9996L10.5011 21C16.2426 21 20.9524 16.3284 20.9996 10.5866C21.0473 4.79683 16.3757 0.0476233 10.5866 0.000374987L10.4985 0Z"/>
	</g>
	<defs>
		<clipPath id="clip_4">
			<rect x="-774" y="-7853" width="1682" height="11838" clip-rule="evenodd"/>
		</clipPath>
	</defs>
	<g clip-path="url(#clip_4)">
		<path fill="rgb(107,165,67)" stroke="none" transform="translate(43 22)" d="M6.50142 13L6.50142 13C3.58243 12.9803 0.965406 11.0533 0.225909 8.22937C-0.904321 3.91226 2.36492 0 6.49845 0C9.41706 0.0196857 12.0333 1.94629 12.7736 4.76989C13.9053 9.087 10.6357 13 6.50142 13"/>
	</g>
	<defs>
		<clipPath id="clip_5">
			<rect x="-774" y="-7853" width="1682" height="11838" clip-rule="evenodd"/>
		</clipPath>
	</defs>
	<g clip-path="url(#clip_5)">
		<path fill="rgb(107,165,67)" stroke="none" transform="translate(68 47)" d="M10.5866 0.000374987L10.4985 0C4.7567 0 0.0476093 4.67158 0.000360903 10.4134C-0.0472625 16.2028 4.62433 20.952 10.4134 20.9996L10.5011 21C16.2426 21 20.9524 16.3284 20.9996 10.5866C21.0473 4.79683 16.3757 0.0479983 10.5866 0.000374987"/>
	</g>
	<defs>
		<clipPath id="clip_6">
			<rect x="-774" y="-7853" width="1682" height="11838" clip-rule="evenodd"/>
		</clipPath>
	</defs>
	<g clip-path="url(#clip_6)">
		<path fill="rgb(107,165,67)" stroke="none" transform="translate(72 50)" d="M6.50193 13L6.50193 13C3.58304 12.9803 0.966519 11.0537 0.226211 8.22974C-0.904866 3.91263 2.3643 0 6.49858 0L6.55356 0.000371429C10.1377 0.0297143 13.0295 2.96994 12.9998 6.55386C12.9712 10.1081 10.056 13 6.50193 13"/>
	</g>
	<defs>
		<clipPath id="clip_7">
			<rect x="-774" y="-7853" width="1682" height="11838" clip-rule="evenodd"/>
		</clipPath>
	</defs>
	<g clip-path="url(#clip_7)">
		<path fill="rgb(107,165,67)" stroke="none" transform="translate(83 16)" d="M0 34.2429L34.2302 0L37 2.75668L2.76984 37L0 34.2429Z"/>
	</g>
	<defs>
		<clipPath id="clip_8">
			<rect x="-774" y="-7853" width="1682" height="11838" clip-rule="evenodd"/>
		</clipPath>
	</defs>
	<g clip-path="url(#clip_8)">
		<path fill="rgb(107,165,67)" stroke="none" transform="translate(55 33)" d="M0 2.71651L2.71651 0L19 16.2831L16.2835 19L0 2.71651Z"/>
	</g>
	<defs>
		<clipPath id="clip_9">
			<rect x="-774" y="-7853" width="1682" height="11838" clip-rule="evenodd"/>
		</clipPath>
	</defs>
	<g clip-path="url(#clip_9)">
		<path fill="rgb(107,165,67)" stroke="none" transform="translate(15 33)" d="M0 27.2706L27.2706 0L30 2.72904L2.729 30L0 27.2706Z"/>
	</g>
	<defs>
		<clipPath id="clip_10">
			<rect width="135" height="135" clip-rule="evenodd"/>
		</clipPath>
	</defs>
	<g clip-path="url(#clip_10)">
		<path fill="rgb(107,165,67)" stroke="none" transform="translate(111 40)" d="M0 95L24 95L24 0L0 0L0 95Z"/>
	</g>
	<defs>
		<clipPath id="clip_11">
			<rect width="135" height="135" clip-rule="evenodd"/>
		</clipPath>
	</defs>
	<g clip-path="url(#clip_11)">
		<path fill="rgb(107,165,67)" stroke="none" transform="translate(115 44)" d="M0.000372084 88L0 0L16 0L16 88L0.000372084 88Z"/>
	</g>
	<defs>
		<clipPath id="clip_12">
			<rect width="135" height="135" clip-rule="evenodd"/>
		</clipPath>
	</defs>
	<g clip-path="url(#clip_12)">
		<path fill="rgb(107,165,67)" stroke="none" transform="translate(74 80)" d="M0 55L24 55L24 0L0 0L0 55Z"/>
	</g>
	<defs>
		<clipPath id="clip_13">
			<rect width="135" height="135" clip-rule="evenodd"/>
		</clipPath>
	</defs>
	<g clip-path="url(#clip_13)">
		<path fill="rgb(107,165,67)" stroke="none" transform="translate(78 84)" d="M0 48L16 48L16 0L0 0L0 48Z"/>
	</g>
	<defs>
		<clipPath id="clip_14">
			<rect width="135" height="135" clip-rule="evenodd"/>
		</clipPath>
	</defs>
	<g clip-path="url(#clip_14)">
		<path fill="rgb(107,165,67)" stroke="none" transform="translate(37 77)" d="M0 58L24 58L24 0L0 0L0 58Z"/>
	</g>
	<defs>
		<clipPath id="clip_15">
			<rect width="135" height="135" clip-rule="evenodd"/>
		</clipPath>
	</defs>
	<g clip-path="url(#clip_15)">
		<path fill="rgb(107,165,67)" stroke="none" transform="translate(41 82)" d="M0 50L16 50L16 0L0 0L0 50Z"/>
	</g>
	<defs>
		<clipPath id="clip_16">
			<rect width="135" height="135" clip-rule="evenodd"/>
		</clipPath>
	</defs>
	<g clip-path="url(#clip_16)">
		<path fill="rgb(107,165,67)" stroke="none" transform="translate(0 92)" d="M0 0L0 44L23.9996 44L24 0L0 0Z"/>
	</g>
	<defs>
		<clipPath id="clip_17">
			<rect width="135" height="135" clip-rule="evenodd"/>
		</clipPath>
	</defs>
	<g clip-path="url(#clip_17)">
		<path fill="rgb(107,165,67)" stroke="none" transform="translate(4 96)" d="M0 36L16 36L16 0L0 0L0 36Z"/>
	</g>
	</svg>