<svg xmlns="http://www.w3.org/2000/svg" xmlns:xlink="http://www.w3.org/1999/xlink" width="396.9" height="14" viewBox="410 0 300 40"><defs><path id="epera" d="M883.1 113.15c-3.57 0-6.58-.6-9.15-3.16l2.88-2.9c1.76 1.82 4.12 2.3 6.27 2.3 2.66 0 4.76-.96 4.76-3.02 0-1.47-.81-2.42-2.92-2.6l-3.48-.3c-4.07-.34-6.44-2.2-6.44-6.05 0-4.28 3.65-6.7 8.2-6.7 3.27 0 6.06.7 8.08 2.47l-2.75 2.8c-1.38-1.16-3.3-1.59-5.37-1.59-2.62 0-3.95 1.17-3.95 2.8 0 1.3.7 2.3 3 2.51l3.44.3c4.08.35 6.49 2.3 6.49 6.18 0 4.58-3.87 6.96-9.06 6.96zM870.43 90.6v-8.47h4.8v4.54zm-9.28 12.61h-5.11c-2.58 0-3.91 1.17-3.91 3.16 0 1.98 1.24 3.1 4 3.1 1.67 0 2.91-.12 4.07-1.25.65-.65.95-1.68.95-3.24zm.08 9.68v-1.99c-1.58 1.6-3.09 2.25-5.8 2.25-2.7 0-4.5-.65-5.83-2a6.74 6.74 0 0 1-1.72-4.7c0-3.67 2.54-6.3 7.51-6.3h5.76v-1.56c0-2.77-1.38-4.1-4.77-4.1-2.4 0-3.56.56-4.77 2.11l-2.87-2.72c2.06-2.42 4.2-3.15 7.82-3.15 5.96 0 8.97 2.55 8.97 7.51v14.65zm-22.25.26c-4.89 0-9.7-3.03-9.7-11.23 0-8.2 4.81-11.2 9.7-11.2a8.9 8.9 0 0 1 7.18 3.08l-3.01 2.93c-1.37-1.5-2.45-2.07-4.17-2.07a4.9 4.9 0 0 0-4.03 1.94c-.95 1.21-1.29 2.77-1.29 5.32 0 2.55.34 4.14 1.29 5.35a4.9 4.9 0 0 0 4.03 1.94c1.72 0 2.8-.56 4.17-2.07l3 2.9a8.95 8.95 0 0 1-7.17 3.1zm-18.2-22.17h4.38v21.9h-4.38zm-.13-8.98h4.63v4.67h-4.63zm-5.03 14.13c-.99-1-1.76-1.47-3.26-1.47-2.36 0-4.34 1.9-4.34 4.92v13.31h-4.38v-21.9h4.3v2.37c1.11-1.55 3.34-2.63 5.8-2.63 2.1 0 3.69.56 5.19 2.07zm-21 1.03a4.5 4.5 0 0 0-4.3-2.76 4.55 4.55 0 0 0-4.33 2.76c-.43 1-.52 1.64-.56 2.98h9.79a7 7 0 0 0-.6-2.98zm-9.19 6.05c0 3.76 1.97 6.14 5.54 6.14 2.45 0 3.74-.7 5.28-2.25l2.79 2.63c-2.23 2.25-4.33 3.42-8.16 3.42-5.45 0-9.79-2.9-9.79-11.23 0-7.09 3.65-11.2 9.23-11.2 5.84 0 9.23 4.33 9.23 10.55v1.94zm-12.63 9.68V99.54c0-3.41-1.94-4.88-4.38-4.88-2.37 0-4.5 1.51-4.5 4.66v13.57h-4.4V99.54c0-3.41-1.93-4.88-4.37-4.88-2.45 0-4.5 1.51-4.5 4.88v13.35h-4.39v-21.9h4.3v2.2a7.85 7.85 0 0 1 5.8-2.46c2.7 0 4.8 1.08 6.17 3.2a8.24 8.24 0 0 1 6.83-3.2c2.23 0 4.21.73 5.5 1.99 1.67 1.64 2.32 3.7 2.32 6.17v14zm-41.62-23.8l-4.76 13.65h9.4zm8.03 23.8l-2.1-6.18h-12.07l-2.1 6.18H718l11.2-30.76h3.74l11.21 30.76zm400.86-15.73a4.5 4.5 0 0 0-4.3-2.76 4.53 4.53 0 0 0-4.33 2.76c-.44 1-.52 1.64-.57 2.98h9.8a6.95 6.95 0 0 0-.6-2.98zm-9.2 6.05c0 3.76 1.98 6.14 5.54 6.14 2.45 0 3.74-.7 5.28-2.25l2.8 2.63c-2.24 2.25-4.34 3.42-8.17 3.42-5.45 0-9.78-2.9-9.78-11.23 0-7.09 3.65-11.2 9.22-11.2 5.85 0 9.24 4.33 9.24 10.55v1.94zm-13.74 9.94c-4.9 0-9.7-3.03-9.7-11.23 0-8.2 4.8-11.2 9.7-11.2 3 0 5.11.87 7.17 3.08l-3 2.93c-1.38-1.5-2.45-2.07-4.17-2.07-1.68 0-3.09.69-4.03 1.94-.95 1.21-1.3 2.77-1.3 5.32 0 2.55.35 4.14 1.3 5.35a4.88 4.88 0 0 0 4.03 1.94c1.72 0 2.79-.56 4.16-2.07l3.01 2.9a8.96 8.96 0 0 1-7.17 3.1zm-18.2-22.17h4.37v21.9h-4.38zm-.14-8.98h4.64v4.67h-4.64zm-9.97 13.91a4.41 4.41 0 0 0-3.22-1.25c-1.29 0-2.36.43-3.17 1.25-1.33 1.34-1.5 3.63-1.5 6 0 2.38.17 4.67 1.5 6 .81.83 1.88 1.3 3.17 1.3 1.3 0 2.4-.47 3.22-1.3 1.34-1.33 1.5-3.62 1.5-6 0-2.37-.16-4.66-1.5-6zm3.3 14.64a8.77 8.77 0 0 1-6.52 2.6 8.68 8.68 0 0 1-6.48-2.6c-2.06-2.15-2.57-4.92-2.57-8.63 0-3.68.5-6.44 2.57-8.6a8.68 8.68 0 0 1 6.48-2.6c2.97 0 5.1 1.13 6.53 2.6 2.07 2.16 2.58 4.92 2.58 8.6 0 3.71-.51 6.48-2.58 8.63zm-23.95 2.34V99.45c0-3.32-1.94-4.8-4.38-4.8-2.45 0-4.43 1.52-4.43 4.8v13.44H1055V82.13h4.37V93.2a7.46 7.46 0 0 1 5.63-2.46c4.85 0 7.56 3.28 7.56 8.03v14.13zm-23.7.26c-4.9 0-9.72-3.03-9.72-11.23 0-8.2 4.81-11.2 9.71-11.2 3 0 5.1.87 7.17 3.08l-3 2.93c-1.38-1.5-2.45-2.07-4.17-2.07-1.68 0-3.1.69-4.03 1.94-.95 1.21-1.3 2.77-1.3 5.32 0 2.55.35 4.14 1.3 5.35a4.89 4.89 0 0 0 4.03 1.94c1.72 0 2.8-.56 4.16-2.07l3.01 2.9a8.95 8.95 0 0 1-7.17 3.1zm-28.52 4.1a7.2 7.2 0 0 1-1.59 2.73c-1.2 1.2-2.8 1.59-4.46 1.59h-1.77v-3.98h1.12c1.85 0 2.49-.55 3.14-2.33l1.2-3.4-7.6-20.88h4.63l5.2 15.43 5.07-15.43h4.68zm-21.54-22.6c-3.95 0-4.47 3.42-4.47 6.88 0 3.45.52 6.87 4.47 6.87 3.95 0 4.42-3.42 4.42-6.87 0-3.46-.47-6.87-4.42-6.87zm-.52 27.35c-3.3 0-5.4-.78-7.68-2.9l2.78-2.8a6.13 6.13 0 0 0 4.73 1.94c3.7 0 5.1-2.63 5.1-5.57v-2.8c-1.58 1.9-3.38 2.5-5.62 2.5-2.18 0-3.99-.73-5.19-1.94-2.1-2.12-2.45-5.19-2.45-8.9 0-3.72.35-6.78 2.45-8.9 1.2-1.21 3.05-1.9 5.24-1.9 2.32 0 4.07.6 5.71 2.6v-2.35h4.25v21.78c0 5.35-3.52 9.24-9.32 9.24zm-12-25.87c-1-1-1.77-1.47-3.28-1.47-2.36 0-4.33 1.9-4.33 4.92v13.31h-4.38v-21.9h4.3v2.37c1.11-1.55 3.34-2.63 5.79-2.63 2.1 0 3.7.56 5.2 2.07zm-21.01 1.03a4.5 4.5 0 0 0-4.3-2.76 4.54 4.54 0 0 0-4.33 2.76c-.43 1-.52 1.64-.56 2.98h9.78a6.98 6.98 0 0 0-.6-2.98zm-9.2 6.05c0 3.76 1.98 6.14 5.55 6.14 2.44 0 3.73-.7 5.28-2.25l2.79 2.63c-2.23 2.25-4.34 3.42-8.16 3.42-5.45 0-9.79-2.9-9.79-11.23 0-7.09 3.65-11.2 9.23-11.2 5.84 0 9.23 4.33 9.23 10.55v1.94zm-12.62 9.68V99.54c0-3.41-1.93-4.88-4.38-4.88s-4.5 1.51-4.5 4.88v13.35h-4.39v-21.9h4.3v2.2a7.76 7.76 0 0 1 5.79-2.46c2.24 0 4.08.73 5.37 1.99 1.67 1.64 2.19 3.7 2.19 6.17v14zm-22.29-15.73a4.5 4.5 0 0 0-4.3-2.76 4.55 4.55 0 0 0-4.33 2.76c-.43 1-.52 1.64-.56 2.98h9.79a6.9 6.9 0 0 0-.6-2.98zm-3.65 12.19c2.45 0 3.73-.7 5.28-2.25l2.8 2.63c-2.24 2.25-4.35 3.42-8.17 3.42-5.45 0-9.79-2.9-9.79-11.23 0-7.09 3.65-11.2 9.23-11.2 5.84 0 9.24 4.33 9.24 10.55v1.94h-14.13c0 3.76 1.98 6.14 5.54 6.14z"/><path id="eperb" d="M1156.03 107.08c0 .49-.4.84-.93.84h-.86v-1.69h.86c.53 0 .93.37.93.85zm.6 3.13l-1.11-1.89c.59-.17 1-.59 1-1.24 0-.75-.64-1.3-1.37-1.3h-1.4v4.43h.49v-1.85h.73l1.1 1.85zm-5.11-2.21a3.53 3.53 0 0 1 3.48-3.52 3.53 3.53 0 0 1 0 7.04 3.53 3.53 0 0 1-3.48-3.52zm-.52 0a4 4 0 1 0 8 0 4 4 0 0 0-8 0z"/></defs><g><g transform="translate(-718 -82)"><use fill="#2372b9" xlink:href="#epera"/></g><g transform="translate(-718 -82)"><use fill="#1c619f" xlink:href="#eperb"/></g></g></svg>