<?xml version="1.0" encoding="UTF-8"?>
<svg xmlns="http://www.w3.org/2000/svg" xmlns:xlink="http://www.w3.org/1999/xlink" version="1.2" >
<font id="AdelleTh">
<font-face  font-family="Adelle" units-per-em="1000" ascent="755" descent="-245" font-style="normal" font-weight="260" font-stretch="normal" cap-height="724" x-height="508" underline-position="-75" underline-thickness="50" />
<missing-glyph  horiz-adv-x="500" d="" />
<glyph glyph-name=".null" d="" />
<glyph glyph-name="nonmarkingreturn" unicode="&#xd;" horiz-adv-x="500" d="" />
<glyph glyph-name="space" unicode="&#x20;" horiz-adv-x="236" d="" />
<glyph glyph-name="uni00A0" unicode="&#xa0;" horiz-adv-x="236" d="" />
<glyph glyph-name="thinspace" unicode="&#x2009;" horiz-adv-x="125" d="" />
<glyph glyph-name="quotesingle" unicode="&#x27;" horiz-adv-x="199" d="M70 447 L70 706 L129 706 L129 447 L70 447 Z " />
<glyph glyph-name="quotedbl" unicode="&#x22;" horiz-adv-x="357" d="M230 447 L230 706 L289 706 L289 447 L230 447 Z M70 447 L70 706 L129 706 L129 447 L70 447 Z " />
<glyph glyph-name="numbersign" unicode="&#x23;" horiz-adv-x="607" d="M336 0 L359 152 L213 152 L191 0 L141 0 L163 152 L37 152 L49 192 L170 192 L197 366 L71 366 L82 407 L203 407 L223 543 L274 543 L253 407 L396 407 L415 543 L466 543 L446 407 L571 407 L561 366 L439 366 L415 192 L538 192 L528 152 L408 152 L385 0 L336 0 Z M390 366 L246 366 L220 192 L365 192 L390 366 Z " />
<glyph glyph-name="ampersand" unicode="&#x26;" horiz-adv-x="712" d="M581 0 L488 114 Q441 46 385 17 Q329 -12 258 -12 Q211 -12 172.5 2.5 Q134 17 106.5 43.5 Q79 70 64 107.5 Q49 145 49 191 Q49 273 99.5 327 Q150 381 244 401 Q219 428 198.5 465.5 Q178 503 178 540 Q178 558 184.5 580.5 Q191 603 208.5 623 Q226 643 255.5 656.5 Q285 670 332 670 Q353 670 374.5 666.5 Q396 663 414.5 658 Q433 653 447 648.5 Q461 644 468 641 L468 523 L431 526 L419 596 Q417 605 414 609.5 Q411 614 403 617 Q389 622 370.5 624.5 Q352 627 330 627 Q279 627 253.5 605 Q228 583 228 548 Q228 527 232 509.5 Q236 492 247 472 Q258 452 277.5 426.5 Q297 401 328 365 L480 187 Q484 199 491.5 221.5 Q499 244 505.5 272 Q512 300 517.5 330 Q523 360 525 387 L627 387 L627 351 L576 342 Q567 340 564.5 338 Q562 336 560 326 Q554 283 541.5 238 Q529 193 512 158 L592 63 Q600 53 605.5 50.5 Q611 48 623 46 L676 35 L676 0 L581 0 Z M265 367 Q230 362 199.5 349.5 Q169 337 146.5 315 Q124 293 110.5 262.5 Q97 232 97 191 Q97 162 106.5 133 Q116 104 136 80.5 Q156 57 187 42 Q218 27 261 27 Q386 27 458 146 L265 367 Z " />
<glyph glyph-name="asterisk" unicode="&#x2a;" horiz-adv-x="466" d="M254 554 L247 577 L223 577 L216 554 L113 576 L53 598 L72 648 L130 626 L223 577 L208 680 L208 743 L261 743 L261 681 L247 577 L340 626 L398 648 L417 598 L357 576 L254 554 L332 483 L372 436 L332 401 L291 450 L235 539 L254 554 Z M235 539 L179 450 L138 401 L98 436 L138 483 L216 554 L235 539 Z " />
<glyph glyph-name="comma" unicode="&#x2c;" horiz-adv-x="168" d="M43 -104 L76 3 Q77 10 71 13 L41 27 L62 88 Q103 85 124 75.5 Q145 66 145 37 Q145 24 141.5 14 Q138 4 133 -6 L73 -116 L43 -104 Z " />
<glyph glyph-name="hyphen" unicode="&#x2d;" horiz-adv-x="311" d="M20 262 L20 313 L291 313 L291 262 L20 262 Z " />
<glyph glyph-name="period" unicode="&#x2e;" horiz-adv-x="202" d="M162 40 Q162 14 148 1 Q134 -12 109 -12 Q85 -12 71 1 Q57 14 57 40 Q57 66 71 79 Q85 92 109 92 Q162 92 162 40 Z " />
<glyph glyph-name="colon" unicode="&#x3a;" horiz-adv-x="206" d="M162 40 Q162 14 148 1 Q134 -12 109 -12 Q85 -12 71 1 Q57 14 57 40 Q57 66 71 79 Q85 92 109 92 Q162 92 162 40 Z M162 434 Q162 408 148 395 Q134 382 109 382 Q85 382 71 395 Q57 408 57 434 Q57 460 71 473 Q85 486 109 486 Q162 486 162 434 Z " />
<glyph glyph-name="semicolon" unicode="&#x3b;" horiz-adv-x="175" d="M152 434 Q152 408 138 395 Q124 382 99 382 Q75 382 61 395 Q47 408 47 434 Q47 460 61 473 Q75 486 99 486 Q152 486 152 434 Z M43 -104 L76 3 Q77 10 71 13 L41 27 L62 88 Q103 85 124 75.5 Q145 66 145 37 Q145 24 141.5 14 Q138 4 133 -6 L73 -116 L43 -104 Z " />
<glyph glyph-name="question" unicode="&#x3f;" horiz-adv-x="444" d="M142 179 L142 352 Q187 356 226 366.5 Q265 377 293.5 397 Q322 417 338.5 449.5 Q355 482 355 530 Q355 582 342 612.5 Q329 643 307 659 Q285 675 256 679 Q227 683 195 683 Q161 683 136 679.5 Q111 676 97 671 Q86 667 83.5 663 Q81 659 79 648 L68 587 L37 587 L37 693 Q40 694 54.5 699.5 Q69 705 91.5 710 Q114 715 142.5 719.5 Q171 724 202 724 Q247 724 284.5 715 Q322 706 349.5 684.5 Q377 663 392 627.5 Q407 592 407 540 Q407 484 390.5 444.5 Q374 405 344.5 378 Q315 351 275 336 Q235 321 188 314 L188 179 L142 179 Z M220 40 Q220 14 206 1 Q192 -12 168 -12 Q116 -12 116 40 Q116 92 168 92 Q192 92 206 79 Q220 66 220 40 Z " />
<glyph glyph-name="exclam" unicode="&#x21;" horiz-adv-x="252" d="M106 180 L96 565 L96 724 L155 724 L155 565 L146 180 L106 180 Z M179 40 Q179 14 165 1 Q151 -12 127 -12 Q75 -12 75 40 Q75 92 127 92 Q151 92 165 79 Q179 66 179 40 Z " />
<glyph glyph-name="exclamdown" unicode="&#xa1;" horiz-adv-x="252" d="M158.006 326.011 L168.006 -58.9655 L168.006 -217.956 L109.009 -217.956 L109.009 -58.9655 L118.009 326.011 L158.006 326.011 Z M85.0109 466.002 Q85.0109 492.001 99.0101 505 Q113.009 517.999 137.008 517.999 Q189.005 517.999 189.005 466.002 Q189.005 414.006 137.008 414.006 Q113.009 414.006 99.0101 427.005 Q85.0109 440.004 85.0109 466.002 Z " />
<glyph glyph-name="questiondown" unicode="&#xbf;" horiz-adv-x="444" d="M302.009 327.011 L302.009 154.021 Q257.011 150.022 218.014 139.522 Q179.016 129.023 150.518 109.024 Q122.02 89.0255 105.521 56.5274 Q89.0217 24.0294 89.0217 -23.9677 Q89.0217 -75.9645 102.021 -106.463 Q115.02 -136.961 137.019 -152.96 Q159.017 -168.959 188.016 -172.959 Q217.014 -176.958 249.012 -176.958 Q283.01 -176.958 308.008 -173.459 Q333.007 -169.959 347.006 -164.959 Q358.005 -160.959 360.505 -156.96 Q363.005 -152.96 365.005 -141.96 L376.004 -80.9642 L407.002 -80.9642 L407.002 -186.958 Q404.002 -187.958 389.503 -193.457 Q375.004 -198.957 352.506 -203.957 Q330.007 -208.956 301.509 -213.456 Q273.01 -217.956 242.012 -217.956 Q197.015 -217.956 159.517 -208.956 Q122.02 -199.957 94.5213 -178.458 Q67.023 -156.96 52.0239 -121.462 Q37.0248 -85.9639 37.0248 -33.967 Q37.0248 22.0295 53.5238 61.5271 Q70.0228 101.025 99.521 128.023 Q129.019 155.021 169.017 170.021 Q209.014 185.02 256.011 192.019 L256.011 327.011 L302.009 327.011 Z M224.013 466.002 Q224.013 492.001 238.013 505 Q252.012 517.999 276.01 517.999 Q328.007 517.999 328.007 466.002 Q328.007 414.006 276.01 414.006 Q252.012 414.006 238.013 427.005 Q224.013 440.004 224.013 466.002 Z " />
<glyph glyph-name="at" unicode="&#x40;" horiz-adv-x="820" d="M605 -145 Q581 -155 531.5 -167 Q482 -179 412 -179 Q333 -179 266.5 -157 Q200 -135 152 -91 Q104 -47 77.5 20.5 Q51 88 51 179 Q51 264 79.5 335 Q108 406 159.5 457 Q211 508 283 536.5 Q355 565 442 565 Q514 565 575 544 Q636 523 681 482.5 Q726 442 751 383.5 Q776 325 776 249 Q776 175 761.5 124.5 Q747 74 721.5 42.5 Q696 11 662 -2.5 Q628 -16 589 -16 Q536 -16 513.5 8.5 Q491 33 490 68 Q473 53 455.5 38 Q438 23 419.5 11 Q401 -1 381 -8.5 Q361 -16 340 -16 Q288 -16 264.5 18 Q241 52 241 117 Q241 172 255.5 222 Q270 272 297.5 309.5 Q325 347 364 369 Q403 391 452 391 Q485 391 518 381 Q551 371 575 359 L545 166 Q541 142 537.5 117.5 Q534 93 534 75 Q534 40 552.5 30 Q571 20 603 20 Q618 20 640.5 27 Q663 34 683 57 Q703 80 717.5 122.5 Q732 165 732 236 Q732 376 655.5 451 Q579 526 435 526 Q361 526 299 500.5 Q237 475 192.5 429 Q148 383 123.5 320 Q99 257 99 181 Q99 96 122.5 35.5 Q146 -25 188.5 -64 Q231 -103 290 -121 Q349 -139 419 -139 Q464 -139 508.5 -130 Q553 -121 592 -107 L605 -145 Z M523 328 Q506 339 485 344.5 Q464 350 443 350 Q411 350 383 332 Q355 314 334.5 283 Q314 252 302 211.5 Q290 171 290 125 Q290 105 292 88 Q294 71 300 58 Q306 45 317 37.5 Q328 30 347 30 Q364 30 384.5 39 Q405 48 424.5 61.5 Q444 75 462 91 Q480 107 492 122 L523 328 Z " />
<glyph glyph-name="A" unicode="A" horiz-adv-x="682" d="M470 0 L470 35 L553 44 L488 243 L186 243 L120 44 L201 35 L201 0 L11 0 L11 36 L54 47 Q62 49 68.5 53 Q75 57 78 66 L302 724 L372 724 L601 63 Q604 54 609 51 Q614 48 623 46 L670 35 L670 0 L470 0 Z M337 687 L202 287 L471 287 L337 687 Z " />
<glyph glyph-name="B" unicode="B" horiz-adv-x="669" d="M77 0 L77 33 L140 40 Q151 42 153.5 45.5 Q156 49 156 60 L156 663 Q156 674 153.5 678 Q151 682 140 683 L77 690 L77 724 L349 724 Q413 724 455 710.5 Q497 697 521.5 673 Q546 649 555.5 616.5 Q565 584 565 547 Q565 511 554 483.5 Q543 456 525.5 435.5 Q508 415 486 401 Q464 387 441 378 Q527 368 570.5 318.5 Q614 269 614 194 Q614 138 594.5 101 Q575 64 540 41.5 Q505 19 456.5 9.5 Q408 0 349 0 L77 0 Z M348 42 Q393 42 432 47.5 Q471 53 500 69 Q529 85 546 114.5 Q563 144 563 193 Q563 233 548.5 263 Q534 293 508 312 Q482 331 447 340.5 Q412 350 372 350 L203 350 L203 42 L348 42 Z M324 392 Q355 392 388.5 398.5 Q422 405 449 422 Q476 439 493.5 468.5 Q511 498 511 544 Q511 619 470.5 651 Q430 683 339 683 L203 683 L203 392 L324 392 Z " />
<glyph glyph-name="C" unicode="C" horiz-adv-x="680" d="M628 39 Q590 12 527 0 Q464 -12 395 -12 Q305 -12 241.5 16.5 Q178 45 137.5 96.5 Q97 148 78.5 218.5 Q60 289 60 373 Q60 450 82 516.5 Q104 583 147.5 632 Q191 681 256.5 709 Q322 737 410 737 Q479 737 535 722.5 Q591 708 626 685 L626 551 L588 553 L571 646 Q570 651 568.5 655.5 Q567 660 558 664 Q528 676 488 684 Q448 692 405 692 Q338 692 284 670.5 Q230 649 191.5 608 Q153 567 132 507 Q111 447 111 371 Q111 288 131 225 Q151 162 188 119 Q225 76 278.5 54.5 Q332 33 398 33 Q440 33 486 38 Q532 43 566 60 Q575 65 578 76 L594 164 L628 164 L628 39 Z " />
<glyph glyph-name="D" unicode="D" horiz-adv-x="777" d="M77 0 L77 33 L140 40 Q151 42 153.5 45.5 Q156 49 156 60 L156 663 Q156 674 153.5 678 Q151 682 140 683 L77 690 L77 724 L358 724 Q452 724 520 699.5 Q588 675 631.5 629.5 Q675 584 696 519 Q717 454 717 373 Q717 290 694.5 221 Q672 152 626 103 Q580 54 509 27 Q438 0 341 0 L77 0 Z M351 42 Q503 42 584.5 124 Q666 206 666 356 Q666 451 644 514 Q622 577 582 614.5 Q542 652 484.5 667.5 Q427 683 357 683 L204 683 L204 42 L351 42 Z " />
<glyph glyph-name="E" unicode="E" horiz-adv-x="638" d="M77 0 L77 33 L140 40 Q151 42 153.5 45.5 Q156 49 156 60 L156 663 Q156 674 153.5 678 Q151 682 140 683 L77 690 L77 724 L558 724 L558 587 L519 589 L505 670 Q502 683 488 683 L204 683 L204 387 L494 387 L494 346 L204 346 L204 42 L510 42 Q518 42 521 43.5 Q524 45 526 53 L542 141 L580 141 L580 0 L77 0 Z " />
<glyph glyph-name="F" unicode="F" horiz-adv-x="600" d="M77 0 L77 35 L140 42 Q151 44 153.5 47.5 Q156 51 156 62 L156 663 Q156 674 153.5 678 Q151 682 140 683 L77 690 L77 724 L554 724 L554 587 L515 589 L501 670 Q498 683 484 683 L204 683 L204 390 L490 390 L490 349 L204 349 L204 63 Q204 51 206.5 48 Q209 45 220 43 L367 35 L367 0 L77 0 Z " />
<glyph glyph-name="G" unicode="G" horiz-adv-x="754" d="M676 283 Q660 282 660 272 L660 23 Q640 14 613 7.5 Q586 1 556 -3.5 Q526 -8 495 -10 Q464 -12 434 -12 Q333 -12 262 16.5 Q191 45 146 96 Q101 147 80.5 216.5 Q60 286 60 369 Q60 448 82 515 Q104 582 147.5 631.5 Q191 681 256.5 709 Q322 737 410 737 Q480 737 537.5 722.5 Q595 708 630 685 L630 550 L592 551 L574 646 Q574 651 572 655.5 Q570 660 562 664 Q531 676 490 684 Q449 692 405 692 Q339 692 284.5 671 Q230 650 191.5 608.5 Q153 567 132 506.5 Q111 446 111 367 Q111 285 133.5 222.5 Q156 160 198 118 Q240 76 299.5 54.5 Q359 33 432 33 Q454 33 477.5 34.5 Q501 36 523.5 39 Q546 42 565.5 45.5 Q585 49 600 54 Q604 56 608 59 Q612 62 612 71 L612 283 L459 283 L468 325 L718 325 L718 287 L676 283 Z " />
<glyph glyph-name="H" unicode="H" horiz-adv-x="801" d="M518 0 L518 35 L581 42 Q592 44 594.5 47.5 Q597 51 597 62 L597 354 L204 354 L204 63 Q204 51 206.5 48 Q209 45 220 43 L287 35 L287 0 L77 0 L77 35 L140 42 Q151 44 153.5 47.5 Q156 51 156 62 L156 662 Q156 673 153.5 677 Q151 681 140 682 L77 689 L77 724 L287 724 L287 689 L220 681 Q209 679 206.5 676 Q204 673 204 662 L204 396 L597 396 L597 662 Q597 673 594.5 677 Q592 681 581 682 L518 689 L518 724 L728 724 L728 689 L661 681 Q650 679 647.5 676 Q645 673 645 662 L645 63 Q645 51 647.5 48 Q650 45 661 43 L728 35 L728 0 L518 0 Z " />
<glyph glyph-name="I" unicode="I" horiz-adv-x="391" d="M82 0 L82 35 L155 42 Q166 44 168.5 47.5 Q171 51 171 62 L171 662 Q171 673 168.5 677 Q166 681 155 682 L82 689 L82 724 L313 724 L313 689 L236 681 Q225 679 222.5 676 Q220 673 220 662 L220 63 Q220 51 222.5 48 Q225 45 236 43 L313 35 L313 0 L82 0 Z " />
<glyph glyph-name="J" unicode="J" horiz-adv-x="495" d="M314 663 Q314 674 311 677.5 Q308 681 298 682 L216 689 L216 724 L445 724 L445 689 L378 681 Q367 679 364.5 676.5 Q362 674 362 663 L362 136 Q362 60 327 24 Q292 -12 214 -12 Q157 -12 117 -0.5 Q77 11 65 19 L65 129 L104 127 L114 60 Q115 56 116.5 52.5 Q118 49 126 46 Q134 41 156.5 34.5 Q179 28 214 28 Q244 28 263.5 35.5 Q283 43 294.5 57.5 Q306 72 310 94 Q314 116 314 146 L314 663 Z " />
<glyph glyph-name="K" unicode="K" horiz-adv-x="723" d="M462 0 L462 37 L554 45 L290 376 L204 285 L204 63 Q204 51 206.5 48 Q209 45 220 43 L287 35 L287 0 L77 0 L77 35 L140 42 Q151 44 153.5 47.5 Q156 51 156 62 L156 662 Q156 673 153.5 677 Q151 681 140 682 L77 689 L77 724 L287 724 L287 689 L220 681 Q209 679 206.5 676 Q204 673 204 662 L204 343 L518 680 L456 688 L456 724 L649 724 L649 689 L592 678 Q578 676 573.5 673 Q569 670 562 663 L324 410 L600 61 Q607 52 611 49.5 Q615 47 629 45 L688 35 L688 0 L462 0 Z " />
<glyph glyph-name="L" unicode="L" horiz-adv-x="616" d="M77 0 L77 33 L140 40 Q151 42 153.5 45.5 Q156 49 156 60 L156 661 Q156 672 153.5 676 Q151 680 140 681 L77 688 L77 724 L303 724 L303 688 L220 680 Q209 679 206.5 675.5 Q204 672 204 661 L204 42 L510 42 Q518 42 521 43.5 Q524 45 526 53 L542 138 L580 138 L580 0 L77 0 Z " />
<glyph glyph-name="M" unicode="M" horiz-adv-x="938" d="M635 0 L635 35 L718 42 Q729 44 731.5 47.5 Q734 51 734 62 L734 637 L490 191 L454 191 L203 651 L203 63 Q203 51 205.5 48 Q208 45 219 43 L306 35 L306 0 L77 0 L77 35 L140 42 Q151 44 153.5 47.5 Q156 51 156 62 L156 661 Q156 672 153.5 676 Q151 680 140 681 L77 688 L77 724 L218 724 L473 246 L730 724 L865 724 L865 689 L798 681 Q787 679 784.5 676 Q782 673 782 662 L782 62 Q782 52 785 48.5 Q788 45 798 43 L865 35 L865 0 L635 0 Z " />
<glyph glyph-name="N" unicode="N" horiz-adv-x="828" d="M612 0 L204 674 L204 63 Q204 51 206.5 48 Q209 45 220 43 L287 35 L287 0 L77 0 L77 35 L140 42 Q151 44 153.5 47.5 Q156 51 156 62 L156 661 Q156 672 153.5 675.5 Q151 679 140 681 L77 688 L77 724 L233 724 L629 62 L629 662 Q629 673 626.5 676.5 Q624 680 613 682 L550 689 L550 724 L760 724 L760 689 L693 681 Q682 679 679.5 676 Q677 673 677 662 L677 0 L612 0 Z " />
<glyph glyph-name="O" unicode="O" horiz-adv-x="787" d="M391 -12 Q307 -12 245 16 Q183 44 142.5 94 Q102 144 82 212 Q62 280 62 360 Q62 442 84 511.5 Q106 581 149.5 631 Q193 681 257 709 Q321 737 405 737 Q487 737 548 709.5 Q609 682 649.5 633.5 Q690 585 709.5 519.5 Q729 454 729 379 Q729 290 707.5 218 Q686 146 643.5 95 Q601 44 537.5 16 Q474 -12 391 -12 Z M394 31 Q458 31 510.5 52.5 Q563 74 600.5 116.5 Q638 159 658.5 222 Q679 285 679 369 Q679 447 659.5 507.5 Q640 568 604 609.5 Q568 651 517 672.5 Q466 694 403 694 Q339 694 286 672 Q233 650 194.5 607.5 Q156 565 135 503 Q114 441 114 360 Q114 282 133.5 221 Q153 160 189 117.5 Q225 75 277 53 Q329 31 394 31 Z " />
<glyph glyph-name="P" unicode="P" horiz-adv-x="663" d="M77 0 L77 35 L140 42 Q151 44 153.5 47.5 Q156 51 156 62 L156 663 Q156 674 153.5 678 Q151 682 140 683 L77 690 L77 724 L365 724 Q434 724 480.5 707 Q527 690 555 660.5 Q583 631 594.5 592.5 Q606 554 606 511 Q606 447 587 403.5 Q568 360 532.5 333 Q497 306 446 294 Q395 282 332 282 L203 282 L203 63 Q203 51 205.5 47 Q208 43 219 43 L362 35 L362 0 L77 0 Z M334 323 Q381 323 421.5 330 Q462 337 491.5 357.5 Q521 378 537.5 415 Q554 452 554 511 Q554 595 507 639 Q460 683 351 683 L203 683 L203 323 L334 323 Z " />
<glyph glyph-name="Q" unicode="Q" horiz-adv-x="782" d="M562 -154 Q554 -159 533.5 -164.5 Q513 -170 491 -170 Q424 -170 396.5 -143 Q369 -116 369 -54 Q369 -43 369 -34.5 Q369 -26 371 -12 Q291 -9 232 20.5 Q173 50 135 100.5 Q97 151 78.5 219.5 Q60 288 60 370 Q60 449 82 516 Q104 583 147.5 632 Q191 681 255 709 Q319 737 403 737 Q485 737 545.5 709.5 Q606 682 646 633.5 Q686 585 705 519.5 Q724 454 724 379 Q724 295 704.5 226 Q685 157 647 106 Q609 55 552.5 25 Q496 -5 422 -11 Q419 -34 419 -60 Q419 -91 431.5 -110 Q444 -129 486 -129 Q506 -129 523.5 -124.5 Q541 -120 549 -116 L562 -154 Z M392 31 Q455 31 507 52.5 Q559 74 596 116.5 Q633 159 653.5 222 Q674 285 674 369 Q674 447 655 507.5 Q636 568 600 609.5 Q564 651 513.5 672.5 Q463 694 400 694 Q337 694 284 672 Q231 650 193 608.5 Q155 567 133.5 506.5 Q112 446 112 368 Q112 205 185 118 Q258 31 392 31 Z " />
<glyph glyph-name="R" unicode="R" horiz-adv-x="696" d="M436 0 L436 37 L524 47 L435 258 Q420 293 400.5 307 Q381 321 351 321 L203 321 L203 63 Q203 51 205.5 48 Q208 45 219 43 L289 35 L289 0 L77 0 L77 35 L140 42 Q151 44 153.5 47.5 Q156 51 156 62 L156 663 Q156 674 153.5 678 Q151 682 140 683 L77 690 L77 724 L358 724 Q425 724 468 707 Q511 690 536 663.5 Q561 637 570 603.5 Q579 570 579 537 Q579 453 536 403.5 Q493 354 426 337 Q452 325 464 304.5 Q476 284 491 248 L569 63 Q571 60 575.5 55.5 Q580 51 588 49 L660 36 L660 0 L436 0 Z M326 362 Q368 362 405 370.5 Q442 379 469.5 398.5 Q497 418 512.5 451 Q528 484 528 532 Q528 577 513.5 606.5 Q499 636 474.5 653 Q450 670 416 676.5 Q382 683 343 683 L203 683 L203 362 L326 362 Z " />
<glyph glyph-name="S" unicode="S" horiz-adv-x="579" d="M456 559 L435 657 Q433 663 431.5 667.5 Q430 672 424 675 Q414 680 390.5 686.5 Q367 693 317 693 Q223 693 179 654.5 Q135 616 135 551 Q135 507 153.5 480 Q172 453 202 435 Q232 417 270 405.5 Q308 394 347 381 Q380 370 410 355.5 Q440 341 463.5 318.5 Q487 296 500.5 264 Q514 232 514 186 Q514 130 493.5 92.5 Q473 55 438.5 31.5 Q404 8 358 -2 Q312 -12 261 -12 Q226 -12 194.5 -8 Q163 -4 137 1.5 Q111 7 92 13 Q73 19 63 24 L63 164 L97 164 L116 76 Q118 66 119.5 62 Q121 58 130 54 Q143 49 177.5 40.5 Q212 32 266 32 Q354 32 407 69 Q460 106 460 185 Q460 231 441 260 Q422 289 391 307.5 Q360 326 321.5 338 Q283 350 244 363 Q211 373 181.5 387.5 Q152 402 129.5 423 Q107 444 94 474.5 Q81 505 81 548 Q81 599 100 634.5 Q119 670 151.5 693 Q184 716 227.5 726.5 Q271 737 321 737 Q384 737 428.5 725.5 Q473 714 493 707 L493 554 L456 559 Z " />
<glyph glyph-name="T" unicode="T" horiz-adv-x="630" d="M172 0 L172 36 L275 43 Q286 44 288.5 48 Q291 52 291 63 L291 683 L102 683 Q94 683 91 681.5 Q88 680 86 672 L70 583 L32 580 L32 724 L600 724 L600 580 L563 583 L547 672 Q545 680 542 681.5 Q539 683 531 683 L339 683 L339 63 Q339 52 341.5 48.5 Q344 45 355 44 L465 36 L465 0 L172 0 Z " />
<glyph glyph-name="U" unicode="U" horiz-adv-x="790" d="M595 662 Q595 673 592.5 677 Q590 681 579 682 L516 689 L516 724 L726 724 L726 689 L659 681 Q648 679 645.5 676 Q643 673 643 662 L643 229 Q643 108 579 48 Q515 -12 388 -12 Q322 -12 276.5 4 Q231 20 202 51 Q173 82 160 127 Q147 172 147 229 L147 662 Q147 673 144.5 677 Q142 681 131 682 L68 689 L68 724 L278 724 L278 689 L211 681 Q200 679 197.5 676 Q195 673 195 662 L195 227 Q195 171 209 133 Q223 95 249 72 Q275 49 312 39.5 Q349 30 394 30 Q441 30 478 40 Q515 50 541 72.5 Q567 95 581 132.5 Q595 170 595 226 L595 662 Z " />
<glyph glyph-name="V" unicode="V" horiz-adv-x="663" d="M301 0 L71 661 Q68 670 62 673 Q56 676 47 678 L2 689 L12 724 L204 724 L204 689 L120 680 L337 38 L539 680 L458 689 L468 724 L650 724 L650 689 L608 678 Q599 676 592.5 672 Q586 668 583 659 L370 0 L301 0 Z " />
<glyph glyph-name="W" unicode="W" horiz-adv-x="958" d="M638 0 L481 518 L321 0 L270 0 L95 660 Q93 670 89.5 673.5 Q86 677 75 679 L11 689 L21 724 L233 724 L233 689 L141 679 L299 64 L454 569 L512 569 L666 52 L824 679 L730 689 L740 724 L947 724 L947 689 L892 680 Q881 678 878 674.5 Q875 671 872 660 L697 0 L638 0 Z " />
<glyph glyph-name="X" unicode="X" horiz-adv-x="647" d="M433 0 L433 35 L506 44 L317 336 L133 44 L204 35 L204 0 L19 0 L19 33 L66 44 Q75 46 80.5 50.5 Q86 55 91 63 L285 371 L106 661 Q101 669 96 672.5 Q91 676 82 678 L38 689 L48 724 L226 724 L226 689 L153 680 L317 409 L489 680 L419 689 L429 724 L596 724 L596 689 L556 678 Q539 674 531 659 L350 373 L552 63 Q557 55 562 51.5 Q567 48 576 46 L626 35 L626 0 L433 0 Z " />
<glyph glyph-name="Y" unicode="Y" horiz-adv-x="579" d="M162 0 L162 35 L254 42 Q265 43 267.5 47 Q270 51 270 62 L270 287 L68 661 Q61 674 44 678 L-1 689 L9 724 L188 724 L188 689 L115 680 L296 335 L471 680 L401 689 L411 724 L580 724 L580 689 L538 678 Q530 676 524 671.5 Q518 667 513 659 L319 290 L319 63 Q319 51 321.5 48 Q324 45 335 43 L429 35 L429 0 L162 0 Z " />
<glyph glyph-name="Z" unicode="Z" horiz-adv-x="625" d="M50 0 L50 33 L496 683 L138 683 Q130 683 127 681.5 Q124 680 122 672 L103 577 L65 574 L65 724 L557 724 L557 689 L113 42 L490 42 Q498 42 501 43.5 Q504 45 506 53 L526 161 L562 161 L562 0 L50 0 Z " />
<glyph glyph-name="AE" unicode="&#xc6;" horiz-adv-x="1011" d="M449 0 L449 35 L506 43 Q521 45 524.5 49.5 Q528 54 528 68 L528 334 L290 334 L125 44 L195 35 L195 0 L11 0 L11 35 L63 48 Q71 50 73 51.5 Q75 53 77 55 L433 682 L357 688 L357 724 L931 724 L931 587 L893 589 L879 670 Q878 675 874 679 Q870 683 859 683 L578 683 L578 377 L867 377 L867 334 L578 334 L578 42 L884 42 Q892 42 895 43.5 Q898 45 900 53 L916 141 L953 141 L953 0 L449 0 Z M528 681 L487 681 L315 378 L528 378 L528 681 Z " />
<glyph glyph-name="IJ" unicode="&#x132;" horiz-adv-x="882" d="M82 0 L82 35 L155 42 Q166 44 168.5 47.5 Q171 51 171 62 L171 662 Q171 673 168.5 677 Q166 681 155 682 L82 689 L82 724 L313 724 L313 689 L236 681 Q225 679 222.5 676 Q220 673 220 662 L220 63 Q220 51 222.5 48 Q225 45 236 43 L313 35 L313 0 L82 0 Z M701 663 Q701 674 698 677.5 Q695 681 685 682 L603 689 L603 724 L832 724 L832 689 L765 681 Q754 679 751.5 676.5 Q749 674 749 663 L749 136 Q749 60 714 24 Q679 -12 601 -12 Q544 -12 504 -0.5 Q464 11 452 19 L452 129 L491 127 L501 60 Q502 56 503.5 52.5 Q505 49 513 46 Q521 41 543.5 34.5 Q566 28 601 28 Q631 28 650.5 35.5 Q670 43 681.5 57.5 Q693 72 697 94 Q701 116 701 146 L701 663 Z " />
<glyph glyph-name="Eng" unicode="&#x14a;" horiz-adv-x="828" d="M677 -84 Q677 -159 637.5 -191 Q598 -223 529 -223 Q488 -223 449 -207.5 Q410 -192 391 -175 L417 -134 Q423 -140 434.5 -147.5 Q446 -155 461 -161.5 Q476 -168 494 -173 Q512 -178 531 -178 Q563 -178 582 -170 Q601 -162 610.5 -147 Q620 -132 623 -110.5 Q626 -89 626 -62 L626 -22 L204 674 L204 63 Q204 51 206.5 48 Q209 45 220 43 L287 35 L287 0 L77 0 L77 35 L140 42 Q151 44 153.5 47.5 Q156 51 156 62 L156 661 Q156 672 153.5 675.5 Q151 679 140 681 L77 688 L77 724 L233 724 L629 62 L629 662 Q629 673 626.5 676.5 Q624 680 613 682 L550 689 L550 724 L760 724 L760 689 L693 681 Q682 679 679.5 676 Q677 673 677 662 L677 -84 Z " />
<glyph glyph-name="Eth" unicode="&#xd0;" horiz-adv-x="789" d="M88 0 L88 35 L151 42 Q162 44 164.5 47.5 Q167 51 167 62 L167 352 L56 352 L56 394 L167 394 L167 661 Q167 672 164.5 676 Q162 680 151 681 L88 688 L88 724 L370 724 Q464 724 532 699.5 Q600 675 643.5 629.5 Q687 584 708 519 Q729 454 729 373 Q729 290 706.5 221 Q684 152 638 103 Q592 54 521 27 Q450 0 353 0 L88 0 Z M359 42 Q511 42 594 124 Q677 206 677 356 Q677 451 655.5 513.5 Q634 576 593.5 613.5 Q553 651 496 666.5 Q439 682 368 682 L216 682 L216 394 L448 394 L448 352 L216 352 L216 42 L359 42 Z " />
<glyph glyph-name="OE" unicode="&#x152;" horiz-adv-x="992" d="M444 0 Q402 -12 348 -12 Q263 -12 207.5 16.5 Q152 45 120 95.5 Q88 146 75 216 Q62 286 62 370 Q62 449 77 516 Q92 583 127.5 632 Q163 681 220.5 709 Q278 737 362 737 Q389 737 413.5 733.5 Q438 730 460 724 L912 724 L912 587 L873 589 L859 668 Q856 681 842 681 L542 681 Q568 658 586.5 627 Q605 596 617 558 Q629 520 635 477 Q641 434 642 388 L859 388 L859 346 L641 346 Q637 244 612.5 167.5 Q588 91 532 43 L864 43 Q872 43 875 44.5 Q878 46 880 54 L896 141 L934 141 L934 0 L444 0 Z M351 29 Q479 29 536 114 Q593 199 593 369 Q593 528 536 612 Q479 696 359 696 Q238 696 175 611.5 Q112 527 112 368 Q112 203 167 116 Q222 29 351 29 Z " />
<glyph glyph-name="Thorn" unicode="&#xde;" horiz-adv-x="666" d="M77 0 L77 35 L140 42 Q151 44 153.5 47.5 Q156 51 156 62 L156 661 Q156 672 153.5 676 Q151 680 140 681 L77 688 L77 724 L298 724 L298 689 L219 681 Q207 679 205 676 Q203 673 203 661 L203 604 L365 604 Q434 604 480.5 586.5 Q527 569 555 539.5 Q583 510 594.5 470.5 Q606 431 606 388 Q606 325 587 282.5 Q568 240 532.5 214 Q497 188 446 176.5 Q395 165 332 165 L203 165 L203 63 Q203 51 205.5 47.5 Q208 44 219 43 L362 35 L362 0 L77 0 Z M334 209 Q380 209 420 215 Q460 221 490 240 Q520 259 537 294 Q554 329 554 387 Q554 474 507.5 517.5 Q461 561 351 561 L203 561 L203 209 L334 209 Z " />
<glyph glyph-name="a" unicode="a" horiz-adv-x="529" d="M393 0 L384 73 Q341 33 295 10.5 Q249 -12 192 -12 Q145 -12 118 2 Q91 16 77 36.5 Q63 57 59 79 Q55 101 55 118 Q55 193 100.5 226 Q146 259 233 267 L383 280 L383 340 Q383 375 378.5 401 Q374 427 360.5 443.5 Q347 460 323 468 Q299 476 260 476 Q233 476 209.5 474.5 Q186 473 168.5 464.5 Q151 456 140.5 438 Q130 420 130 387 L82 394 Q82 437 100 461.5 Q118 486 144.5 498.5 Q171 511 202 514.5 Q233 518 260 518 Q310 518 343 509.5 Q376 501 396 481 Q416 461 424 427.5 Q432 394 432 344 L432 62 Q432 50 434.5 47 Q437 44 448 42 L501 35 L501 0 L393 0 Z M383 239 L238 226 Q199 223 173.5 214.5 Q148 206 133.5 193.5 Q119 181 113 163.5 Q107 146 107 124 Q107 75 130 52.5 Q153 30 200 30 Q229 30 255.5 38.5 Q282 47 305.5 60.5 Q329 74 348.5 90.5 Q368 107 383 124 L383 239 Z " />
<glyph glyph-name="b" unicode="b" horiz-adv-x="583" d="M100 0 Q101 12 103 28.5 Q105 45 106.5 64 Q108 83 109 103 Q110 123 110 141 L110 683 Q110 700 97 704 L34 723 L42 755 L159 755 L159 450 Q201 477 245.5 497.5 Q290 518 345 518 Q388 518 422.5 504 Q457 490 481 460.5 Q505 431 518 385 Q531 339 531 276 Q531 199 516 144 Q501 89 473 54.5 Q445 20 406 4 Q367 -12 319 -12 Q274 -12 234.5 3 Q195 18 157 51 L150 0 L100 0 Z M159 106 Q189 73 231.5 52 Q274 31 316 31 Q362 31 394 47.5 Q426 64 445 94.5 Q464 125 472.5 169 Q481 213 481 268 Q481 331 469.5 371 Q458 411 438.5 434 Q419 457 394 465.5 Q369 474 341 474 Q313 474 287 467.5 Q261 461 238 450.5 Q215 440 195 427.5 Q175 415 159 403 L159 106 Z " />
<glyph glyph-name="c" unicode="c" horiz-adv-x="469" d="M443 26 Q431 18 413 10 Q395 2 373.5 -4 Q352 -10 328.5 -13.5 Q305 -17 283 -17 Q221 -17 177 2.5 Q133 22 104.5 57 Q76 92 62.5 140 Q49 188 49 244 Q49 316 68 367 Q87 418 120.5 450.5 Q154 483 200.5 498 Q247 513 302 513 Q356 513 390 503.5 Q424 494 437 490 L437 376 L398 379 L386 448 Q385 453 383.5 455.5 Q382 458 375 460 Q364 464 341 467.5 Q318 471 293 471 Q252 471 217 458.5 Q182 446 156 418.5 Q130 391 115 348 Q100 305 100 245 Q100 134 151 80.5 Q202 27 288 27 Q326 27 362.5 37.5 Q399 48 424 65 L443 26 Z " />
<glyph glyph-name="d" unicode="d" horiz-adv-x="587" d="M432 0 L426 71 Q389 37 345 12.5 Q301 -12 240 -12 Q198 -12 163.5 2 Q129 16 104 46.5 Q79 77 65.5 124.5 Q52 172 52 240 Q52 313 67 365.5 Q82 418 109.5 452 Q137 486 175.5 502 Q214 518 262 518 Q309 518 349.5 500.5 Q390 483 422 457 L422 685 Q422 701 409 705 L347 724 L355 755 L473 755 L473 62 Q473 50 475.5 47 Q478 44 489 42 L542 35 L542 0 L432 0 Z M422 406 Q409 419 391 431.5 Q373 444 351.5 454 Q330 464 305.5 470 Q281 476 255 476 Q214 476 185.5 459.5 Q157 443 138 412.5 Q119 382 110.5 338.5 Q102 295 102 242 Q102 178 114 137 Q126 96 145.5 72 Q165 48 191 39 Q217 30 244 30 Q302 30 344.5 58 Q387 86 422 126 L422 406 Z " />
<glyph glyph-name="e" unicode="e" horiz-adv-x="502" d="M446 31 Q417 11 373.5 -0.5 Q330 -12 279 -12 Q213 -12 169 9 Q125 30 98.5 66 Q72 102 60.5 151 Q49 200 49 256 Q49 323 65.5 372.5 Q82 422 111.5 454 Q141 486 180.5 502 Q220 518 266 518 Q308 518 343.5 505.5 Q379 493 405 465 Q431 437 445.5 392.5 Q460 348 460 285 Q460 274 459.5 266 Q459 258 458 248 L99 248 Q100 201 110.5 161.5 Q121 122 142.5 93 Q164 64 198 48 Q232 32 281 32 Q331 32 364 42.5 Q397 53 427 70 L446 31 Z M408 288 Q406 388 366.5 431.5 Q327 475 265 475 Q234 475 206 465.5 Q178 456 156 434.5 Q134 413 119.5 377 Q105 341 102 288 L408 288 Z " />
<glyph glyph-name="f" unicode="f" horiz-adv-x="385" d="M49 0 L49 36 L118 42 Q129 43 131.5 47 Q134 51 134 62 L134 457 Q134 462 133 464.5 Q132 467 126 467 L50 467 L50 508 L134 508 L134 601 Q134 679 171.5 722.5 Q209 766 296 766 Q323 766 347 762 Q371 758 388 746.5 Q405 735 415 715 Q425 695 425 664 L378 657 Q378 698 356 710.5 Q334 723 294 723 Q260 723 238.5 714 Q217 705 204.5 688 Q192 671 187.5 647 Q183 623 183 593 L183 518 Q183 513 184 510.5 Q185 508 191 508 L360 508 L360 467 L183 467 L183 62 Q183 50 185.5 46.5 Q188 43 199 42 L313 35 L313 0 L49 0 Z " />
<glyph glyph-name="g" unicode="g" horiz-adv-x="527" d="M423 459 Q443 437 453.5 410 Q464 383 464 346 Q464 300 448.5 264.5 Q433 229 406 205 Q379 181 341.5 169 Q304 157 260 157 Q233 157 206 161.5 Q179 166 162 174 L114 76 L339 58 Q383 54 415 46 Q447 38 468 23.5 Q489 9 499 -13.5 Q509 -36 509 -68 Q509 -140 449 -182.5 Q389 -225 258 -225 Q196 -225 153.5 -216.5 Q111 -208 85 -192 Q59 -176 48 -153.5 Q37 -131 37 -102 Q37 -62 58 -31.5 Q79 -1 114 31 Q65 34 65 70 Q65 81 70 93 Q75 105 83 118 L126 192 Q97 212 77.5 248 Q58 284 58 332 Q58 418 113 468 Q168 518 265 518 Q289 518 310.5 515.5 Q332 513 348 508 L519 508 L519 466 L423 459 Z M415 336 Q415 405 376.5 442 Q338 479 265 479 Q194 479 151 443 Q108 407 108 335 Q108 306 116 281 Q124 256 142.5 237.5 Q161 219 190.5 208 Q220 197 263 197 Q298 197 326.5 207.5 Q355 218 374.5 237 Q394 256 404.5 281 Q415 306 415 336 Z M164 24 Q153 14 140 1 Q127 -12 116 -27 Q105 -42 97.5 -58.5 Q90 -75 90 -92 Q90 -116 99 -133 Q108 -150 129.5 -161 Q151 -172 186.5 -177 Q222 -182 274 -182 Q325 -182 360 -173 Q395 -164 416.5 -148 Q438 -132 447 -112 Q456 -92 456 -69 Q456 -24 424.5 -8 Q393 8 336 12 L164 24 Z " />
<glyph glyph-name="h" unicode="h" horiz-adv-x="633" d="M403 0 L403 36 L458 42 Q469 44 470.5 46.5 Q472 49 472 60 L472 323 Q472 408 442 441 Q412 474 357 474 Q327 474 297.5 464 Q268 454 243 440.5 Q218 427 199 412 Q180 397 171 388 L171 62 Q171 50 173.5 47 Q176 44 187 42 L250 35 L250 0 L52 0 L52 36 L106 42 Q117 44 119.5 47.5 Q122 51 122 62 L122 683 Q122 700 109 704 L47 723 L54 755 L172 755 L172 437 Q194 454 215.5 469 Q237 484 259.5 495 Q282 506 307 512 Q332 518 362 518 Q400 518 430 509 Q460 500 480.5 478 Q501 456 511.5 417.5 Q522 379 522 321 L522 62 Q522 50 524.5 47 Q527 44 538 42 L600 35 L600 0 L403 0 Z " />
<glyph glyph-name="i" unicode="i" horiz-adv-x="283" d="M180 687 Q180 666 167.5 655 Q155 644 133 644 Q87 644 87 687 Q87 731 133 731 Q155 731 167.5 720 Q180 709 180 687 Z M29 0 L29 36 L106 42 Q117 44 119.5 47.5 Q122 51 122 62 L122 436 Q122 453 109 457 L50 476 L57 508 L171 508 L171 62 Q171 50 173.5 47 Q176 44 187 42 L262 35 L262 0 L29 0 Z " />
<glyph glyph-name="j" unicode="j" horiz-adv-x="268" d="M120 436 Q120 447 118.5 451 Q117 455 109 457 L38 476 L45 508 L169 508 L169 -80 Q169 -154 141 -188.5 Q113 -223 46 -223 Q10 -223 -19.5 -211.5 Q-49 -200 -70 -183 L-43 -145 Q-29 -156 -4.5 -167.5 Q20 -179 48 -179 Q72 -179 86 -172.5 Q100 -166 107.5 -152.5 Q115 -139 117.5 -119 Q120 -99 120 -72 L120 436 Z M180 687 Q180 644 134 644 Q87 644 87 687 Q87 731 134 731 Q180 731 180 687 Z " />
<glyph glyph-name="k" unicode="k" horiz-adv-x="570" d="M369 0 L369 37 L431 45 L274 285 L171 163 L171 62 Q171 50 173.5 47 Q176 44 187 42 L256 35 L256 0 L35 0 L35 36 L106 42 Q117 44 119.5 47.5 Q122 51 122 62 L122 683 Q122 700 109 704 L47 723 L54 755 L171 755 L171 229 L404 508 L496 508 L496 475 L435 461 Q426 458 421.5 456 Q417 454 410 446 L306 324 L475 62 Q481 53 485.5 50.5 Q490 48 504 46 L559 35 L559 0 L369 0 Z " />
<glyph glyph-name="l" unicode="l" horiz-adv-x="283" d="M35 0 L35 36 L106 42 Q117 43 119.5 47 Q122 51 122 62 L122 683 Q122 700 109 704 L47 723 L54 755 L171 755 L171 62 Q171 50 173.5 47 Q176 44 187 42 L256 35 L256 0 L35 0 Z " />
<glyph glyph-name="m" unicode="m" horiz-adv-x="928" d="M697 0 L697 36 L752 42 Q763 44 764.5 46.5 Q766 49 766 60 L766 319 Q766 361 761 390.5 Q756 420 744 438.5 Q732 457 711.5 466 Q691 475 660 475 Q612 475 568 453.5 Q524 432 493 408 Q499 378 499 337 L499 62 Q499 50 501.5 47 Q504 44 515 42 L569 35 L569 0 L385 0 L385 36 L435 42 Q446 44 447.5 46.5 Q449 49 449 60 L449 323 Q449 368 444.5 397.5 Q440 427 429 444 Q418 461 399.5 468 Q381 475 353 475 Q320 475 290.5 465.5 Q261 456 237.5 442.5 Q214 429 197 415.5 Q180 402 171 393 L171 62 Q171 50 173.5 47 Q176 44 187 42 L252 35 L252 0 L52 0 L52 36 L106 42 Q117 44 119.5 47.5 Q122 51 122 62 L122 437 Q122 454 109 458 L50 477 L57 508 L161 508 L168 439 Q182 451 201.5 464.5 Q221 478 246 490 Q271 502 300 510 Q329 518 363 518 Q392 518 412.5 512 Q433 506 446.5 496 Q460 486 468.5 473 Q477 460 482 446 Q520 472 565.5 495 Q611 518 668 518 Q713 518 741.5 504 Q770 490 786.5 465 Q803 440 809.5 404 Q816 368 816 325 L816 62 Q816 50 818.5 47 Q821 44 832 42 L894 35 L894 0 L697 0 Z " />
<glyph glyph-name="n" unicode="n" horiz-adv-x="633" d="M403 0 L403 36 L458 42 Q469 44 470.5 46.5 Q472 49 472 60 L472 303 Q472 354 464.5 387 Q457 420 443 439.5 Q429 459 408 466.5 Q387 474 359 474 Q327 474 296.5 464 Q266 454 240.5 440 Q215 426 196.5 412 Q178 398 171 390 L171 62 Q171 50 173.5 47 Q176 44 187 42 L250 35 L250 0 L52 0 L52 36 L106 42 Q117 44 119.5 47.5 Q122 51 122 62 L122 436 Q122 453 109 457 L50 476 L57 508 L160 508 L169 439 Q187 453 208.5 467 Q230 481 255 492.5 Q280 504 308.5 511 Q337 518 369 518 Q413 518 442.5 504.5 Q472 491 489.5 465.5 Q507 440 514.5 404 Q522 368 522 322 L522 62 Q522 50 524.5 47 Q527 44 538 42 L600 35 L600 0 L403 0 Z " />
<glyph glyph-name="o" unicode="o" horiz-adv-x="559" d="M278 -12 Q218 -12 174.5 8 Q131 28 103 63.5 Q75 99 62 148 Q49 197 49 255 Q49 313 63.5 361.5 Q78 410 107.5 444.5 Q137 479 182 498.5 Q227 518 288 518 Q348 518 390.5 499 Q433 480 459.5 446 Q486 412 498.5 365 Q511 318 511 263 Q511 201 497 150 Q483 99 454.5 63 Q426 27 382 7.5 Q338 -12 278 -12 Z M281 29 Q371 29 415.5 87.5 Q460 146 460 255 Q460 362 418 419 Q376 476 286 476 Q195 476 147 418.5 Q99 361 99 254 Q99 148 144.5 88.5 Q190 29 281 29 Z " />
<glyph glyph-name="p" unicode="p" horiz-adv-x="591" d="M60 -212 L60 -176 L102 -170 Q113 -168 115.5 -164.5 Q118 -161 118 -150 L118 436 Q118 453 105 457 L46 476 L53 508 L154 508 L162 445 Q175 453 194 465.5 Q213 478 238 489.5 Q263 501 292.5 509.5 Q322 518 356 518 Q387 518 419.5 509 Q452 500 479 472.5 Q506 445 523 395 Q540 345 540 264 Q540 215 531 166 Q522 117 499 77.5 Q476 38 434.5 13 Q393 -12 329 -12 Q299 -12 273 -5 Q247 2 226.5 12 Q206 22 191 32.5 Q176 43 168 50 L168 -151 Q168 -163 170.5 -166.5 Q173 -170 184 -171 L271 -177 L271 -212 L60 -212 Z M168 104 Q195 76 237.5 53.5 Q280 31 331 31 Q375 31 405.5 47.5 Q436 64 454.5 94.5 Q473 125 481.5 169 Q490 213 490 268 Q490 329 479.5 368.5 Q469 408 449.5 431.5 Q430 455 403.5 464.5 Q377 474 345 474 Q319 474 292.5 466 Q266 458 242 447 Q218 436 198.5 423.5 Q179 411 168 402 L168 104 Z " />
<glyph glyph-name="q" unicode="q" horiz-adv-x="567" d="M339 -212 L339 -177 L405 -170 Q416 -169 418.5 -166 Q421 -163 421 -150 L421 69 Q388 33 344.5 10.5 Q301 -12 242 -12 Q199 -12 164 2 Q129 16 104.5 46 Q80 76 66.5 123.5 Q53 171 53 239 Q53 311 67.5 364 Q82 417 109 451 Q136 485 174 501.5 Q212 518 258 518 Q308 518 351.5 501 Q395 484 427 459 L437 508 L484 508 Q479 473 476.5 445 Q474 417 474 386 L474 -150 Q474 -161 476.5 -164.5 Q479 -168 490 -170 L542 -176 L542 -212 L339 -212 Z M424 410 Q399 436 354 456.5 Q309 477 257 477 Q216 477 187 460.5 Q158 444 139 413.5 Q120 383 111 339.5 Q102 296 102 243 Q102 179 113.5 137.5 Q125 96 145 72 Q165 48 191 38.5 Q217 29 246 29 Q300 29 340.5 54 Q381 79 424 127 L424 410 Z " />
<glyph glyph-name="r" unicode="r" horiz-adv-x="415" d="M52 0 L52 36 L106 42 Q117 44 119.5 47.5 Q122 51 122 62 L122 436 Q122 453 109 457 L50 476 L57 508 L159 508 L168 443 Q184 456 201.5 469.5 Q219 483 238.5 494 Q258 505 279.5 511.5 Q301 518 324 518 Q341 518 356 515.5 Q371 513 385 509 L385 381 L349 384 L335 466 Q334 471 332.5 472.5 Q331 474 323 474 Q301 474 278.5 465.5 Q256 457 235.5 445 Q215 433 198 419 Q181 405 171 394 L171 61 Q171 49 173.5 46 Q176 43 187 41 L276 35 L276 0 L52 0 Z " />
<glyph glyph-name="s" unicode="s" horiz-adv-x="441" d="M343 377 L331 451 Q330 455 328.5 458 Q327 461 320 464 Q309 468 284 472.5 Q259 477 231 477 Q197 477 173 469 Q149 461 134 447.5 Q119 434 112 416 Q105 398 105 379 Q105 353 115.5 336.5 Q126 320 144 309 Q162 298 185.5 290.5 Q209 283 234 277 Q262 269 291 260 Q320 251 343.5 235 Q367 219 381.5 194 Q396 169 396 131 Q396 90 379.5 62.5 Q363 35 336.5 18.5 Q310 2 277 -5 Q244 -12 210 -12 Q181 -12 153.5 -8.5 Q126 -5 102.5 0.5 Q79 6 62.5 11.5 Q46 17 39 20 L39 134 L76 132 L87 62 Q88 58 89.5 55 Q91 52 98 50 Q109 46 139.5 38 Q170 30 215 30 Q274 30 309 53.5 Q344 77 344 131 Q344 157 333.5 174 Q323 191 306 202.5 Q289 214 266.5 221 Q244 228 220 234 Q189 242 159.5 250.5 Q130 259 107 274 Q84 289 70 313 Q56 337 56 375 Q56 415 72.5 442.5 Q89 470 115.5 486.5 Q142 503 175 510.5 Q208 518 242 518 Q267 518 289.5 515 Q312 512 330 507.5 Q348 503 361 499 Q374 495 380 492 L380 374 L343 377 Z " />
<glyph glyph-name="t" unicode="t" horiz-adv-x="391" d="M358 16 Q332 4 302.5 -4 Q273 -12 238 -12 Q178 -12 147 18 Q116 48 116 102 L116 457 Q116 462 115 464.5 Q114 467 108 467 L34 467 L34 497 Q61 501 77.5 508 Q94 515 104.5 529 Q115 543 120.5 566 Q126 589 131 625 L166 625 L166 518 Q166 513 167 510.5 Q168 508 174 508 L324 508 L324 467 L166 467 L166 126 Q166 77 183.5 54 Q201 31 246 31 Q272 31 296.5 38.5 Q321 46 343 55 L358 16 Z " />
<glyph glyph-name="u" unicode="u" horiz-adv-x="625" d="M472 0 L465 79 Q449 64 428 47.5 Q407 31 381.5 18 Q356 5 325.5 -3.5 Q295 -12 261 -12 Q219 -12 191 1 Q163 14 146.5 38.5 Q130 63 123.5 97.5 Q117 132 117 174 L117 435 Q117 447 114.5 452.5 Q112 458 101 460 L47 477 L54 508 L166 508 L166 181 Q166 144 170.5 115.5 Q175 87 186.5 68 Q198 49 218.5 39 Q239 29 271 29 Q301 29 328.5 38.5 Q356 48 381 63 Q406 78 427 96 Q448 114 465 131 L465 436 Q465 448 462.5 453 Q460 458 449 460 L392 477 L398 508 L514 508 L514 63 Q514 43 526 42 L583 35 L583 0 L472 0 Z " />
<glyph glyph-name="v" unicode="v" horiz-adv-x="548" d="M251 0 L75 448 Q73 457 68 460 Q63 463 54 465 L11 474 L20 508 L193 508 L193 474 L121 466 L281 46 L438 466 L369 474 L379 508 L536 508 L536 474 L505 468 Q494 466 489 463 Q484 460 480 451 L307 0 L251 0 Z " />
<glyph glyph-name="w" unicode="w" horiz-adv-x="814" d="M534 0 L416 443 L288 0 L227 0 L75 448 Q72 457 67.5 460 Q63 463 54 465 L11 474 L20 508 L193 508 L193 474 L124 466 L259 47 L385 493 L449 493 L570 50 L698 466 L628 474 L637 508 L802 508 L802 474 L766 468 Q751 466 747 462 Q743 458 740 448 Q720 379 707 338 Q694 297 685 270 Q676 243 668.5 223 Q661 203 652 176.5 Q643 150 629.5 109 Q616 68 596 0 L534 0 Z " />
<glyph glyph-name="x" unicode="x" horiz-adv-x="555" d="M338 0 L338 35 L411 44 L270 230 L133 44 L204 35 L204 0 L9 0 L9 35 L67 47 Q75 49 79.5 52 Q84 55 90 63 L240 263 L103 446 Q97 454 92.5 457 Q88 460 79 463 L33 474 L43 508 L217 508 L217 474 L146 466 L273 297 L403 466 L333 474 L343 508 L515 508 L515 474 L467 464 Q458 461 453 457 Q448 453 442 445 L301 266 L455 65 Q462 57 467 53 Q472 49 481 47 L545 35 L545 0 L338 0 Z " />
<glyph glyph-name="y" unicode="y" horiz-adv-x="556" d="M89 -212 L89 -176 L160 -169 Q169 -168 172 -163.5 Q175 -159 180 -148 L249 13 L73 447 Q69 456 65 459 Q61 462 52 464 L11 474 L20 508 L191 508 L191 474 L122 466 L278 71 L438 466 L368 474 L377 508 L544 508 L544 474 L510 469 Q500 467 494.5 463.5 Q489 460 485 452 L225 -169 L317 -177 L317 -212 L89 -212 Z " />
<glyph glyph-name="z" unicode="z" horiz-adv-x="467" d="M41 0 L41 32 L365 465 L121 465 Q115 465 113 461 Q111 457 110 452 L98 380 L59 378 L59 508 L432 508 L432 475 L107 43 L369 43 Q375 43 377 47 Q379 51 380 56 L392 137 L431 140 L431 0 L41 0 Z " />
<glyph glyph-name="ae" unicode="&#xe6;" horiz-adv-x="835" d="M773 32 Q748 15 705 1.5 Q662 -12 610 -12 Q537 -12 490.5 13 Q444 38 418 82 Q358 32 304 10 Q250 -12 186 -12 Q142 -12 116 2 Q90 16 76.5 36 Q63 56 59 78 Q55 100 55 116 Q55 154 66.5 180.5 Q78 207 100.5 224.5 Q123 242 156 251.5 Q189 261 233 266 L382 281 L382 340 Q382 375 377.5 400.5 Q373 426 359.5 442.5 Q346 459 322 467 Q298 475 259 475 Q232 475 208.5 473.5 Q185 472 168 463.5 Q151 455 140.5 437.5 Q130 420 130 387 L82 394 Q82 437 100 461.5 Q118 486 144.5 498.5 Q171 511 202 514.5 Q233 518 260 518 Q332 518 369.5 499 Q407 480 422 433 Q486 518 601 518 Q641 518 676.5 505 Q712 492 738 464 Q764 436 779 391 Q794 346 794 282 Q794 274 793.5 266 Q793 258 792 248 L432 248 Q433 203 443 163.5 Q453 124 474.5 95 Q496 66 529.5 49.5 Q563 33 612 33 Q637 33 656 35.5 Q675 38 691.5 42.5 Q708 47 722.5 54.5 Q737 62 754 71 L773 32 Z M238 223 Q199 219 173.5 211 Q148 203 133 191 Q118 179 112.5 161.5 Q107 144 107 121 Q107 73 130 51 Q153 29 196 29 Q223 29 253.5 37.5 Q284 46 311.5 59.5 Q339 73 362 91 Q385 109 399 128 Q392 151 388 180 Q384 209 382 238 L238 223 Z M742 293 Q741 343 729 377 Q717 411 697.5 432 Q678 453 652.5 462.5 Q627 472 599 472 Q566 472 537.5 463 Q509 454 487 433 Q465 412 450.5 378 Q436 344 432 293 L742 293 Z " />
<glyph glyph-name="ij" unicode="&#x133;" horiz-adv-x="551" d="M180 687 Q180 666 167.5 655 Q155 644 133 644 Q87 644 87 687 Q87 731 133 731 Q155 731 167.5 720 Q180 709 180 687 Z M29 0 L29 36 L106 42 Q117 44 119.5 47.5 Q122 51 122 62 L122 436 Q122 453 109 457 L50 476 L57 508 L171 508 L171 62 Q171 50 173.5 47 Q176 44 187 42 L262 35 L262 0 L29 0 Z M403 436 Q403 447 401.5 451 Q400 455 392 457 L321 476 L328 508 L452 508 L452 -80 Q452 -154 424 -188.5 Q396 -223 329 -223 Q293 -223 263.5 -211.5 Q234 -200 213 -183 L240 -145 Q254 -156 278.5 -167.5 Q303 -179 331 -179 Q355 -179 369 -172.5 Q383 -166 390.5 -152.5 Q398 -139 400.5 -119 Q403 -99 403 -72 L403 436 Z M463 687 Q463 644 417 644 Q370 644 370 687 Q370 731 417 731 Q463 731 463 687 Z " />
<glyph glyph-name="eng" unicode="&#x14b;" horiz-adv-x="622" d="M522 -75 Q522 -151 494 -187 Q466 -223 394 -223 Q365 -223 333 -212.5 Q301 -202 282 -186 L308 -146 Q321 -157 346.5 -168 Q372 -179 395 -179 Q420 -179 435 -171.5 Q450 -164 458.5 -149.5 Q467 -135 469.5 -115 Q472 -95 472 -69 L472 303 Q472 354 464.5 387 Q457 420 443 439.5 Q429 459 408 466.5 Q387 474 359 474 Q327 474 296.5 464 Q266 454 240.5 440 Q215 426 196.5 412 Q178 398 171 390 L171 62 Q171 50 173.5 47 Q176 44 187 42 L250 35 L250 0 L52 0 L52 36 L106 42 Q117 44 119.5 47.5 Q122 51 122 62 L122 436 Q122 453 109 457 L50 476 L57 508 L160 508 L169 439 Q187 453 208.5 467 Q230 481 255 492.5 Q280 504 308.5 511 Q337 518 369 518 Q413 518 442.5 504.5 Q472 491 489.5 465.5 Q507 440 514.5 404 Q522 368 522 322 L522 -75 Z " />
<glyph glyph-name="eth" unicode="&#xf0;" horiz-adv-x="553" d="M207 621 L307 677 Q273 700 232 713.5 Q191 727 149 733 Q154 744 158.5 752.5 Q163 761 166 769 Q275 755 352 700 L453 755 L475 720 L385 671 Q448 603 478 511.5 Q508 420 508 316 Q508 264 499.5 206 Q491 148 466 99.5 Q441 51 396 19.5 Q351 -12 278 -12 Q158 -12 104 59 Q50 130 50 253 Q50 304 64.5 349 Q79 394 108.5 427.5 Q138 461 181 481 Q224 501 281 501 Q322 501 364 487.5 Q406 474 444 445 Q415 574 340 648 L227 586 L207 621 Z M105 252 Q105 211 112.5 171.5 Q120 132 139.5 101.5 Q159 71 192.5 52.5 Q226 34 277 34 Q331 34 365.5 58.5 Q400 83 420 122 Q440 161 447.5 210.5 Q455 260 455 311 Q455 330 454.5 346.5 Q454 363 452 380 Q441 394 423.5 407.5 Q406 421 384 431.5 Q362 442 336.5 448 Q311 454 286 454 Q194 454 149.5 399 Q105 344 105 252 Z " />
<glyph glyph-name="oe" unicode="&#x153;" horiz-adv-x="912" d="M856 31 Q827 11 783.5 -0.5 Q740 -12 689 -12 Q600 -12 552 25 Q504 62 484 123 Q461 59 410.5 23.5 Q360 -12 278 -12 Q218 -12 174.5 8 Q131 28 103 63.5 Q75 99 62 148 Q49 197 49 255 Q49 313 63.5 361.5 Q78 410 107.5 444.5 Q137 479 182 498.5 Q227 518 288 518 Q371 518 418.5 482.5 Q466 447 487 387 Q512 454 561 486 Q610 518 676 518 Q718 518 753.5 505.5 Q789 493 815 465 Q841 437 855.5 392.5 Q870 348 870 285 Q870 274 869.5 266 Q869 258 868 248 L509 248 Q510 201 520.5 161.5 Q531 122 552.5 93 Q574 64 608 48 Q642 32 691 32 Q741 32 774 42.5 Q807 53 837 70 L856 31 Z M281 29 Q371 29 415.5 87.5 Q460 146 460 255 Q460 362 418 419 Q376 476 286 476 Q195 476 147 418.5 Q99 361 99 254 Q99 148 144.5 88.5 Q190 29 281 29 Z M818 288 Q816 388 776.5 431.5 Q737 475 675 475 Q644 475 616 465.5 Q588 456 566 434.5 Q544 413 529.5 377 Q515 341 512 288 L818 288 Z " />
<glyph glyph-name="thorn" unicode="&#xfe;" horiz-adv-x="596" d="M65 -212 L65 -176 L107 -170 Q118 -168 120.5 -164.5 Q123 -161 123 -150 L123 682 Q123 699 110 703 L51 722 L58 754 L173 754 L173 449 Q186 457 204 469 Q222 481 246 492 Q270 503 298.5 510.5 Q327 518 361 518 Q392 518 424.5 509 Q457 500 484 472.5 Q511 445 528 395 Q545 345 545 264 Q545 215 536 166 Q527 117 504 77.5 Q481 38 439.5 13 Q398 -12 334 -12 Q304 -12 278 -5 Q252 2 231.5 12 Q211 22 196 32.5 Q181 43 173 50 L173 -151 Q173 -163 175.5 -166.5 Q178 -170 189 -171 L276 -177 L276 -212 L65 -212 Z M173 104 Q200 76 242.5 53.5 Q285 31 336 31 Q380 31 410.5 47.5 Q441 64 459.5 94.5 Q478 125 486.5 169 Q495 213 495 268 Q495 329 484.5 368.5 Q474 408 454.5 431.5 Q435 455 408.5 464.5 Q382 474 350 474 Q324 474 297.5 466 Q271 458 247 447 Q223 436 203.5 423.5 Q184 411 173 402 L173 104 Z " />
<glyph glyph-name="germandbls" unicode="&#xdf;" horiz-adv-x="648" d="M32 0 L32 36 L103 42 Q114 43 116.5 47 Q119 51 119 62 L119 561 Q119 615 134 654 Q149 693 177 718 Q205 743 244.5 755 Q284 767 333 767 Q436 767 483 719 Q530 671 530 593 Q530 527 501 486.5 Q472 446 418 421 Q453 413 482 396.5 Q511 380 531.5 354.5 Q552 329 563 293 Q574 257 574 209 Q574 107 519 50 Q464 -7 370 -7 Q352 -7 331.5 -4.5 Q311 -2 290.5 2.5 Q270 7 251.5 14 Q233 21 219 29 L238 69 Q270 54 303 44 Q336 34 368 34 Q402 34 430.5 44 Q459 54 479.5 75 Q500 96 511.5 129.5 Q523 163 523 210 Q523 304 468.5 349.5 Q414 395 325 395 Q305 395 292.5 394 Q280 393 271 392 L271 434 L343 441 Q378 444 404 458 Q430 472 447 493 Q464 514 472.5 539.5 Q481 565 481 592 Q481 660 442.5 693 Q404 726 332 726 Q246 726 207 687.5 Q168 649 168 555 L168 0 L32 0 Z " />
<glyph glyph-name="dotlessi" unicode="&#x131;" horiz-adv-x="283" d="M29 0 L29 36 L106 42 Q117 44 119.5 47.5 Q122 51 122 62 L122 436 Q122 453 109 457 L50 476 L57 508 L171 508 L171 62 Q171 50 173.5 47 Q176 44 187 42 L262 35 L262 0 L29 0 Z " />
<glyph glyph-name="kgreenlandic" unicode="&#x138;" horiz-adv-x="570" d="M369 0 L369 37 L431 45 L273 285 L171 168 L171 62 Q171 50 173.5 47 Q176 44 187 42 L256 35 L256 0 L35 0 L35 36 L106 42 Q117 44 119.5 47.5 Q122 51 122 62 L122 436 Q122 453 109 457 L47 476 L54 508 L171 508 L171 229 L404 508 L496 508 L496 473 L435 459 Q426 456 421.5 454 Q417 452 410 444 L305 323 L475 62 Q481 53 485.5 50.5 Q490 48 504 46 L559 35 L559 0 L369 0 Z " />
<glyph glyph-name="longs" unicode="&#x17f;" horiz-adv-x="385" d="M49 0 L49 36 L118 42 Q129 43 131.5 47 Q134 51 134 62 L134 601 Q134 679 171.5 722.5 Q209 766 296 766 Q323 766 347 762 Q371 758 388 746.5 Q405 735 415 715 Q425 695 425 664 L378 657 Q378 698 356 711.5 Q334 725 294 725 Q260 725 238.5 715.5 Q217 706 204.5 689 Q192 672 187.5 647.5 Q183 623 183 593 L183 62 Q183 50 185.5 46.5 Q188 43 199 42 L313 35 L313 0 L49 0 Z " />
<glyph glyph-name="dotlessj" unicode="&#x237;" horiz-adv-x="268" d="M120 436 Q120 447 118.5 451 Q117 455 109 457 L38 476 L45 508 L169 508 L169 -80 Q169 -154 141 -188.5 Q113 -223 46 -223 Q10 -223 -19.5 -211.5 Q-49 -200 -70 -183 L-43 -145 Q-29 -156 -4.5 -167.5 Q20 -179 48 -179 Q72 -179 86 -172.5 Q100 -166 107.5 -152.5 Q115 -139 117.5 -119 Q120 -99 120 -72 L120 436 Z " />
<glyph glyph-name="bracketleft" unicode="&#x5b;" horiz-adv-x="229" d="M72 -143 L72 724 L200 724 L200 688 L133 681 Q121 679 119 676.5 Q117 674 117 662 L117 -79 Q117 -92 119 -94.5 Q121 -97 133 -99 L200 -106 L200 -143 L72 -143 Z " />
<glyph glyph-name="bracketright" unicode="&#x5d;" horiz-adv-x="229" d="M157 724 L157 -143 L30 -143 L30 -106 L97 -99 Q109 -97 111 -94.5 Q113 -92 113 -81 L113 660 Q113 674 111 676.5 Q109 679 97 681 L30 688 L30 724 L157 724 Z " />
<glyph glyph-name="parenleft" unicode="&#x28;" horiz-adv-x="262" d="M200 -147 Q174 -105 149.5 -58.5 Q125 -12 106 40.5 Q87 93 75 152.5 Q63 212 63 280 Q63 346 76 408 Q89 470 110 525.5 Q131 581 157 629.5 Q183 678 209 718 L247 694 Q215 639 190 588.5 Q165 538 147.5 488 Q130 438 120.5 387 Q111 336 111 281 Q111 214 122 158.5 Q133 103 151.5 54 Q170 5 193 -39 Q216 -83 240 -126 L200 -147 Z " />
<glyph glyph-name="parenright" unicode="&#x29;" horiz-adv-x="262" d="M23 -127 Q46 -84 69 -40.5 Q92 3 110 51.5 Q128 100 139 155.5 Q150 211 150 279 Q150 334 141 385 Q132 436 114.5 486.5 Q97 537 71.5 588 Q46 639 13 694 L51 718 Q78 677 104.5 628.5 Q131 580 152 524.5 Q173 469 186 407 Q199 345 199 278 Q199 211 187 151.5 Q175 92 155.5 39 Q136 -14 112 -60.5 Q88 -107 63 -147 L23 -127 Z " />
<glyph glyph-name="braceleft" unicode="&#x7b;" horiz-adv-x="262" d="M225 -145 Q191 -140 166 -132.5 Q141 -125 124.5 -111.5 Q108 -98 99.5 -78 Q91 -58 91 -28 Q91 -8 93 17 Q95 42 97.5 68.5 Q100 95 102 120.5 Q104 146 104 167 Q104 199 96 218.5 Q88 238 74.5 248.5 Q61 259 44 262.5 Q27 266 9 266 L9 311 Q27 311 44 314.5 Q61 318 74.5 328.5 Q88 339 96 358.5 Q104 378 104 410 Q104 431 102 457 Q100 483 97.5 510 Q95 537 93 563 Q91 589 91 610 Q91 640 99.5 660 Q108 680 124.5 693.5 Q141 707 166 714.5 Q191 722 225 727 L235 686 Q208 680 189 675 Q170 670 159 663 Q148 656 143 644.5 Q138 633 138 614 Q138 572 144 516 Q150 460 150 407 Q150 375 143.5 354.5 Q137 334 127 320.5 Q117 307 104 300 Q91 293 78 288 Q91 283 104 276 Q117 269 127 256 Q137 243 143.5 222.5 Q150 202 150 170 Q150 117 144 63 Q138 9 138 -32 Q138 -51 143 -62.5 Q148 -74 159 -81 Q170 -88 189 -93 Q208 -98 235 -104 L225 -145 Z " />
<glyph glyph-name="braceright" unicode="&#x7d;" horiz-adv-x="262" d="M19 727 Q53 722 78 714.5 Q103 707 119.5 693.5 Q136 680 144.5 660 Q153 640 153 610 Q153 590 151 565 Q149 540 146.5 513.5 Q144 487 142 461.5 Q140 436 140 415 Q140 383 148 363.5 Q156 344 169.5 333.5 Q183 323 200 319.5 Q217 316 235 316 L235 271 Q217 271 200 267.5 Q183 264 169.5 253.5 Q156 243 148 223.5 Q140 204 140 172 Q140 151 142 125 Q144 99 146.5 72 Q149 45 151 19 Q153 -7 153 -28 Q153 -58 144.5 -78 Q136 -98 119.5 -111.5 Q103 -125 78 -132.5 Q53 -140 19 -145 L9 -104 Q36 -98 55 -93 Q74 -88 85 -81 Q96 -74 101 -62.5 Q106 -51 106 -32 Q106 10 100 66 Q94 122 94 175 Q94 207 100.5 227.5 Q107 248 117 261.5 Q127 275 140 282 Q153 289 166 294 Q153 299 140 306 Q127 313 117 326 Q107 339 100.5 359.5 Q94 380 94 412 Q94 465 100 519 Q106 573 106 614 Q106 633 101 644.5 Q96 656 85 663 Q74 670 55 675 Q36 680 9 686 L19 727 Z " />
<glyph glyph-name="backslash" unicode="&#x5c;" horiz-adv-x="339" d="M285 -92 L5 755 L49 755 L330 -92 L285 -92 Z " />
<glyph glyph-name="slash" unicode="&#x2f;" horiz-adv-x="335" d="M5 -92 L286 755 L330 755 L50 -92 L5 -92 Z " />
<glyph glyph-name="brokenbar" unicode="&#xa6;" horiz-adv-x="280" d="M118 -143 L118 245 L162 245 L162 -143 L118 -143 Z M118 412 L118 755 L162 755 L162 412 L118 412 Z " />
<glyph glyph-name="bar" unicode="&#x7c;" horiz-adv-x="280" d="M118 -143 L118 755 L162 755 L162 -143 L118 -143 Z " />
<glyph glyph-name="section" unicode="&#xa7;" horiz-adv-x="534" d="M89 10 L128 8 L140 -66 Q141 -71 142.5 -75 Q144 -79 151 -81 Q157 -83 168 -86 Q179 -89 193 -92 Q207 -95 223.5 -97 Q240 -99 256 -99 Q310 -99 341 -75.5 Q372 -52 372 -4 Q372 28 359 47.5 Q346 67 325 79 Q304 91 277.5 98 Q251 105 223 113 Q197 120 171.5 129 Q146 138 126.5 154 Q107 170 95 193.5 Q83 217 83 252 Q83 295 104.5 327.5 Q126 360 161 385 Q137 402 123 424.5 Q109 447 109 485 Q109 523 123.5 549.5 Q138 576 162 592.5 Q186 609 217.5 616.5 Q249 624 284 624 Q340 624 375.5 613.5 Q411 603 425 598 L425 480 L385 482 L373 556 Q372 559 371 562.5 Q370 566 363 568 Q352 572 329.5 577 Q307 582 276 582 Q243 582 220.5 574 Q198 566 184.5 553.5 Q171 541 165.5 525 Q160 509 160 494 Q160 463 174 444 Q188 425 210.5 413.5 Q233 402 261 394.5 Q289 387 318 378 Q344 370 368 360 Q392 350 410.5 334 Q429 318 440 295.5 Q451 273 451 240 Q451 195 427 161.5 Q403 128 374 107 Q397 91 411 67.5 Q425 44 425 7 Q425 -37 409 -65.5 Q393 -94 368.5 -111 Q344 -128 313 -135 Q282 -142 252 -142 Q226 -142 199.5 -138 Q173 -134 150.5 -129 Q128 -124 111.5 -118.5 Q95 -113 89 -110 L89 10 Z M204 364 Q187 356 174 344 Q161 332 152.5 317 Q144 302 140 286.5 Q136 271 136 257 Q136 217 158.5 195 Q181 173 223 160 Q249 152 278.5 144 Q308 136 334 125 Q363 143 379.5 172.5 Q396 202 396 240 Q396 264 387.5 280 Q379 296 365 307.5 Q351 319 332 326.5 Q313 334 291 340 Q270 345 248 350.5 Q226 356 204 364 Z " />
<glyph glyph-name="copyright" unicode="&#xa9;" horiz-adv-x="757" d="M708 319 Q708 245 684 184.5 Q660 124 616.5 80.5 Q573 37 512 13 Q451 -11 378 -11 Q296 -11 234.5 13.5 Q173 38 131.5 80.5 Q90 123 69.5 180.5 Q49 238 49 305 Q49 382 75 443 Q101 504 145.5 546.5 Q190 589 250.5 611.5 Q311 634 380 634 Q456 634 517 611.5 Q578 589 620.5 548 Q663 507 685.5 449 Q708 391 708 319 Z M380 25 Q446 25 499 45 Q552 65 588.5 102.5 Q625 140 645 193.5 Q665 247 665 313 Q665 383 644 436 Q623 489 585 525 Q547 561 494.5 579.5 Q442 598 380 598 Q318 598 265.5 578 Q213 558 175 520.5 Q137 483 115 429 Q93 375 93 306 Q93 241 113 189 Q133 137 170 100.5 Q207 64 260 44.5 Q313 25 380 25 Z M504 144 Q484 132 452 126 Q420 120 390 120 Q339 120 303 134.5 Q267 149 244.5 175.5 Q222 202 212 237.5 Q202 273 202 315 Q202 357 214 393 Q226 429 250 454.5 Q274 480 309.5 494.5 Q345 509 393 509 Q424 509 455.5 502.5 Q487 496 505 489 L505 388 L469 392 L460 444 Q459 454 449 458 Q438 463 421.5 466.5 Q405 470 383 470 Q358 470 334.5 462 Q311 454 292.5 435.5 Q274 417 263 387 Q252 357 252 313 Q252 245 286 201.5 Q320 158 390 158 Q409 158 424 161.5 Q439 165 449 169 Q454 171 455 173 Q456 175 458 178 L473 240 L504 240 L504 144 Z " />
<glyph glyph-name="registered" unicode="&#xae;" horiz-adv-x="446" d="M406 480 Q406 439 392.5 405.5 Q379 372 355 348 Q331 324 297 311 Q263 298 222 298 Q177 298 142.5 311.5 Q108 325 85.5 348 Q63 371 51.5 403 Q40 435 40 473 Q40 516 54.5 550 Q69 584 93.5 607.5 Q118 631 151.5 643.5 Q185 656 223 656 Q308 656 357 608.5 Q406 561 406 480 Z M369 477 Q369 549 327.5 586 Q286 623 223 623 Q193 623 166.5 613 Q140 603 120.5 584 Q101 565 89.5 537 Q78 509 78 474 Q78 407 117 369 Q156 331 223 331 Q291 331 330 370 Q369 409 369 477 Z M244 384 L244 401 L261 402 L232 452 Q230 456 226.5 458.5 Q223 461 215 461 L195 461 L195 409 Q195 406 195.5 405 Q196 404 201 403 L217 401 L217 384 L143 384 L143 401 L159 403 Q164 404 164 410 L164 547 Q164 554 160 555.5 Q156 557 143 557 L143 575 L229 575 Q268 575 280.5 558.5 Q293 542 293 521 Q293 483 254 467 Q259 465 261.5 461 Q264 457 269 450 L293 410 Q295 405 301 404 L319 401 L319 384 L244 384 Z M214 485 Q235 485 247.5 492 Q260 499 260 521 Q260 552 222 552 L195 552 L195 485 L214 485 Z " />
<glyph glyph-name="trademark" unicode="&#x2122;" horiz-adv-x="818" d="M88 348 L88 378 L152 383 L152 685 L58 685 L47 627 L17 627 L17 724 L335 724 L335 627 L305 627 L296 685 L199 685 L199 383 L268 378 L268 348 L88 348 Z M657 348 L657 377 L708 382 L708 636 L601 429 L565 429 L459 637 L459 382 L514 377 L514 348 L370 348 L370 377 L414 382 L414 687 L370 692 L370 724 L462 724 L585 480 L711 724 L797 724 L797 692 L754 687 L754 382 L799 377 L799 348 L657 348 Z " />
<glyph glyph-name="ordfeminine" unicode="&#xaa;" horiz-adv-x="365" d="M257 281 L250 322 Q225 298 196.5 285.5 Q168 273 132 273 Q100 273 81.5 282.5 Q63 292 53 305.5 Q43 319 40.5 333.5 Q38 348 38 358 Q38 403 68 429.5 Q98 456 156 460 L249 467 L249 499 Q249 539 235.5 558.5 Q222 578 176 578 Q159 578 145.5 576.5 Q132 575 121.5 570 Q111 565 105 554.5 Q99 544 98 525 L55 530 Q55 558 67 574.5 Q79 591 97 599.5 Q115 608 136.5 610.5 Q158 613 176 613 Q243 613 268.5 589 Q294 565 294 501 L294 327 Q294 319 295.5 317 Q297 315 305 314 L339 309 L339 281 L257 281 Z M249 431 L164 425 Q117 421 100.5 406 Q84 391 84 364 Q84 335 99 321.5 Q114 308 139 308 Q172 308 201.5 324 Q231 340 249 361 L249 431 Z " />
<glyph glyph-name="ordmasculine" unicode="&#xba;" horiz-adv-x="379" d="M188 273 Q147 273 118 285.5 Q89 298 70 321 Q51 344 42.5 375 Q34 406 34 444 Q34 519 73.5 566 Q113 613 194 613 Q234 613 263 600.5 Q292 588 310 566.5 Q328 545 336.5 515 Q345 485 345 449 Q345 368 307 320.5 Q269 273 188 273 Z M190 311 Q297 311 297 444 Q297 574 193 574 Q139 574 110 542 Q81 510 81 444 Q81 379 108.5 345 Q136 311 190 311 Z " />
<glyph glyph-name="guillemotleft" unicode="&#xab;" horiz-adv-x="428" d="M160 103 L71 261 L160 408 L214 408 L143 273 Q139 266 139 263 Q139 260 142 254 L214 103 L160 103 Z M310 103 L221 261 L310 408 L364 408 L293 273 Q289 266 289 263 Q289 260 292 254 L364 103 L310 103 Z " />
<glyph glyph-name="guillemotright" unicode="&#xbb;" horiz-adv-x="429" d="M64 103 L136 243 Q140 250 140 253 Q140 256 137 262 L66 408 L120 408 L208 255 L118 103 L64 103 Z M214 103 L286 243 Q290 250 290 253 Q290 256 287 262 L216 408 L270 408 L358 255 L268 103 L214 103 Z " />
<glyph glyph-name="guilsinglleft" unicode="&#x2039;" horiz-adv-x="278" d="M160 103 L71 261 L160 408 L214 408 L143 273 Q139 266 139 263 Q139 260 142 254 L214 103 L160 103 Z " />
<glyph glyph-name="guilsinglright" unicode="&#x203a;" horiz-adv-x="279" d="M64 103 L136 243 Q140 250 140 253 Q140 256 137 262 L66 408 L120 408 L208 255 L118 103 L64 103 Z " />
<glyph glyph-name="quoteleft" unicode="&#x2018;" horiz-adv-x="175" d="M129 564 Q92 567 71.5 576 Q51 585 51 614 Q51 623 54 631.5 Q57 640 62 649 L117 750 L147 738 L117 644 Q116 639 122 636 L149 623 L129 564 Z " />
<glyph glyph-name="quoteright" unicode="&#x2019;" horiz-adv-x="176" d="M43 577 L73 671 Q73 677 67 679 L41 692 L61 750 Q98 748 118.5 739 Q139 730 139 701 Q139 691 135 682.5 Q131 674 126 665 L73 564 L43 577 Z " />
<glyph glyph-name="quotesinglbase" unicode="&#x201a;" horiz-adv-x="156" d="M35 -100 L66 -8 Q70 1 62 4 L35 17 L54 73 Q91 71 111 62 Q131 53 131 24 Q131 14 127.5 5 Q124 -4 119 -13 L65 -113 L35 -100 Z " />
<glyph glyph-name="quotedblleft" unicode="&#x201c;" horiz-adv-x="313" d="M269 564 Q232 567 211.5 576 Q191 585 191 614 Q191 623 194 631.5 Q197 640 202 649 L257 750 L287 738 L257 644 Q256 639 262 636 L289 623 L269 564 Z M129 564 Q92 567 71.5 576 Q51 585 51 614 Q51 623 54 631.5 Q57 640 62 649 L117 750 L147 738 L117 644 Q116 639 122 636 L149 623 L129 564 Z " />
<glyph glyph-name="quotedblright" unicode="&#x201d;" horiz-adv-x="313" d="M183 577 L213 671 Q213 677 207 679 L181 692 L201 750 Q238 748 258.5 739 Q279 730 279 701 Q279 691 275 682.5 Q271 674 266 665 L213 564 L183 577 Z M43 577 L73 671 Q73 677 67 679 L41 692 L61 750 Q98 748 118.5 739 Q139 730 139 701 Q139 691 135 682.5 Q131 674 126 665 L73 564 L43 577 Z " />
<glyph glyph-name="quotedblbase" unicode="&#x201e;" horiz-adv-x="293" d="M35 -100 L66 -8 Q70 1 62 4 L35 17 L54 73 Q91 71 111 62 Q131 53 131 24 Q131 14 127.5 5 Q124 -4 119 -13 L65 -113 L35 -100 Z M175 -100 L206 -8 Q210 1 202 4 L175 17 L194 73 Q231 71 251 62 Q271 53 271 24 Q271 14 267.5 5 Q264 -4 259 -13 L205 -113 L175 -100 Z " />
<glyph glyph-name="dagger" unicode="&#x2020;" horiz-adv-x="386" d="M179 434 L207 434 L226 320 L214 109 L214 -83 L171 -83 L171 110 L159 320 L179 434 L95 424 L21 424 L21 473 L95 473 L179 463 L168 561 L168 645 L217 645 L217 561 L207 463 L291 473 L365 473 L365 424 L291 424 L207 434 L207 463 L179 463 L179 434 Z " />
<glyph glyph-name="daggerdbl" unicode="&#x2021;" horiz-adv-x="385" d="M94 137 L178 127 L159 241 L159 320 L179 434 L95 424 L21 424 L21 473 L95 473 L179 463 L168 561 L168 645 L217 645 L217 561 L207 463 L291 473 L365 473 L365 424 L291 424 L207 434 L207 463 L179 463 L179 434 L207 434 L226 320 L226 241 L206 127 L290 137 L364 137 L364 88 L290 88 L206 98 L206 127 L178 127 L178 98 L206 98 L217 0 L217 -84 L168 -84 L168 0 L178 98 L94 88 L20 88 L20 137 L94 137 Z " />
<glyph glyph-name="bullet" unicode="&#x2022;" horiz-adv-x="361" d="M307 280 Q307 217 274 186 Q241 155 180 155 Q120 155 86.5 186 Q53 217 53 280 Q53 343 86.5 374 Q120 405 180 405 Q241 405 274 374 Q307 343 307 280 Z " />
<glyph glyph-name="periodcentered" unicode="&#xb7;" horiz-adv-x="163" d="M133 297 Q133 245 81 245 Q57 245 43 258 Q29 271 29 297 Q29 323 43 336 Q57 349 81 349 Q133 349 133 297 Z " />
<glyph glyph-name="ellipsis" unicode="&#x2026;" horiz-adv-x="570" d="M347 40 Q347 14 333 1 Q319 -12 294 -12 Q270 -12 256 1 Q242 14 242 40 Q242 66 256 79 Q270 92 294 92 Q347 92 347 40 Z M162 40 Q162 14 148 1 Q134 -12 109 -12 Q85 -12 71 1 Q57 14 57 40 Q57 66 71 79 Q85 92 109 92 Q162 92 162 40 Z M530 40 Q530 14 516 1 Q502 -12 477 -12 Q453 -12 439 1 Q425 14 425 40 Q425 66 439 79 Q453 92 477 92 Q530 92 530 40 Z " />
<glyph glyph-name="paragraph" unicode="&#xb6;" horiz-adv-x="536" d="M381 -133 L381 598 L258 598 L258 -133 L130 -133 L130 -98 L199 -90 Q206 -89 208 -86.5 Q210 -84 210 -76 L210 174 Q165 179 127.5 196.5 Q90 214 63 243 Q36 272 21 312 Q6 352 6 401 Q6 468 28.5 514.5 Q51 561 88.5 590 Q126 619 175.5 632 Q225 645 280 645 L511 645 L511 610 L444 602 Q433 600 430.5 597 Q428 594 428 583 L428 -76 Q428 -84 431 -86 Q434 -88 444 -90 L511 -98 L511 -133 L381 -133 Z " />
<glyph glyph-name="uni00AD" unicode="&#xad;" horiz-adv-x="311" d="M20 262 L20 313 L291 313 L291 262 L20 262 Z " />
<glyph glyph-name="endash" unicode="&#x2013;" horiz-adv-x="500" d="M0 262 L0 303 L499 303 L499 262 L0 262 Z " />
<glyph glyph-name="emdash" unicode="&#x2014;" horiz-adv-x="1000" d="M0 262 L0 303 L999 303 L999 262 L0 262 Z " />
<glyph glyph-name="zero" unicode="0" horiz-adv-x="555" d="M275 -12 Q202 -12 157 14.5 Q112 41 87.5 83 Q63 125 54.5 177 Q46 229 46 280 Q46 335 56.5 388.5 Q67 442 94 484 Q121 526 167 552 Q213 578 285 578 Q355 578 398.5 554 Q442 530 466.5 490 Q491 450 499.5 399.5 Q508 349 508 295 Q508 240 499 185.5 Q490 131 464.5 87 Q439 43 393.5 15.5 Q348 -12 275 -12 Z M278 30 Q331 30 366 50.5 Q401 71 421.5 106.5 Q442 142 450.5 188.5 Q459 235 459 288 Q459 339 451.5 384 Q444 429 424.5 462.5 Q405 496 370.5 515.5 Q336 535 283 535 Q229 535 193.5 515.5 Q158 496 136 461 Q114 426 105 378 Q96 330 96 273 Q96 225 104.5 181 Q113 137 134 103.5 Q155 70 190 50 Q225 30 278 30 Z " />
<glyph glyph-name="one" unicode="1" horiz-adv-x="341" d="M30 0 L30 36 L141 42 Q152 43 154.5 47 Q157 51 157 62 L157 489 Q157 502 153.5 505 Q150 508 142 510 L41 526 L45 563 L207 563 L207 62 Q207 50 209.5 47 Q212 44 223 42 L314 35 L314 0 L30 0 Z " />
<glyph glyph-name="two" unicode="2" horiz-adv-x="449" d="M39 0 L39 40 L173 170 Q208 204 240.5 234 Q273 264 298.5 292.5 Q324 321 339 350.5 Q354 380 354 415 Q354 473 321.5 503.5 Q289 534 214 534 Q180 534 154.5 529.5 Q129 525 112.5 512.5 Q96 500 88 477.5 Q80 455 80 419 L31 426 Q31 475 47 505 Q63 535 88.5 551 Q114 567 146.5 572.5 Q179 578 212 578 Q315 578 361.5 535 Q408 492 408 422 Q408 380 390 344 Q372 308 344 275.5 Q316 243 282.5 213.5 Q249 184 219 154 L106 46 L360 46 Q368 46 371 47.5 Q374 49 376 57 L393 145 L431 145 L431 0 L39 0 Z " />
<glyph glyph-name="three" unicode="3" horiz-adv-x="467" d="M288 262 Q423 235 423 105 Q423 64 410.5 30 Q398 -4 372.5 -29.5 Q347 -55 308.5 -69 Q270 -83 218 -83 Q151 -83 99.5 -60 Q48 -37 19 -3 L54 31 Q86 -4 125.5 -21.5 Q165 -39 222 -39 Q249 -39 276 -32 Q303 -25 324.5 -9 Q346 7 359 33.5 Q372 60 372 100 Q372 174 328 205 Q284 236 207 236 Q191 236 175 234.5 Q159 233 140 231 L140 273 L204 279 Q280 287 318 325 Q356 363 356 415 Q356 473 325 504.5 Q294 536 223 536 Q190 536 165 531 Q140 526 122.5 513 Q105 500 96 477.5 Q87 455 87 419 L39 426 Q39 473 56 503 Q73 533 99.5 549.5 Q126 566 159.5 572 Q193 578 226 578 Q275 578 309.5 565.5 Q344 553 366 532 Q388 511 398 483 Q408 455 408 425 Q408 368 377 327.5 Q346 287 288 262 Z " />
<glyph glyph-name="four" unicode="4" horiz-adv-x="474" d="M317 -67 L317 88 L25 88 L25 126 L272 564 L311 543 L82 130 L318 130 L318 365 L365 361 L365 130 L460 130 L460 88 L365 88 L365 -67 L317 -67 Z " />
<glyph glyph-name="five" unicode="5" horiz-adv-x="493" d="M129 521 L114 287 Q143 308 180 319 Q217 330 254 330 Q296 330 331.5 317 Q367 304 392.5 278.5 Q418 253 432 214.5 Q446 176 446 125 Q446 83 432 45 Q418 7 390.5 -21.5 Q363 -50 323.5 -66.5 Q284 -83 233 -83 Q167 -83 114 -61 Q61 -39 27 -3 L60 33 Q93 -2 136.5 -20.5 Q180 -39 236 -39 Q263 -39 291 -29.5 Q319 -20 341.5 0 Q364 20 378.5 51 Q393 82 393 126 Q393 173 379.5 203.5 Q366 234 345 252 Q324 270 298.5 277.5 Q273 285 248 285 Q198 285 166 269.5 Q134 254 107 236 L66 255 L85 563 L353 563 Q361 563 364 564.5 Q367 566 370 574 L384 628 L418 631 L418 521 L129 521 Z " />
<glyph glyph-name="six" unicode="6" horiz-adv-x="508" d="M397 504 Q397 560 368.5 579.5 Q340 599 288 599 Q248 599 218 584.5 Q188 570 167 546 Q146 522 133 492 Q120 462 113 430.5 Q106 399 103.5 369.5 Q101 340 102 317 Q117 330 136.5 343.5 Q156 357 179 367.5 Q202 378 228 385 Q254 392 282 392 Q329 392 362 376 Q395 360 416 333 Q437 306 447 271.5 Q457 237 457 200 Q457 155 445.5 116 Q434 77 410 48.5 Q386 20 349 4 Q312 -12 261 -12 Q195 -12 154.5 16.5 Q114 45 91.5 91 Q69 137 61 196 Q53 255 53 317 Q53 364 62 421 Q71 478 97.5 527 Q124 576 171.5 609 Q219 642 297 642 Q320 642 346 637 Q372 632 394 617.5 Q416 603 430.5 577.5 Q445 552 445 510 L397 504 Z M103 265 Q103 248 105.5 224 Q108 200 114 173.5 Q120 147 130.5 121 Q141 95 158.5 74 Q176 53 201.5 40 Q227 27 262 27 Q331 27 369 71 Q407 115 407 196 Q407 269 377 308.5 Q347 348 278 348 Q250 348 223.5 340 Q197 332 174 320 Q151 308 132.5 293.5 Q114 279 103 265 Z " />
<glyph glyph-name="seven" unicode="7" horiz-adv-x="480" d="M175 -67 Q184 35 208.5 123.5 Q233 212 266 285.5 Q299 359 337 418 Q375 477 410 521 L123 521 Q115 521 111.5 519.5 Q108 518 106 510 L86 418 L54 416 L54 563 L469 563 L469 527 Q441 500 412 457.5 Q383 415 355.5 363.5 Q328 312 304.5 255 Q281 198 263.5 141 Q246 84 236 30.5 Q226 -23 226 -67 L175 -67 Z " />
<glyph glyph-name="eight" unicode="8" horiz-adv-x="486" d="M311 329 Q336 316 359.5 300 Q383 284 402 263.5 Q421 243 432.5 217 Q444 191 444 157 Q444 116 429 85 Q414 54 387 32 Q360 10 323 -1 Q286 -12 242 -12 Q202 -12 166.5 -1.5 Q131 9 104 29 Q77 49 61.5 78.5 Q46 108 46 146 Q46 178 57 206 Q68 234 87 258 Q106 282 130.5 304 Q155 326 182 346 Q160 358 140 373 Q120 388 105 406 Q90 424 81.5 446 Q73 468 73 495 Q73 533 87 561 Q101 589 125.5 608 Q150 627 182.5 636 Q215 645 251 645 Q295 645 328 634.5 Q361 624 382.5 605.5 Q404 587 414.5 562.5 Q425 538 425 510 Q425 484 415 459 Q405 434 388.5 411.5 Q372 389 351.5 368 Q331 347 311 329 Z M222 326 Q161 283 128 242 Q95 201 95 151 Q95 89 138 59 Q181 29 250 29 Q316 29 355.5 63.5 Q395 98 395 154 Q395 189 382 214 Q369 239 346 258.5 Q323 278 291 294 Q259 310 222 326 Z M273 348 Q291 363 309.5 381 Q328 399 342.5 419 Q357 439 366 462 Q375 485 375 510 Q375 539 364 557.5 Q353 576 335 586.5 Q317 597 293.5 601 Q270 605 245 605 Q194 605 157.5 579.5 Q121 554 121 501 Q121 472 133 450 Q145 428 165.5 410 Q186 392 213.5 377.5 Q241 363 273 348 Z " />
<glyph glyph-name="nine" unicode="9" horiz-adv-x="541" d="M106 10 Q138 -17 175 -29 Q212 -41 253 -41 Q293 -41 321.5 -26.5 Q350 -12 369 11 Q388 34 399 64 Q410 94 415.5 125 Q421 156 422.5 185 Q424 214 424 237 Q409 223 390.5 208.5 Q372 194 349 182.5 Q326 171 299 164 Q272 157 241 157 Q193 157 159.5 174 Q126 191 105.5 219.5 Q85 248 75.5 285.5 Q66 323 66 364 Q66 410 78.5 449.5 Q91 489 116 517.5 Q141 546 179 562 Q217 578 268 578 Q336 578 376.5 550 Q417 522 438 475.5 Q459 429 465.5 370 Q472 311 472 248 Q472 216 469.5 179 Q467 142 459.5 105 Q452 68 437.5 34 Q423 0 398.5 -26 Q374 -52 338 -67.5 Q302 -83 252 -83 Q205 -83 158.5 -70.5 Q112 -58 77 -25 L106 10 Z M423 291 Q422 312 420 339 Q418 366 412.5 393 Q407 420 397 446 Q387 472 369.5 492 Q352 512 326.5 524.5 Q301 537 264 537 Q195 537 155.5 495 Q116 453 116 370 Q116 292 146 246.5 Q176 201 244 201 Q274 201 301.5 210.5 Q329 220 352.5 234 Q376 248 394 263.5 Q412 279 423 291 Z " />
<glyph glyph-name="dollar" unicode="&#x24;" horiz-adv-x="520" d="M447 161 Q447 92 404 51 Q361 10 282 2 L282 -80 L239 -80 L239 0 Q203 0 171.5 4.5 Q140 9 114 14.5 Q88 20 69 26 Q50 32 40 37 L40 168 L74 168 L93 84 Q97 72 100 67.5 Q103 63 108 61 Q123 55 160 49.5 Q197 44 239 43 L239 291 Q207 300 176.5 310.5 Q146 321 121.5 339 Q97 357 82 385 Q67 413 67 457 Q67 497 80 526 Q93 555 116 575 Q139 595 170.5 606 Q202 617 239 620 L239 694 L282 694 L282 624 Q309 623 335 618.5 Q361 614 382.5 609 Q404 604 419.5 598.5 Q435 593 443 590 L443 448 L406 451 L389 541 Q387 552 383 556.5 Q379 561 369 566 Q355 571 330.5 574.5 Q306 578 282 579 L282 326 Q313 317 342.5 306.5 Q372 296 395 278 Q418 260 432.5 232 Q447 204 447 161 Z M115 460 Q115 432 125 412.5 Q135 393 152 379 Q169 365 191.5 355.5 Q214 346 239 339 L239 577 Q180 572 147.5 541 Q115 510 115 460 Z M397 156 Q397 212 366.5 238.5 Q336 265 282 279 L282 45 Q345 50 371 81.5 Q397 113 397 156 Z " />
<glyph glyph-name="Euro" unicode="&#x20ac;" horiz-adv-x="512" d="M135 228 Q151 131 200.5 80 Q250 29 331 29 Q357 29 381.5 32.5 Q406 36 418 41 Q427 45 429.5 49.5 Q432 54 433 60 L445 134 L479 138 L479 14 Q465 9 425.5 -1.5 Q386 -12 334 -12 Q228 -12 165.5 49 Q103 110 86 228 L11 228 L19 270 L81 270 Q79 291 79 313.5 Q79 336 81 358 L31 358 L39 399 L86 399 Q95 462 118.5 508 Q142 554 176 583.5 Q210 613 253 627.5 Q296 642 344 642 Q395 642 430 632 Q465 622 482 616 L482 490 L447 494 L433 572 Q432 577 430 581.5 Q428 586 420 589 Q409 594 386 597.5 Q363 601 335 601 Q254 601 201.5 550 Q149 499 134 399 L370 399 L363 358 L130 358 Q127 312 130 270 L350 270 L342 228 L135 228 Z " />
<glyph glyph-name="cent" unicode="&#xa2;" horiz-adv-x="483" d="M64 276 Q64 336 79 380 Q94 424 120 454 Q146 484 181.5 500.5 Q217 517 259 522 L259 625 L303 625 L303 526 Q361 525 394 515.5 Q427 506 438 503 L438 387 L403 390 L392 456 Q390 463 388.5 465.5 Q387 468 380 470 Q368 474 346.5 477.5 Q325 481 303 482 L303 78 Q326 78 350 81 Q374 84 383 88 Q390 90 391.5 93 Q393 96 394 101 L406 169 L442 172 L442 56 Q432 52 395.5 42 Q359 32 303 32 L303 -67 L259 -67 L259 35 Q167 46 115.5 105.5 Q64 165 64 276 Z M114 282 Q114 186 153.5 138 Q193 90 259 81 L259 479 Q194 470 154 422.5 Q114 375 114 282 Z " />
<glyph glyph-name="sterling" unicode="&#xa3;" horiz-adv-x="545" d="M50 0 L39 37 Q71 65 87.5 92 Q104 119 110.5 149 Q117 179 117.5 214 Q118 249 118 292 L118 310 L31 310 L31 352 L118 352 L118 431 Q118 478 129 517 Q140 556 164 583.5 Q188 611 226 626.5 Q264 642 318 642 Q349 642 377 637 Q405 632 426 617 Q447 602 459 576 Q471 550 471 508 L424 502 Q424 560 394 580.5 Q364 601 313 601 Q275 601 247.5 592 Q220 583 202 561.5 Q184 540 175 505 Q166 470 166 418 L166 352 L374 352 L374 310 L166 310 L166 267 Q166 231 164.5 201 Q163 171 156.5 144 Q150 117 137 92.5 Q124 68 101 43 L402 43 Q410 43 413.5 44.5 Q417 46 419 54 L435 145 L473 145 L473 0 L50 0 Z " />
<glyph glyph-name="yen" unicode="&#xa5;" horiz-adv-x="497" d="M279 195 L279 63 Q279 52 281.5 48 Q284 44 295 43 L390 35 L390 0 L123 0 L123 35 L219 42 Q227 42 228.5 47 Q230 52 230 61 L230 195 L93 195 L93 233 L230 233 L230 307 L93 307 L93 345 L202 345 L60 562 Q55 570 50 572.5 Q45 575 36 577 L-9 588 L1 623 L181 623 L181 588 L105 579 L256 346 L401 579 L328 588 L338 623 L506 623 L506 588 L464 577 Q455 575 449.5 570.5 Q444 566 439 558 L304 345 L415 345 L415 307 L279 307 L279 233 L415 233 L415 195 L279 195 Z " />
<glyph glyph-name="florin" unicode="&#x192;" horiz-adv-x="472" d="M233 334 L188 75 Q182 38 173 9.5 Q164 -19 148.5 -38 Q133 -57 109 -66.5 Q85 -76 49 -76 Q33 -76 16.5 -73.5 Q0 -71 -15 -67 Q-30 -63 -42.5 -57.5 Q-55 -52 -62 -47 L-44 -12 Q-38 -16 -27 -20.5 Q-16 -25 -2.5 -28.5 Q11 -32 26 -34.5 Q41 -37 56 -37 Q88 -37 107.5 -15 Q127 7 134 47 L183 324 Q184 329 183.5 331.5 Q183 334 177 334 L82 334 L89 376 L192 376 L213 485 Q220 522 231.5 551 Q243 580 261.5 600 Q280 620 308 631 Q336 642 375 642 Q423 642 448.5 631 Q474 620 480 617 L461 502 L427 504 L425 580 Q425 584 424 587.5 Q423 591 417 593 Q409 596 397.5 598 Q386 600 369 600 Q341 600 322.5 590.5 Q304 581 291.5 564.5 Q279 548 271.5 526 Q264 504 259 478 L241 386 Q240 381 241 378.5 Q242 376 248 376 L404 376 L396 334 L233 334 Z " />
<glyph glyph-name="percent" unicode="&#x25;" horiz-adv-x="849" d="M207 257 Q164 257 134.5 272 Q105 287 87 311.5 Q69 336 61.5 367.5 Q54 399 54 433 Q54 473 64.5 507.5 Q75 542 95.5 567 Q116 592 146 606 Q176 620 215 620 Q255 620 284 607.5 Q313 595 332 572 Q351 549 359.5 517 Q368 485 368 446 Q368 405 357.5 370 Q347 335 327 310 Q307 285 276.5 271 Q246 257 207 257 Z M209 -17 L586 621 L636 621 L260 -17 L209 -17 Z M210 298 Q241 298 261.5 309.5 Q282 321 294 340.5 Q306 360 311 386.5 Q316 413 316 442 Q316 468 311.5 493 Q307 518 296 537 Q285 556 264.5 567.5 Q244 579 213 579 Q181 579 160 565.5 Q139 552 127 531 Q115 510 110 485 Q105 460 105 437 Q105 410 109.5 385 Q114 360 126 340.5 Q138 321 158 309.5 Q178 298 210 298 Z M635 -12 Q592 -12 562.5 3 Q533 18 515 42.5 Q497 67 489.5 98.5 Q482 130 482 164 Q482 204 492.5 238.5 Q503 273 523.5 298 Q544 323 574 337 Q604 351 643 351 Q683 351 712 338.5 Q741 326 760 303 Q779 280 787.5 248 Q796 216 796 177 Q796 136 785.5 101 Q775 66 755 41 Q735 16 704.5 2 Q674 -12 635 -12 Z M638 28 Q669 28 689.5 39.5 Q710 51 722 71 Q734 91 739 117.5 Q744 144 744 173 Q744 199 739.5 224 Q735 249 724 268 Q713 287 692.5 298.5 Q672 310 641 310 Q609 310 588 296.5 Q567 283 555 262 Q543 241 538 216 Q533 191 533 168 Q533 141 537.5 115.5 Q542 90 553.5 70.5 Q565 51 585.5 39.5 Q606 28 638 28 Z " />
<glyph glyph-name="perthousand" unicode="&#x2030;" horiz-adv-x="1045" d="M188 295 Q149 295 123.5 308.5 Q98 322 82.5 344 Q67 366 60.5 394.5 Q54 423 54 453 Q54 488 63 518.5 Q72 549 89.5 571.5 Q107 594 133.5 607 Q160 620 195 620 Q267 620 298 575.5 Q329 531 329 462 Q329 387 293.5 341 Q258 295 188 295 Z M148 -17 L525 621 L575 621 L199 -17 L148 -17 Z M191 335 Q218 335 235 345 Q252 355 262 372.5 Q272 390 276 412.5 Q280 435 280 459 Q280 482 276.5 503.5 Q273 525 263.5 542 Q254 559 237 569 Q220 579 194 579 Q167 579 149.5 567 Q132 555 122 536.5 Q112 518 108 496 Q104 474 104 455 Q104 432 107.5 410.5 Q111 389 121 372.5 Q131 356 147.5 345.5 Q164 335 191 335 Z M530 -12 Q492 -12 466 1.5 Q440 15 424.5 37 Q409 59 402.5 87.5 Q396 116 396 146 Q396 181 405 211.5 Q414 242 431.5 264.5 Q449 287 475.5 300 Q502 313 537 313 Q573 313 598.5 301 Q624 289 640 268 Q656 247 663.5 218 Q671 189 671 155 Q671 80 636 34 Q601 -12 530 -12 Z M532 28 Q559 28 576.5 38 Q594 48 604.5 65.5 Q615 83 619 105.5 Q623 128 623 152 Q623 175 619 196.5 Q615 218 605.5 235 Q596 252 579 262 Q562 272 536 272 Q509 272 491.5 260 Q474 248 463.5 229.5 Q453 211 449 189 Q445 167 445 148 Q445 125 448.5 103.5 Q452 82 462 65.5 Q472 49 489 38.5 Q506 28 532 28 Z M850 -12 Q812 -12 786 1.5 Q760 15 744.5 37 Q729 59 722.5 87.5 Q716 116 716 146 Q716 181 725 211.5 Q734 242 751.5 264.5 Q769 287 795.5 300 Q822 313 857 313 Q893 313 918.5 301 Q944 289 960 268 Q976 247 983.5 218 Q991 189 991 155 Q991 80 956 34 Q921 -12 850 -12 Z M852 28 Q879 28 896.5 38 Q914 48 924 65.5 Q934 83 938 105.5 Q942 128 942 152 Q942 175 938.5 196.5 Q935 218 925.5 235 Q916 252 899 262 Q882 272 856 272 Q829 272 811.5 260 Q794 248 784 229.5 Q774 211 770 189 Q766 167 766 148 Q766 125 769.5 103.5 Q773 82 782.5 65.5 Q792 49 809 38.5 Q826 28 852 28 Z " />
<glyph glyph-name="afii61352" unicode="&#x2116;" horiz-adv-x="1110" d="M551 0 L204 578 L204 63 Q204 51 206.5 48 Q209 45 220 43 L287 35 L287 0 L77 0 L77 35 L140 42 Q151 44 153.5 47.5 Q156 51 156 62 L156 562 Q156 573 153.5 576.5 Q151 580 140 582 L77 589 L77 625 L235 625 L569 62 L569 562 Q569 573 566.5 576.5 Q564 580 553 582 L490 589 L490 624 L700 624 L700 589 L633 581 Q622 579 619.5 576 Q617 573 617 562 L617 0 L551 0 Z M862 256 Q913 256 940 287.5 Q967 319 967 387 Q967 515 865 515 Q812 515 783.5 483.5 Q755 452 755 387 Q755 256 862 256 Z M714 122 L714 169 L1015 169 L1015 122 L714 122 Z M860 215 Q818 215 789 228 Q760 241 742.5 264 Q725 287 717 318 Q709 349 709 384 Q709 418 717.5 449 Q726 480 744.5 503.5 Q763 527 793 540.5 Q823 554 866 554 Q910 554 938.5 540.5 Q967 527 983.5 504.5 Q1000 482 1006.5 452 Q1013 422 1013 390 Q1013 353 1005.5 321 Q998 289 980 265.5 Q962 242 932.5 228.5 Q903 215 860 215 Z " />
<glyph glyph-name="currency" unicode="&#xa4;" horiz-adv-x="570" d="M520 11 L424 104 Q398 84 362.5 71.5 Q327 59 284 59 Q236 59 201 71.5 Q166 84 140 106 L46 11 L8 47 L105 144 Q85 173 77 207.5 Q69 242 69 281 Q69 316 78 348.5 Q87 381 107 409 L11 504 L53 543 L145 450 Q172 474 208.5 488 Q245 502 292 502 Q381 502 437 454 L525 542 L562 505 L472 413 Q506 360 506 285 Q506 247 496 211.5 Q486 176 464 145 L561 49 L520 11 Z M289 104 Q327 104 357 117.5 Q387 131 407.5 155 Q428 179 439 211.5 Q450 244 450 281 Q450 362 407.5 408.5 Q365 455 286 455 Q248 455 218 442 Q188 429 167 406 Q146 383 135 351 Q124 319 124 281 Q124 244 134.5 211.5 Q145 179 165.5 155 Q186 131 217 117.5 Q248 104 289 104 Z " />
<glyph glyph-name="Aacute" unicode="&#xc1;" horiz-adv-x="682" d="M470 0 L470 35 L553 44 L488 243 L186 243 L120 44 L201 35 L201 0 L11 0 L11 36 L54 47 Q62 49 68.5 53 Q75 57 78 66 L302 724 L372 724 L601 63 Q604 54 609 51 Q614 48 623 46 L670 35 L670 0 L470 0 Z M337 687 L202 287 L471 287 L337 687 Z M266 766 L245 793 L421 926 L458 876 L266 766 Z " />
<glyph glyph-name="Abreve" unicode="&#x102;" horiz-adv-x="682" d="M470 0 L470 35 L553 44 L488 243 L186 243 L120 44 L201 35 L201 0 L11 0 L11 36 L54 47 Q62 49 68.5 53 Q75 57 78 66 L302 724 L372 724 L601 63 Q604 54 609 51 Q614 48 623 46 L670 35 L670 0 L470 0 Z M337 687 L202 287 L471 287 L337 687 Z M483 890 Q477 872 467.5 853 Q458 834 441.5 818.5 Q425 803 399.5 792.5 Q374 782 337 782 Q300 782 274.5 790.5 Q249 799 232 814 Q215 829 205.5 848.5 Q196 868 191 890 L234 904 Q241 885 248.5 870.5 Q256 856 267.5 846 Q279 836 296 830.5 Q313 825 340 825 Q367 825 384.5 832.5 Q402 840 413 851.5 Q424 863 431 877 Q438 891 443 904 L483 890 Z " />
<glyph glyph-name="Acircumflex" unicode="&#xc2;" horiz-adv-x="682" d="M470 0 L470 35 L553 44 L488 243 L186 243 L120 44 L201 35 L201 0 L11 0 L11 36 L54 47 Q62 49 68.5 53 Q75 57 78 66 L302 724 L372 724 L601 63 Q604 54 609 51 Q614 48 623 46 L670 35 L670 0 L470 0 Z M337 687 L202 287 L471 287 L337 687 Z M337 851 L215 768 L187 794 L302 890 L372 890 L486 796 L457 769 L337 851 Z " />
<glyph glyph-name="Adieresis" unicode="&#xc4;" horiz-adv-x="682" d="M470 0 L470 35 L553 44 L488 243 L186 243 L120 44 L201 35 L201 0 L11 0 L11 36 L54 47 Q62 49 68.5 53 Q75 57 78 66 L302 724 L372 724 L601 63 Q604 54 609 51 Q614 48 623 46 L670 35 L670 0 L470 0 Z M337 687 L202 287 L471 287 L337 687 Z M285 826 Q285 806 272.5 794 Q260 782 239 782 Q219 782 206.5 794 Q194 806 194 826 Q194 846 206.5 858 Q219 870 239 870 Q260 870 272.5 858 Q285 846 285 826 Z M482 826 Q482 806 469 794 Q456 782 436 782 Q416 782 403.5 794 Q391 806 391 826 Q391 846 403.5 858 Q416 870 436 870 Q456 870 469 858 Q482 846 482 826 Z " />
<glyph glyph-name="AEacute" unicode="&#x1fc;" horiz-adv-x="1011" d="M449 0 L449 35 L506 43 Q521 45 524.5 49.5 Q528 54 528 68 L528 334 L290 334 L125 44 L195 35 L195 0 L11 0 L11 35 L63 48 Q71 50 73 51.5 Q75 53 77 55 L433 682 L357 688 L357 724 L931 724 L931 587 L893 589 L879 670 Q878 675 874 679 Q870 683 859 683 L578 683 L578 377 L867 377 L867 334 L578 334 L578 42 L884 42 Q892 42 895 43.5 Q898 45 900 53 L916 141 L953 141 L953 0 L449 0 Z M528 681 L487 681 L315 378 L528 378 L528 681 Z M578 766 L557 793 L733 926 L770 876 L578 766 Z " />
<glyph glyph-name="Agrave" unicode="&#xc0;" horiz-adv-x="682" d="M470 0 L470 35 L553 44 L488 243 L186 243 L120 44 L201 35 L201 0 L11 0 L11 36 L54 47 Q62 49 68.5 53 Q75 57 78 66 L302 724 L372 724 L601 63 Q604 54 609 51 Q614 48 623 46 L670 35 L670 0 L470 0 Z M337 687 L202 287 L471 287 L337 687 Z M216 874 L253 925 L428 791 L408 765 L216 874 Z " />
<glyph glyph-name="Amacron" unicode="&#x100;" horiz-adv-x="682" d="M470 0 L470 35 L553 44 L488 243 L186 243 L120 44 L201 35 L201 0 L11 0 L11 36 L54 47 Q62 49 68.5 53 Q75 57 78 66 L302 724 L372 724 L601 63 Q604 54 609 51 Q614 48 623 46 L670 35 L670 0 L470 0 Z M337 687 L202 287 L471 287 L337 687 Z M187 800 L187 846 L488 846 L488 800 L187 800 Z " />
<glyph glyph-name="Aogonek" unicode="&#x104;" horiz-adv-x="682" d="M623 -189 Q608 -197 588 -202 Q568 -207 548 -207 Q515 -207 492 -190 Q469 -173 469 -135 Q469 -115 476.5 -96 Q484 -77 496 -60 Q508 -43 522.5 -28 Q537 -13 552 0 L470 0 L470 35 L553 44 L488 243 L186 243 L120 44 L201 35 L201 0 L11 0 L11 36 L54 47 Q62 49 68.5 53 Q75 57 78 66 L302 724 L372 724 L601 63 Q604 54 609 51 Q614 48 623 46 L670 35 L670 0 L606 0 Q592 -11 577 -25.5 Q562 -40 549.5 -57 Q537 -74 528.5 -92 Q520 -110 520 -128 Q520 -145 529.5 -155.5 Q539 -166 557 -166 Q570 -166 585 -162.5 Q600 -159 611 -154 L623 -189 Z M337 687 L202 287 L471 287 L337 687 Z " />
<glyph glyph-name="Aring" unicode="&#xc5;" horiz-adv-x="682" d="M470 0 L470 35 L553 44 L488 243 L186 243 L120 44 L201 35 L201 0 L11 0 L11 36 L54 47 Q62 49 68.5 53 Q75 57 78 66 L302 724 L372 724 L601 63 Q604 54 609 51 Q614 48 623 46 L670 35 L670 0 L470 0 Z M337 687 L202 287 L471 287 L337 687 Z M427 832 Q427 790 403 770 Q379 750 335 750 Q293 750 269 769.5 Q245 789 245 831 Q245 873 271 893.5 Q297 914 335 914 Q375 914 401 895.5 Q427 877 427 832 Z M335 788 Q359 788 370.5 800 Q382 812 382 832 Q382 875 335 875 Q315 875 302.5 863.5 Q290 852 290 830 Q290 810 300.5 799 Q311 788 335 788 Z " />
<glyph glyph-name="Aringacute" unicode="&#x1fa;" horiz-adv-x="682" d="M429 791 Q429 759 415 740.5 Q401 722 375 714 L601 63 Q604 54 609 51 Q614 48 623 46 L670 35 L670 0 L470 0 L470 35 L553 44 L488 243 L186 243 L120 44 L201 35 L201 0 L11 0 L11 36 L54 47 Q62 49 68.5 53 Q75 57 78 66 L298 714 Q274 722 260.5 740.5 Q247 759 247 789 Q247 831 273 852 Q299 873 337 873 Q377 873 403 854.5 Q429 836 429 791 Z M337 687 L202 287 L471 287 L337 687 Z M275 881 L254 908 L430 1041 L467 991 L275 881 Z M337 745 Q362 745 374 757.5 Q386 770 386 791 Q386 812 373.5 825 Q361 838 337 838 Q316 838 302.5 825 Q289 812 289 789 Q289 769 300.5 757 Q312 745 337 745 Z " />
<glyph glyph-name="Atilde" unicode="&#xc3;" horiz-adv-x="682" d="M470 0 L470 35 L553 44 L488 243 L186 243 L120 44 L201 35 L201 0 L11 0 L11 36 L54 47 Q62 49 68.5 53 Q75 57 78 66 L302 724 L372 724 L601 63 Q604 54 609 51 Q614 48 623 46 L670 35 L670 0 L470 0 Z M337 687 L202 287 L471 287 L337 687 Z M480 821 Q462 797 443.5 787.5 Q425 778 396 785 L263 820 Q253 823 247 817 L204 775 L176 796 L200 830 Q217 852 234 860 Q251 868 280 861 L415 825 Q425 822 431 828 L472 869 L500 850 L480 821 Z " />
<glyph glyph-name="Cacute" unicode="&#x106;" horiz-adv-x="680" d="M628 39 Q590 12 527 0 Q464 -12 395 -12 Q305 -12 241.5 16.5 Q178 45 137.5 96.5 Q97 148 78.5 218.5 Q60 289 60 373 Q60 450 82 516.5 Q104 583 147.5 632 Q191 681 256.5 709 Q322 737 410 737 Q479 737 535 722.5 Q591 708 626 685 L626 551 L588 553 L571 646 Q570 651 568.5 655.5 Q567 660 558 664 Q528 676 488 684 Q448 692 405 692 Q338 692 284 670.5 Q230 649 191.5 608 Q153 567 132 507 Q111 447 111 371 Q111 288 131 225 Q151 162 188 119 Q225 76 278.5 54.5 Q332 33 398 33 Q440 33 486 38 Q532 43 566 60 Q575 65 578 76 L594 164 L628 164 L628 39 Z M332 766 L311 793 L487 926 L524 876 L332 766 Z " />
<glyph glyph-name="Ccaron" unicode="&#x10c;" horiz-adv-x="680" d="M628 39 Q590 12 527 0 Q464 -12 395 -12 Q305 -12 241.5 16.5 Q178 45 137.5 96.5 Q97 148 78.5 218.5 Q60 289 60 373 Q60 450 82 516.5 Q104 583 147.5 632 Q191 681 256.5 709 Q322 737 410 737 Q479 737 535 722.5 Q591 708 626 685 L626 551 L588 553 L571 646 Q570 651 568.5 655.5 Q567 660 558 664 Q528 676 488 684 Q448 692 405 692 Q338 692 284 670.5 Q230 649 191.5 608 Q153 567 132 507 Q111 447 111 371 Q111 288 131 225 Q151 162 188 119 Q225 76 278.5 54.5 Q332 33 398 33 Q440 33 486 38 Q532 43 566 60 Q575 65 578 76 L594 164 L628 164 L628 39 Z M436 775 L369 775 L254 872 L283 898 L404 814 L522 898 L549 872 L436 775 Z " />
<glyph glyph-name="Ccedilla" unicode="&#xc7;" horiz-adv-x="680" d="M322 -178 Q337 -181 357 -181 Q435 -181 435 -125 Q435 -104 420.5 -90 Q406 -76 360 -75 L369 -11 Q286 -7 227.5 23 Q169 53 131.5 104 Q94 155 77 223.5 Q60 292 60 373 Q60 450 82 516.5 Q104 583 147.5 632 Q191 681 256.5 709 Q322 737 410 737 Q479 737 535 722.5 Q591 708 626 685 L626 551 L588 553 L571 646 Q570 651 568.5 655.5 Q567 660 558 664 Q528 676 488 684 Q448 692 405 692 Q338 692 284 670.5 Q230 649 191.5 608 Q153 567 132 507 Q111 447 111 371 Q111 288 131 225 Q151 162 188 119 Q225 76 278.5 54.5 Q332 33 398 33 Q440 33 486 38 Q532 43 566 60 Q575 65 578 76 L594 164 L628 164 L628 39 Q592 13 534 1.5 Q476 -10 410 -12 L406 -42 Q442 -50 463 -69.5 Q484 -89 484 -123 Q484 -139 478 -156.5 Q472 -174 457.5 -188 Q443 -202 419.5 -211.5 Q396 -221 361 -221 Q339 -221 316 -217 L322 -178 Z " />
<glyph glyph-name="Ccircumflex" unicode="&#x108;" horiz-adv-x="680" d="M628 39 Q590 12 527 0 Q464 -12 395 -12 Q305 -12 241.5 16.5 Q178 45 137.5 96.5 Q97 148 78.5 218.5 Q60 289 60 373 Q60 450 82 516.5 Q104 583 147.5 632 Q191 681 256.5 709 Q322 737 410 737 Q479 737 535 722.5 Q591 708 626 685 L626 551 L588 553 L571 646 Q570 651 568.5 655.5 Q567 660 558 664 Q528 676 488 684 Q448 692 405 692 Q338 692 284 670.5 Q230 649 191.5 608 Q153 567 132 507 Q111 447 111 371 Q111 288 131 225 Q151 162 188 119 Q225 76 278.5 54.5 Q332 33 398 33 Q440 33 486 38 Q532 43 566 60 Q575 65 578 76 L594 164 L628 164 L628 39 Z M402 851 L280 768 L252 794 L367 890 L437 890 L551 796 L522 769 L402 851 Z " />
<glyph glyph-name="Cdotaccent" unicode="&#x10a;" horiz-adv-x="680" d="M448 826 Q448 782 402 782 Q380 782 367.5 793.5 Q355 805 355 826 Q355 847 367.5 859 Q380 871 402 871 Q424 871 436 859 Q448 847 448 826 Z M628 39 Q590 12 527 0 Q464 -12 395 -12 Q305 -12 241.5 16.5 Q178 45 137.5 96.5 Q97 148 78.5 218.5 Q60 289 60 373 Q60 450 82 516.5 Q104 583 147.5 632 Q191 681 256.5 709 Q322 737 410 737 Q479 737 535 722.5 Q591 708 626 685 L626 551 L588 553 L571 646 Q570 651 568.5 655.5 Q567 660 558 664 Q528 676 488 684 Q448 692 405 692 Q338 692 284 670.5 Q230 649 191.5 608 Q153 567 132 507 Q111 447 111 371 Q111 288 131 225 Q151 162 188 119 Q225 76 278.5 54.5 Q332 33 398 33 Q440 33 486 38 Q532 43 566 60 Q575 65 578 76 L594 164 L628 164 L628 39 Z " />
<glyph glyph-name="Dcaron" unicode="&#x10e;" horiz-adv-x="777" d="M387 775 L320 775 L205 872 L234 898 L355 814 L473 898 L500 872 L387 775 Z M77 0 L77 33 L140 40 Q151 42 153.5 45.5 Q156 49 156 60 L156 663 Q156 674 153.5 678 Q151 682 140 683 L77 690 L77 724 L358 724 Q452 724 520 699.5 Q588 675 631.5 629.5 Q675 584 696 519 Q717 454 717 373 Q717 290 694.5 221 Q672 152 626 103 Q580 54 509 27 Q438 0 341 0 L77 0 Z M351 42 Q503 42 584.5 124 Q666 206 666 356 Q666 451 644 514 Q622 577 582 614.5 Q542 652 484.5 667.5 Q427 683 357 683 L204 683 L204 42 L351 42 Z " />
<glyph glyph-name="Dcroat" unicode="&#x110;" horiz-adv-x="789" d="M88 0 L88 35 L151 42 Q162 44 164.5 47.5 Q167 51 167 62 L167 352 L56 352 L56 394 L167 394 L167 661 Q167 672 164.5 676 Q162 680 151 681 L88 688 L88 724 L370 724 Q464 724 532 699.5 Q600 675 643.5 629.5 Q687 584 708 519 Q729 454 729 373 Q729 290 706.5 221 Q684 152 638 103 Q592 54 521 27 Q450 0 353 0 L88 0 Z M359 42 Q511 42 594 124 Q677 206 677 356 Q677 451 655.5 513.5 Q634 576 593.5 613.5 Q553 651 496 666.5 Q439 682 368 682 L216 682 L216 394 L448 394 L448 352 L216 352 L216 42 L359 42 Z " />
<glyph glyph-name="Eacute" unicode="&#xc9;" horiz-adv-x="638" d="M283 766 L262 793 L438 926 L475 876 L283 766 Z M77 0 L77 33 L140 40 Q151 42 153.5 45.5 Q156 49 156 60 L156 663 Q156 674 153.5 678 Q151 682 140 683 L77 690 L77 724 L558 724 L558 587 L519 589 L505 670 Q502 683 488 683 L204 683 L204 387 L494 387 L494 346 L204 346 L204 42 L510 42 Q518 42 521 43.5 Q524 45 526 53 L542 141 L580 141 L580 0 L77 0 Z " />
<glyph glyph-name="Ebreve" unicode="&#x114;" horiz-adv-x="638" d="M481 890 Q475 872 465.5 853 Q456 834 439.5 818.5 Q423 803 397.5 792.5 Q372 782 335 782 Q298 782 272.5 790.5 Q247 799 230 814 Q213 829 203.5 848.5 Q194 868 189 890 L232 904 Q239 885 246.5 870.5 Q254 856 265.5 846 Q277 836 294 830.5 Q311 825 338 825 Q365 825 382.5 832.5 Q400 840 411 851.5 Q422 863 429 877 Q436 891 441 904 L481 890 Z M77 0 L77 33 L140 40 Q151 42 153.5 45.5 Q156 49 156 60 L156 663 Q156 674 153.5 678 Q151 682 140 683 L77 690 L77 724 L558 724 L558 587 L519 589 L505 670 Q502 683 488 683 L204 683 L204 387 L494 387 L494 346 L204 346 L204 42 L510 42 Q518 42 521 43.5 Q524 45 526 53 L542 141 L580 141 L580 0 L77 0 Z " />
<glyph glyph-name="Ecaron" unicode="&#x11a;" horiz-adv-x="638" d="M368 775 L301 775 L186 872 L215 898 L336 814 L454 898 L481 872 L368 775 Z M77 0 L77 33 L140 40 Q151 42 153.5 45.5 Q156 49 156 60 L156 663 Q156 674 153.5 678 Q151 682 140 683 L77 690 L77 724 L558 724 L558 587 L519 589 L505 670 Q502 683 488 683 L204 683 L204 387 L494 387 L494 346 L204 346 L204 42 L510 42 Q518 42 521 43.5 Q524 45 526 53 L542 141 L580 141 L580 0 L77 0 Z " />
<glyph glyph-name="Ecircumflex" unicode="&#xca;" horiz-adv-x="638" d="M77 0 L77 33 L140 40 Q151 42 153.5 45.5 Q156 49 156 60 L156 663 Q156 674 153.5 678 Q151 682 140 683 L77 690 L77 724 L558 724 L558 587 L519 589 L505 670 Q502 683 488 683 L204 683 L204 387 L494 387 L494 346 L204 346 L204 42 L510 42 Q518 42 521 43.5 Q524 45 526 53 L542 141 L580 141 L580 0 L77 0 Z M343 851 L221 768 L193 794 L308 890 L378 890 L492 796 L463 769 L343 851 Z " />
<glyph glyph-name="Edieresis" unicode="&#xcb;" horiz-adv-x="638" d="M284 826 Q284 806 271.5 794 Q259 782 238 782 Q218 782 205.5 794 Q193 806 193 826 Q193 846 205.5 858 Q218 870 238 870 Q259 870 271.5 858 Q284 846 284 826 Z M481 826 Q481 806 468 794 Q455 782 435 782 Q415 782 402.5 794 Q390 806 390 826 Q390 846 402.5 858 Q415 870 435 870 Q455 870 468 858 Q481 846 481 826 Z M77 0 L77 33 L140 40 Q151 42 153.5 45.5 Q156 49 156 60 L156 663 Q156 674 153.5 678 Q151 682 140 683 L77 690 L77 724 L558 724 L558 587 L519 589 L505 670 Q502 683 488 683 L204 683 L204 387 L494 387 L494 346 L204 346 L204 42 L510 42 Q518 42 521 43.5 Q524 45 526 53 L542 141 L580 141 L580 0 L77 0 Z " />
<glyph glyph-name="Edotaccent" unicode="&#x116;" horiz-adv-x="638" d="M386 826 Q386 782 340 782 Q318 782 305.5 793.5 Q293 805 293 826 Q293 847 305.5 859 Q318 871 340 871 Q362 871 374 859 Q386 847 386 826 Z M77 0 L77 33 L140 40 Q151 42 153.5 45.5 Q156 49 156 60 L156 663 Q156 674 153.5 678 Q151 682 140 683 L77 690 L77 724 L558 724 L558 587 L519 589 L505 670 Q502 683 488 683 L204 683 L204 387 L494 387 L494 346 L204 346 L204 42 L510 42 Q518 42 521 43.5 Q524 45 526 53 L542 141 L580 141 L580 0 L77 0 Z " />
<glyph glyph-name="Egrave" unicode="&#xc8;" horiz-adv-x="638" d="M202 874 L239 925 L414 791 L394 765 L202 874 Z M77 0 L77 33 L140 40 Q151 42 153.5 45.5 Q156 49 156 60 L156 663 Q156 674 153.5 678 Q151 682 140 683 L77 690 L77 724 L558 724 L558 587 L519 589 L505 670 Q502 683 488 683 L204 683 L204 387 L494 387 L494 346 L204 346 L204 42 L510 42 Q518 42 521 43.5 Q524 45 526 53 L542 141 L580 141 L580 0 L77 0 Z " />
<glyph glyph-name="Emacron" unicode="&#x112;" horiz-adv-x="638" d="M183 800 L183 846 L484 846 L484 800 L183 800 Z M77 0 L77 33 L140 40 Q151 42 153.5 45.5 Q156 49 156 60 L156 663 Q156 674 153.5 678 Q151 682 140 683 L77 690 L77 724 L558 724 L558 587 L519 589 L505 670 Q502 683 488 683 L204 683 L204 387 L494 387 L494 346 L204 346 L204 42 L510 42 Q518 42 521 43.5 Q524 45 526 53 L542 141 L580 141 L580 0 L77 0 Z " />
<glyph glyph-name="Eogonek" unicode="&#x118;" horiz-adv-x="638" d="M558 -189 Q543 -197 523 -202 Q503 -207 483 -207 Q450 -207 427 -190 Q404 -173 404 -135 Q404 -94 432 -59 Q460 -24 500 0 L77 0 L77 33 L140 40 Q151 42 153.5 45.5 Q156 49 156 60 L156 663 Q156 674 153.5 678 Q151 682 140 683 L77 690 L77 724 L558 724 L558 587 L519 589 L505 670 Q502 683 488 683 L204 683 L204 387 L494 387 L494 346 L204 346 L204 42 L510 42 Q518 42 521 43.5 Q524 45 526 53 L542 141 L580 141 L580 0 Q553 -9 530 -23 Q507 -37 490.5 -54.5 Q474 -72 464.5 -91 Q455 -110 455 -128 Q455 -145 464.5 -155.5 Q474 -166 492 -166 Q505 -166 520 -162.5 Q535 -159 546 -154 L558 -189 Z " />
<glyph glyph-name="Gbreve" unicode="&#x11e;" horiz-adv-x="754" d="M541 890 Q535 872 525.5 853 Q516 834 499.5 818.5 Q483 803 457.5 792.5 Q432 782 395 782 Q358 782 332.5 790.5 Q307 799 290 814 Q273 829 263.5 848.5 Q254 868 249 890 L292 904 Q299 885 306.5 870.5 Q314 856 325.5 846 Q337 836 354 830.5 Q371 825 398 825 Q425 825 442.5 832.5 Q460 840 471 851.5 Q482 863 489 877 Q496 891 501 904 L541 890 Z M676 283 Q660 282 660 272 L660 23 Q640 14 613 7.5 Q586 1 556 -3.5 Q526 -8 495 -10 Q464 -12 434 -12 Q333 -12 262 16.5 Q191 45 146 96 Q101 147 80.5 216.5 Q60 286 60 369 Q60 448 82 515 Q104 582 147.5 631.5 Q191 681 256.5 709 Q322 737 410 737 Q480 737 537.5 722.5 Q595 708 630 685 L630 550 L592 551 L574 646 Q574 651 572 655.5 Q570 660 562 664 Q531 676 490 684 Q449 692 405 692 Q339 692 284.5 671 Q230 650 191.5 608.5 Q153 567 132 506.5 Q111 446 111 367 Q111 285 133.5 222.5 Q156 160 198 118 Q240 76 299.5 54.5 Q359 33 432 33 Q454 33 477.5 34.5 Q501 36 523.5 39 Q546 42 565.5 45.5 Q585 49 600 54 Q604 56 608 59 Q612 62 612 71 L612 283 L459 283 L468 325 L718 325 L718 287 L676 283 Z " />
<glyph glyph-name="Gcircumflex" unicode="&#x11c;" horiz-adv-x="754" d="M676 283 Q660 282 660 272 L660 23 Q640 14 613 7.5 Q586 1 556 -3.5 Q526 -8 495 -10 Q464 -12 434 -12 Q333 -12 262 16.5 Q191 45 146 96 Q101 147 80.5 216.5 Q60 286 60 369 Q60 448 82 515 Q104 582 147.5 631.5 Q191 681 256.5 709 Q322 737 410 737 Q480 737 537.5 722.5 Q595 708 630 685 L630 550 L592 551 L574 646 Q574 651 572 655.5 Q570 660 562 664 Q531 676 490 684 Q449 692 405 692 Q339 692 284.5 671 Q230 650 191.5 608.5 Q153 567 132 506.5 Q111 446 111 367 Q111 285 133.5 222.5 Q156 160 198 118 Q240 76 299.5 54.5 Q359 33 432 33 Q454 33 477.5 34.5 Q501 36 523.5 39 Q546 42 565.5 45.5 Q585 49 600 54 Q604 56 608 59 Q612 62 612 71 L612 283 L459 283 L468 325 L718 325 L718 287 L676 283 Z M406 851 L284 768 L256 794 L371 890 L441 890 L555 796 L526 769 L406 851 Z " />
<glyph glyph-name="Gcommaaccent" unicode="&#x122;" horiz-adv-x="754" d="M366 -232 L390 -138 Q391 -131 386 -128 L356 -113 L371 -65 Q409 -70 428.5 -79.5 Q448 -89 448 -118 Q448 -129 441.5 -143 Q435 -157 430 -168 L390 -241 L366 -232 Z M676 283 Q660 282 660 272 L660 23 Q640 14 613 7.5 Q586 1 556 -3.5 Q526 -8 495 -10 Q464 -12 434 -12 Q333 -12 262 16.5 Q191 45 146 96 Q101 147 80.5 216.5 Q60 286 60 369 Q60 448 82 515 Q104 582 147.5 631.5 Q191 681 256.5 709 Q322 737 410 737 Q480 737 537.5 722.5 Q595 708 630 685 L630 550 L592 551 L574 646 Q574 651 572 655.5 Q570 660 562 664 Q531 676 490 684 Q449 692 405 692 Q339 692 284.5 671 Q230 650 191.5 608.5 Q153 567 132 506.5 Q111 446 111 367 Q111 285 133.5 222.5 Q156 160 198 118 Q240 76 299.5 54.5 Q359 33 432 33 Q454 33 477.5 34.5 Q501 36 523.5 39 Q546 42 565.5 45.5 Q585 49 600 54 Q604 56 608 59 Q612 62 612 71 L612 283 L459 283 L468 325 L718 325 L718 287 L676 283 Z " />
<glyph glyph-name="Gdotaccent" unicode="&#x120;" horiz-adv-x="754" d="M443 826 Q443 782 397 782 Q375 782 362.5 793.5 Q350 805 350 826 Q350 847 362.5 859 Q375 871 397 871 Q419 871 431 859 Q443 847 443 826 Z M676 283 Q660 282 660 272 L660 23 Q640 14 613 7.5 Q586 1 556 -3.5 Q526 -8 495 -10 Q464 -12 434 -12 Q333 -12 262 16.5 Q191 45 146 96 Q101 147 80.5 216.5 Q60 286 60 369 Q60 448 82 515 Q104 582 147.5 631.5 Q191 681 256.5 709 Q322 737 410 737 Q480 737 537.5 722.5 Q595 708 630 685 L630 550 L592 551 L574 646 Q574 651 572 655.5 Q570 660 562 664 Q531 676 490 684 Q449 692 405 692 Q339 692 284.5 671 Q230 650 191.5 608.5 Q153 567 132 506.5 Q111 446 111 367 Q111 285 133.5 222.5 Q156 160 198 118 Q240 76 299.5 54.5 Q359 33 432 33 Q454 33 477.5 34.5 Q501 36 523.5 39 Q546 42 565.5 45.5 Q585 49 600 54 Q604 56 608 59 Q612 62 612 71 L612 283 L459 283 L468 325 L718 325 L718 287 L676 283 Z " />
<glyph glyph-name="Hbar" unicode="&#x126;" horiz-adv-x="801" d="M518 0 L518 35 L581 42 Q592 44 594.5 47.5 Q597 51 597 62 L597 354 L204 354 L204 63 Q204 51 206.5 48 Q209 45 220 43 L287 35 L287 0 L77 0 L77 35 L140 42 Q151 44 153.5 47.5 Q156 51 156 62 L156 532 L84 532 L84 574 L156 574 L156 662 Q156 673 153.5 677 Q151 681 140 682 L77 689 L77 724 L287 724 L287 689 L220 681 Q209 679 206.5 676 Q204 673 204 662 L204 574 L597 574 L597 662 Q597 673 594.5 677 Q592 681 581 682 L518 689 L518 724 L728 724 L728 689 L661 681 Q650 679 647.5 676 Q645 673 645 662 L645 574 L715 574 L715 532 L645 532 L645 63 Q645 51 647.5 48 Q650 45 661 43 L728 35 L728 0 L518 0 Z M597 396 L597 532 L204 532 L204 396 L597 396 Z " />
<glyph glyph-name="Hcircumflex" unicode="&#x124;" horiz-adv-x="801" d="M518 0 L518 35 L581 42 Q592 44 594.5 47.5 Q597 51 597 62 L597 354 L204 354 L204 63 Q204 51 206.5 48 Q209 45 220 43 L287 35 L287 0 L77 0 L77 35 L140 42 Q151 44 153.5 47.5 Q156 51 156 62 L156 662 Q156 673 153.5 677 Q151 681 140 682 L77 689 L77 724 L287 724 L287 689 L220 681 Q209 679 206.5 676 Q204 673 204 662 L204 396 L597 396 L597 662 Q597 673 594.5 677 Q592 681 581 682 L518 689 L518 724 L728 724 L728 689 L661 681 Q650 679 647.5 676 Q645 673 645 662 L645 63 Q645 51 647.5 48 Q650 45 661 43 L728 35 L728 0 L518 0 Z M404 851 L282 768 L254 794 L369 890 L439 890 L553 796 L524 769 L404 851 Z " />
<glyph glyph-name="Iacute" unicode="&#xcd;" horiz-adv-x="391" d="M82 0 L82 35 L155 42 Q166 44 168.5 47.5 Q171 51 171 62 L171 662 Q171 673 168.5 677 Q166 681 155 682 L82 689 L82 724 L313 724 L313 689 L236 681 Q225 679 222.5 676 Q220 673 220 662 L220 63 Q220 51 222.5 48 Q225 45 236 43 L313 35 L313 0 L82 0 Z M126 766 L105 793 L281 926 L318 876 L126 766 Z " />
<glyph glyph-name="Ibreve" unicode="&#x12c;" horiz-adv-x="391" d="M82 0 L82 35 L155 42 Q166 44 168.5 47.5 Q171 51 171 62 L171 662 Q171 673 168.5 677 Q166 681 155 682 L82 689 L82 724 L313 724 L313 689 L236 681 Q225 679 222.5 676 Q220 673 220 662 L220 63 Q220 51 222.5 48 Q225 45 236 43 L313 35 L313 0 L82 0 Z M342 890 Q336 872 326.5 853 Q317 834 300.5 818.5 Q284 803 258.5 792.5 Q233 782 196 782 Q159 782 133.5 790.5 Q108 799 91 814 Q74 829 64.5 848.5 Q55 868 50 890 L93 904 Q100 885 107.5 870.5 Q115 856 126.5 846 Q138 836 155 830.5 Q172 825 199 825 Q226 825 243.5 832.5 Q261 840 272 851.5 Q283 863 290 877 Q297 891 302 904 L342 890 Z " />
<glyph glyph-name="Icircumflex" unicode="&#xce;" horiz-adv-x="391" d="M82 0 L82 35 L155 42 Q166 44 168.5 47.5 Q171 51 171 62 L171 662 Q171 673 168.5 677 Q166 681 155 682 L82 689 L82 724 L313 724 L313 689 L236 681 Q225 679 222.5 676 Q220 673 220 662 L220 63 Q220 51 222.5 48 Q225 45 236 43 L313 35 L313 0 L82 0 Z M196 851 L74 768 L46 794 L161 890 L231 890 L345 796 L316 769 L196 851 Z " />
<glyph glyph-name="Idieresis" unicode="&#xcf;" horiz-adv-x="391" d="M82 0 L82 35 L155 42 Q166 44 168.5 47.5 Q171 51 171 62 L171 662 Q171 673 168.5 677 Q166 681 155 682 L82 689 L82 724 L313 724 L313 689 L236 681 Q225 679 222.5 676 Q220 673 220 662 L220 63 Q220 51 222.5 48 Q225 45 236 43 L313 35 L313 0 L82 0 Z M144 826 Q144 806 131.5 794 Q119 782 98 782 Q78 782 65.5 794 Q53 806 53 826 Q53 846 65.5 858 Q78 870 98 870 Q119 870 131.5 858 Q144 846 144 826 Z M341 826 Q341 806 328 794 Q315 782 295 782 Q275 782 262.5 794 Q250 806 250 826 Q250 846 262.5 858 Q275 870 295 870 Q315 870 328 858 Q341 846 341 826 Z " />
<glyph glyph-name="Idotaccent" unicode="&#x130;" horiz-adv-x="391" d="M82 0 L82 35 L155 42 Q166 44 168.5 47.5 Q171 51 171 62 L171 662 Q171 673 168.5 677 Q166 681 155 682 L82 689 L82 724 L313 724 L313 689 L236 681 Q225 679 222.5 676 Q220 673 220 662 L220 63 Q220 51 222.5 48 Q225 45 236 43 L313 35 L313 0 L82 0 Z M242 826 Q242 782 196 782 Q174 782 161.5 793.5 Q149 805 149 826 Q149 847 161.5 859 Q174 871 196 871 Q218 871 230 859 Q242 847 242 826 Z " />
<glyph glyph-name="Igrave" unicode="&#xcc;" horiz-adv-x="391" d="M82 0 L82 35 L155 42 Q166 44 168.5 47.5 Q171 51 171 62 L171 662 Q171 673 168.5 677 Q166 681 155 682 L82 689 L82 724 L313 724 L313 689 L236 681 Q225 679 222.5 676 Q220 673 220 662 L220 63 Q220 51 222.5 48 Q225 45 236 43 L313 35 L313 0 L82 0 Z M75 874 L112 925 L287 791 L267 765 L75 874 Z " />
<glyph glyph-name="Imacron" unicode="&#x12a;" horiz-adv-x="391" d="M82 0 L82 35 L155 42 Q166 44 168.5 47.5 Q171 51 171 62 L171 662 Q171 673 168.5 677 Q166 681 155 682 L82 689 L82 724 L313 724 L313 689 L236 681 Q225 679 222.5 676 Q220 673 220 662 L220 63 Q220 51 222.5 48 Q225 45 236 43 L313 35 L313 0 L82 0 Z M47 800 L47 846 L348 846 L348 800 L47 800 Z " />
<glyph glyph-name="Iogonek" unicode="&#x12e;" horiz-adv-x="391" d="M251 -189 Q236 -197 216 -202 Q196 -207 176 -207 Q143 -207 120 -190 Q97 -173 97 -135 Q97 -115 104.5 -96 Q112 -77 124 -60 Q136 -43 150.5 -28 Q165 -13 180 0 L82 0 L82 35 L155 42 Q166 44 168.5 47.5 Q171 51 171 62 L171 662 Q171 673 168.5 677 Q166 681 155 682 L82 689 L82 724 L313 724 L313 689 L236 681 Q225 679 222.5 676 Q220 673 220 662 L220 63 Q220 51 222.5 48 Q225 45 236 43 L313 35 L313 0 L234 0 Q220 -11 205 -25.5 Q190 -40 177.5 -57 Q165 -74 156.5 -92 Q148 -110 148 -128 Q148 -145 157.5 -155.5 Q167 -166 185 -166 Q198 -166 213 -162.5 Q228 -159 239 -154 L251 -189 Z " />
<glyph glyph-name="Itilde" unicode="&#x128;" horiz-adv-x="391" d="M82 0 L82 35 L155 42 Q166 44 168.5 47.5 Q171 51 171 62 L171 662 Q171 673 168.5 677 Q166 681 155 682 L82 689 L82 724 L313 724 L313 689 L236 681 Q225 679 222.5 676 Q220 673 220 662 L220 63 Q220 51 222.5 48 Q225 45 236 43 L313 35 L313 0 L82 0 Z M339 821 Q321 797 302.5 787.5 Q284 778 255 785 L122 820 Q112 823 106 817 L63 775 L35 796 L59 830 Q76 852 93 860 Q110 868 139 861 L274 825 Q284 822 290 828 L331 869 L359 850 L339 821 Z " />
<glyph glyph-name="Jcircumflex" unicode="&#x134;" horiz-adv-x="495" d="M314 663 Q314 674 311 677.5 Q308 681 298 682 L216 689 L216 724 L445 724 L445 689 L378 681 Q367 679 364.5 676.5 Q362 674 362 663 L362 136 Q362 60 327 24 Q292 -12 214 -12 Q157 -12 117 -0.5 Q77 11 65 19 L65 129 L104 127 L114 60 Q115 56 116.5 52.5 Q118 49 126 46 Q134 41 156.5 34.5 Q179 28 214 28 Q244 28 263.5 35.5 Q283 43 294.5 57.5 Q306 72 310 94 Q314 116 314 146 L314 663 Z M340 851 L218 768 L190 794 L305 890 L375 890 L489 796 L460 769 L340 851 Z " />
<glyph glyph-name="Kcommaaccent" unicode="&#x136;" horiz-adv-x="723" d="M334 -232 L358 -138 Q359 -131 354 -128 L324 -113 L339 -65 Q377 -70 396.5 -79.5 Q416 -89 416 -118 Q416 -129 409.5 -143 Q403 -157 398 -168 L358 -241 L334 -232 Z M462 0 L462 37 L554 45 L290 376 L204 285 L204 63 Q204 51 206.5 48 Q209 45 220 43 L287 35 L287 0 L77 0 L77 35 L140 42 Q151 44 153.5 47.5 Q156 51 156 62 L156 662 Q156 673 153.5 677 Q151 681 140 682 L77 689 L77 724 L287 724 L287 689 L220 681 Q209 679 206.5 676 Q204 673 204 662 L204 343 L518 680 L456 688 L456 724 L649 724 L649 689 L592 678 Q578 676 573.5 673 Q569 670 562 663 L324 410 L600 61 Q607 52 611 49.5 Q615 47 629 45 L688 35 L688 0 L462 0 Z " />
<glyph glyph-name="Lacute" unicode="&#x139;" horiz-adv-x="616" d="M110 766 L89 793 L265 926 L302 876 L110 766 Z M77 0 L77 33 L140 40 Q151 42 153.5 45.5 Q156 49 156 60 L156 661 Q156 672 153.5 676 Q151 680 140 681 L77 688 L77 724 L303 724 L303 688 L220 680 Q209 679 206.5 675.5 Q204 672 204 661 L204 42 L510 42 Q518 42 521 43.5 Q524 45 526 53 L542 138 L580 138 L580 0 L77 0 Z " />
<glyph glyph-name="Lcaron" unicode="&#x13d;" horiz-adv-x="616" d="M385 589 Q392 609 398 630 Q404 651 404 679 Q404 705 398.5 720.5 Q393 736 388 745 L435 771 Q450 757 456.5 747 Q463 737 463 720 Q463 712 461.5 701 Q460 690 455 674 Q445 644 436 622.5 Q427 601 418 579 L385 589 Z M77 0 L77 33 L140 40 Q151 42 153.5 45.5 Q156 49 156 60 L156 661 Q156 672 153.5 676 Q151 680 140 681 L77 688 L77 724 L303 724 L303 688 L220 680 Q209 679 206.5 675.5 Q204 672 204 661 L204 42 L510 42 Q518 42 521 43.5 Q524 45 526 53 L542 138 L580 138 L580 0 L77 0 Z " />
<glyph glyph-name="Lcommaaccent" unicode="&#x13b;" horiz-adv-x="616" d="M315 -232 L339 -138 Q340 -131 335 -128 L305 -113 L320 -65 Q358 -70 377.5 -79.5 Q397 -89 397 -118 Q397 -129 390.5 -143 Q384 -157 379 -168 L339 -241 L315 -232 Z M77 0 L77 33 L140 40 Q151 42 153.5 45.5 Q156 49 156 60 L156 661 Q156 672 153.5 676 Q151 680 140 681 L77 688 L77 724 L303 724 L303 688 L220 680 Q209 679 206.5 675.5 Q204 672 204 661 L204 42 L510 42 Q518 42 521 43.5 Q524 45 526 53 L542 138 L580 138 L580 0 L77 0 Z " />
<glyph glyph-name="Ldot" unicode="&#x13f;" horiz-adv-x="616" d="M530 327 Q530 283 484 283 Q462 283 449.5 294.5 Q437 306 437 327 Q437 348 449.5 360 Q462 372 484 372 Q506 372 518 360 Q530 348 530 327 Z M77 0 L77 33 L140 40 Q151 42 153.5 45.5 Q156 49 156 60 L156 661 Q156 672 153.5 676 Q151 680 140 681 L77 688 L77 724 L303 724 L303 688 L220 680 Q209 679 206.5 675.5 Q204 672 204 661 L204 42 L510 42 Q518 42 521 43.5 Q524 45 526 53 L542 138 L580 138 L580 0 L77 0 Z " />
<glyph glyph-name="Lslash" unicode="&#x141;" horiz-adv-x="616" d="M77 0 L77 35 L140 42 Q151 44 153.5 47.5 Q156 51 156 62 L156 297 L55 255 L55 301 L156 343 L156 661 Q156 672 153.5 676 Q151 680 140 681 L77 688 L77 724 L303 724 L303 688 L220 680 Q209 679 206.5 675.5 Q204 672 204 661 L204 362 L467 473 L467 425 L204 315 L204 43 L510 43 Q518 43 521 44.5 Q524 46 526 54 L542 138 L580 138 L580 0 L77 0 Z " />
<glyph glyph-name="Nacute" unicode="&#x143;" horiz-adv-x="828" d="M355 766 L334 793 L510 926 L547 876 L355 766 Z M612 0 L204 674 L204 63 Q204 51 206.5 48 Q209 45 220 43 L287 35 L287 0 L77 0 L77 35 L140 42 Q151 44 153.5 47.5 Q156 51 156 62 L156 661 Q156 672 153.5 675.5 Q151 679 140 681 L77 688 L77 724 L233 724 L629 62 L629 662 Q629 673 626.5 676.5 Q624 680 613 682 L550 689 L550 724 L760 724 L760 689 L693 681 Q682 679 679.5 676 Q677 673 677 662 L677 0 L612 0 Z " />
<glyph glyph-name="Ncaron" unicode="&#x147;" horiz-adv-x="828" d="M449 775 L382 775 L267 872 L296 898 L417 814 L535 898 L562 872 L449 775 Z M612 0 L204 674 L204 63 Q204 51 206.5 48 Q209 45 220 43 L287 35 L287 0 L77 0 L77 35 L140 42 Q151 44 153.5 47.5 Q156 51 156 62 L156 661 Q156 672 153.5 675.5 Q151 679 140 681 L77 688 L77 724 L233 724 L629 62 L629 662 Q629 673 626.5 676.5 Q624 680 613 682 L550 689 L550 724 L760 724 L760 689 L693 681 Q682 679 679.5 676 Q677 673 677 662 L677 0 L612 0 Z " />
<glyph glyph-name="Ncommaaccent" unicode="&#x145;" horiz-adv-x="828" d="M389 -233 L413 -138 Q414 -131 409 -128 L379 -113 L394 -65 Q432 -70 451.5 -79.5 Q471 -89 471 -118 Q471 -129 464.5 -143 Q458 -157 453 -168 L413 -242 L389 -233 Z M612 0 L204 674 L204 63 Q204 51 206.5 48 Q209 45 220 43 L287 35 L287 0 L77 0 L77 35 L140 42 Q151 44 153.5 47.5 Q156 51 156 62 L156 661 Q156 672 153.5 675.5 Q151 679 140 681 L77 688 L77 724 L233 724 L629 62 L629 662 Q629 673 626.5 676.5 Q624 680 613 682 L550 689 L550 724 L760 724 L760 689 L693 681 Q682 679 679.5 676 Q677 673 677 662 L677 0 L612 0 Z " />
<glyph glyph-name="Ntilde" unicode="&#xd1;" horiz-adv-x="828" d="M572 821 Q554 797 535.5 787.5 Q517 778 488 785 L355 820 Q345 823 339 817 L296 775 L268 796 L292 830 Q309 852 326 860 Q343 868 372 861 L507 825 Q517 822 523 828 L564 869 L592 850 L572 821 Z M612 0 L204 674 L204 63 Q204 51 206.5 48 Q209 45 220 43 L287 35 L287 0 L77 0 L77 35 L140 42 Q151 44 153.5 47.5 Q156 51 156 62 L156 661 Q156 672 153.5 675.5 Q151 679 140 681 L77 688 L77 724 L233 724 L629 62 L629 662 Q629 673 626.5 676.5 Q624 680 613 682 L550 689 L550 724 L760 724 L760 689 L693 681 Q682 679 679.5 676 Q677 673 677 662 L677 0 L612 0 Z " />
<glyph glyph-name="Oacute" unicode="&#xd3;" horiz-adv-x="787" d="M333 765 L312 792 L488 925 L525 875 L333 765 Z M391 -12 Q307 -12 245 16 Q183 44 142.5 94 Q102 144 82 212 Q62 280 62 360 Q62 442 84 511.5 Q106 581 149.5 631 Q193 681 257 709 Q321 737 405 737 Q487 737 548 709.5 Q609 682 649.5 633.5 Q690 585 709.5 519.5 Q729 454 729 379 Q729 290 707.5 218 Q686 146 643.5 95 Q601 44 537.5 16 Q474 -12 391 -12 Z M394 31 Q458 31 510.5 52.5 Q563 74 600.5 116.5 Q638 159 658.5 222 Q679 285 679 369 Q679 447 659.5 507.5 Q640 568 604 609.5 Q568 651 517 672.5 Q466 694 403 694 Q339 694 286 672 Q233 650 194.5 607.5 Q156 565 135 503 Q114 441 114 360 Q114 282 133.5 221 Q153 160 189 117.5 Q225 75 277 53 Q329 31 394 31 Z " />
<glyph glyph-name="Obreve" unicode="&#x14e;" horiz-adv-x="787" d="M549 889 Q543 871 533.5 852 Q524 833 507.5 817.5 Q491 802 465.5 791.5 Q440 781 403 781 Q366 781 340.5 789.5 Q315 798 298 813 Q281 828 271.5 847.5 Q262 867 257 889 L300 903 Q307 884 314.5 869.5 Q322 855 333.5 845 Q345 835 362 829.5 Q379 824 406 824 Q433 824 450.5 831.5 Q468 839 479 850.5 Q490 862 497 876 Q504 890 509 903 L549 889 Z M391 -12 Q307 -12 245 16 Q183 44 142.5 94 Q102 144 82 212 Q62 280 62 360 Q62 442 84 511.5 Q106 581 149.5 631 Q193 681 257 709 Q321 737 405 737 Q487 737 548 709.5 Q609 682 649.5 633.5 Q690 585 709.5 519.5 Q729 454 729 379 Q729 290 707.5 218 Q686 146 643.5 95 Q601 44 537.5 16 Q474 -12 391 -12 Z M394 31 Q458 31 510.5 52.5 Q563 74 600.5 116.5 Q638 159 658.5 222 Q679 285 679 369 Q679 447 659.5 507.5 Q640 568 604 609.5 Q568 651 517 672.5 Q466 694 403 694 Q339 694 286 672 Q233 650 194.5 607.5 Q156 565 135 503 Q114 441 114 360 Q114 282 133.5 221 Q153 160 189 117.5 Q225 75 277 53 Q329 31 394 31 Z " />
<glyph glyph-name="Ocircumflex" unicode="&#xd4;" horiz-adv-x="787" d="M391 -12 Q307 -12 245 16 Q183 44 142.5 94 Q102 144 82 212 Q62 280 62 360 Q62 442 84 511.5 Q106 581 149.5 631 Q193 681 257 709 Q321 737 405 737 Q487 737 548 709.5 Q609 682 649.5 633.5 Q690 585 709.5 519.5 Q729 454 729 379 Q729 290 707.5 218 Q686 146 643.5 95 Q601 44 537.5 16 Q474 -12 391 -12 Z M394 31 Q458 31 510.5 52.5 Q563 74 600.5 116.5 Q638 159 658.5 222 Q679 285 679 369 Q679 447 659.5 507.5 Q640 568 604 609.5 Q568 651 517 672.5 Q466 694 403 694 Q339 694 286 672 Q233 650 194.5 607.5 Q156 565 135 503 Q114 441 114 360 Q114 282 133.5 221 Q153 160 189 117.5 Q225 75 277 53 Q329 31 394 31 Z M403 850 L281 767 L253 793 L368 889 L438 889 L552 795 L523 768 L403 850 Z " />
<glyph glyph-name="Odieresis" unicode="&#xd6;" horiz-adv-x="787" d="M351 825 Q351 805 338.5 793 Q326 781 305 781 Q285 781 272.5 793 Q260 805 260 825 Q260 845 272.5 857 Q285 869 305 869 Q326 869 338.5 857 Q351 845 351 825 Z M548 825 Q548 805 535 793 Q522 781 502 781 Q482 781 469.5 793 Q457 805 457 825 Q457 845 469.5 857 Q482 869 502 869 Q522 869 535 857 Q548 845 548 825 Z M391 -12 Q307 -12 245 16 Q183 44 142.5 94 Q102 144 82 212 Q62 280 62 360 Q62 442 84 511.5 Q106 581 149.5 631 Q193 681 257 709 Q321 737 405 737 Q487 737 548 709.5 Q609 682 649.5 633.5 Q690 585 709.5 519.5 Q729 454 729 379 Q729 290 707.5 218 Q686 146 643.5 95 Q601 44 537.5 16 Q474 -12 391 -12 Z M394 31 Q458 31 510.5 52.5 Q563 74 600.5 116.5 Q638 159 658.5 222 Q679 285 679 369 Q679 447 659.5 507.5 Q640 568 604 609.5 Q568 651 517 672.5 Q466 694 403 694 Q339 694 286 672 Q233 650 194.5 607.5 Q156 565 135 503 Q114 441 114 360 Q114 282 133.5 221 Q153 160 189 117.5 Q225 75 277 53 Q329 31 394 31 Z " />
<glyph glyph-name="Ograve" unicode="&#xd2;" horiz-adv-x="787" d="M282 873 L319 924 L494 790 L474 764 L282 873 Z M391 -12 Q307 -12 245 16 Q183 44 142.5 94 Q102 144 82 212 Q62 280 62 360 Q62 442 84 511.5 Q106 581 149.5 631 Q193 681 257 709 Q321 737 405 737 Q487 737 548 709.5 Q609 682 649.5 633.5 Q690 585 709.5 519.5 Q729 454 729 379 Q729 290 707.5 218 Q686 146 643.5 95 Q601 44 537.5 16 Q474 -12 391 -12 Z M394 31 Q458 31 510.5 52.5 Q563 74 600.5 116.5 Q638 159 658.5 222 Q679 285 679 369 Q679 447 659.5 507.5 Q640 568 604 609.5 Q568 651 517 672.5 Q466 694 403 694 Q339 694 286 672 Q233 650 194.5 607.5 Q156 565 135 503 Q114 441 114 360 Q114 282 133.5 221 Q153 160 189 117.5 Q225 75 277 53 Q329 31 394 31 Z " />
<glyph glyph-name="Ohungarumlaut" unicode="&#x150;" horiz-adv-x="787" d="M391 -12 Q307 -12 245 16 Q183 44 142.5 94 Q102 144 82 212 Q62 280 62 360 Q62 442 84 511.5 Q106 581 149.5 631 Q193 681 257 709 Q321 737 405 737 Q487 737 548 709.5 Q609 682 649.5 633.5 Q690 585 709.5 519.5 Q729 454 729 379 Q729 290 707.5 218 Q686 146 643.5 95 Q601 44 537.5 16 Q474 -12 391 -12 Z M394 31 Q458 31 510.5 52.5 Q563 74 600.5 116.5 Q638 159 658.5 222 Q679 285 679 369 Q679 447 659.5 507.5 Q640 568 604 609.5 Q568 651 517 672.5 Q466 694 403 694 Q339 694 286 672 Q233 650 194.5 607.5 Q156 565 135 503 Q114 441 114 360 Q114 282 133.5 221 Q153 160 189 117.5 Q225 75 277 53 Q329 31 394 31 Z M309 764 L286 790 L434 955 L479 907 L309 764 Z M468 761 L443 790 L599 947 L642 898 L468 761 Z " />
<glyph glyph-name="Omacron" unicode="&#x14c;" horiz-adv-x="787" d="M253 799 L253 845 L554 845 L554 799 L253 799 Z M391 -12 Q307 -12 245 16 Q183 44 142.5 94 Q102 144 82 212 Q62 280 62 360 Q62 442 84 511.5 Q106 581 149.5 631 Q193 681 257 709 Q321 737 405 737 Q487 737 548 709.5 Q609 682 649.5 633.5 Q690 585 709.5 519.5 Q729 454 729 379 Q729 290 707.5 218 Q686 146 643.5 95 Q601 44 537.5 16 Q474 -12 391 -12 Z M394 31 Q458 31 510.5 52.5 Q563 74 600.5 116.5 Q638 159 658.5 222 Q679 285 679 369 Q679 447 659.5 507.5 Q640 568 604 609.5 Q568 651 517 672.5 Q466 694 403 694 Q339 694 286 672 Q233 650 194.5 607.5 Q156 565 135 503 Q114 441 114 360 Q114 282 133.5 221 Q153 160 189 117.5 Q225 75 277 53 Q329 31 394 31 Z " />
<glyph glyph-name="Oslash" unicode="&#xd8;" horiz-adv-x="787" d="M179 -78 L223 27 Q140 72 101 161.5 Q62 251 62 370 Q62 449 84 516 Q106 583 149.5 632 Q193 681 257 709 Q321 737 405 737 Q467 737 514 721 L542 789 L595 789 L560 704 Q602 683 633 650 Q664 617 684.5 575 Q705 533 715 483.5 Q725 434 725 379 Q725 290 704 218 Q683 146 641 95 Q599 44 536.5 16 Q474 -12 391 -12 Q356 -12 325.5 -7 Q295 -2 268 6 L233 -78 L179 -78 Z M394 31 Q458 31 509.5 52.5 Q561 74 598 116.5 Q635 159 655 222 Q675 285 675 369 Q675 477 640 551.5 Q605 626 541 663 L286 49 Q312 39 338.5 35 Q365 31 394 31 Z M114 368 Q114 259 148.5 185 Q183 111 243 72 L495 679 Q454 694 403 694 Q339 694 286 672 Q233 650 194.5 608.5 Q156 567 135 506.5 Q114 446 114 368 Z " />
<glyph glyph-name="Oslashacute" unicode="&#x1fe;" horiz-adv-x="787" d="M231 -92 L264 8 Q213 27 175 60.5 Q137 94 112 139.5 Q87 185 74.5 241 Q62 297 62 360 Q62 442 84 511.5 Q106 581 149.5 631 Q193 681 257 709 Q321 737 405 737 Q431 737 455 733.5 Q479 730 502 725 L512 755 L556 755 L541 712 Q589 692 624 659.5 Q659 627 682.5 583.5 Q706 540 717.5 488 Q729 436 729 379 Q729 290 707.5 218 Q686 146 643.5 95 Q601 44 537.5 16 Q474 -12 391 -12 Q345 -12 305 -3 L276 -92 L231 -92 Z M114 360 Q114 242 157 163 Q200 84 279 52 L488 682 Q449 694 403 694 Q339 694 286 672 Q233 650 194.5 607.5 Q156 565 135 503 Q114 441 114 360 Z M394 31 Q458 31 510.5 52.5 Q563 74 600.5 116.5 Q638 159 658.5 222 Q679 285 679 369 Q679 482 639 557.5 Q599 633 527 668 L319 39 Q336 34 355 32.5 Q374 31 394 31 Z M362 766 L341 793 L517 926 L554 876 L362 766 Z " />
<glyph glyph-name="Otilde" unicode="&#xd5;" horiz-adv-x="787" d="M546 820 Q528 796 509.5 786.5 Q491 777 462 784 L329 819 Q319 822 313 816 L270 774 L242 795 L266 829 Q283 851 300 859 Q317 867 346 860 L481 824 Q491 821 497 827 L538 868 L566 849 L546 820 Z M391 -12 Q307 -12 245 16 Q183 44 142.5 94 Q102 144 82 212 Q62 280 62 360 Q62 442 84 511.5 Q106 581 149.5 631 Q193 681 257 709 Q321 737 405 737 Q487 737 548 709.5 Q609 682 649.5 633.5 Q690 585 709.5 519.5 Q729 454 729 379 Q729 290 707.5 218 Q686 146 643.5 95 Q601 44 537.5 16 Q474 -12 391 -12 Z M394 31 Q458 31 510.5 52.5 Q563 74 600.5 116.5 Q638 159 658.5 222 Q679 285 679 369 Q679 447 659.5 507.5 Q640 568 604 609.5 Q568 651 517 672.5 Q466 694 403 694 Q339 694 286 672 Q233 650 194.5 607.5 Q156 565 135 503 Q114 441 114 360 Q114 282 133.5 221 Q153 160 189 117.5 Q225 75 277 53 Q329 31 394 31 Z " />
<glyph glyph-name="Racute" unicode="&#x154;" horiz-adv-x="696" d="M436 0 L436 37 L524 47 L435 258 Q420 293 400.5 307 Q381 321 351 321 L203 321 L203 63 Q203 51 205.5 48 Q208 45 219 43 L289 35 L289 0 L77 0 L77 35 L140 42 Q151 44 153.5 47.5 Q156 51 156 62 L156 663 Q156 674 153.5 678 Q151 682 140 683 L77 690 L77 724 L358 724 Q425 724 468 707 Q511 690 536 663.5 Q561 637 570 603.5 Q579 570 579 537 Q579 453 536 403.5 Q493 354 426 337 Q452 325 464 304.5 Q476 284 491 248 L569 63 Q571 60 575.5 55.5 Q580 51 588 49 L660 36 L660 0 L436 0 Z M326 362 Q368 362 405 370.5 Q442 379 469.5 398.5 Q497 418 512.5 451 Q528 484 528 532 Q528 577 513.5 606.5 Q499 636 474.5 653 Q450 670 416 676.5 Q382 683 343 683 L203 683 L203 362 L326 362 Z M259 766 L238 793 L414 926 L451 876 L259 766 Z " />
<glyph glyph-name="Rcaron" unicode="&#x158;" horiz-adv-x="696" d="M344 775 L277 775 L162 872 L191 898 L312 814 L430 898 L457 872 L344 775 Z M436 0 L436 37 L524 47 L435 258 Q420 293 400.5 307 Q381 321 351 321 L203 321 L203 63 Q203 51 205.5 48 Q208 45 219 43 L289 35 L289 0 L77 0 L77 35 L140 42 Q151 44 153.5 47.5 Q156 51 156 62 L156 663 Q156 674 153.5 678 Q151 682 140 683 L77 690 L77 724 L358 724 Q425 724 468 707 Q511 690 536 663.5 Q561 637 570 603.5 Q579 570 579 537 Q579 453 536 403.5 Q493 354 426 337 Q452 325 464 304.5 Q476 284 491 248 L569 63 Q571 60 575.5 55.5 Q580 51 588 49 L660 36 L660 0 L436 0 Z M326 362 Q368 362 405 370.5 Q442 379 469.5 398.5 Q497 418 512.5 451 Q528 484 528 532 Q528 577 513.5 606.5 Q499 636 474.5 653 Q450 670 416 676.5 Q382 683 343 683 L203 683 L203 362 L326 362 Z " />
<glyph glyph-name="Rcommaaccent" unicode="&#x156;" horiz-adv-x="696" d="M436 0 L436 37 L524 47 L435 258 Q420 293 400.5 307 Q381 321 351 321 L203 321 L203 63 Q203 51 205.5 48 Q208 45 219 43 L289 35 L289 0 L77 0 L77 35 L140 42 Q151 44 153.5 47.5 Q156 51 156 62 L156 663 Q156 674 153.5 678 Q151 682 140 683 L77 690 L77 724 L358 724 Q425 724 468 707 Q511 690 536 663.5 Q561 637 570 603.5 Q579 570 579 537 Q579 453 536 403.5 Q493 354 426 337 Q452 325 464 304.5 Q476 284 491 248 L569 63 Q571 60 575.5 55.5 Q580 51 588 49 L660 36 L660 0 L436 0 Z M326 362 Q368 362 405 370.5 Q442 379 469.5 398.5 Q497 418 512.5 451 Q528 484 528 532 Q528 577 513.5 606.5 Q499 636 474.5 653 Q450 670 416 676.5 Q382 683 343 683 L203 683 L203 362 L326 362 Z M318 -233 L342 -138 Q343 -131 338 -128 L308 -113 L323 -65 Q361 -70 380.5 -79.5 Q400 -89 400 -118 Q400 -129 393.5 -143 Q387 -157 382 -168 L342 -242 L318 -233 Z " />
<glyph glyph-name="Sacute" unicode="&#x15a;" horiz-adv-x="579" d="M456 559 L435 657 Q433 663 431.5 667.5 Q430 672 424 675 Q414 680 390.5 686.5 Q367 693 317 693 Q223 693 179 654.5 Q135 616 135 551 Q135 507 153.5 480 Q172 453 202 435 Q232 417 270 405.5 Q308 394 347 381 Q380 370 410 355.5 Q440 341 463.5 318.5 Q487 296 500.5 264 Q514 232 514 186 Q514 130 493.5 92.5 Q473 55 438.5 31.5 Q404 8 358 -2 Q312 -12 261 -12 Q226 -12 194.5 -8 Q163 -4 137 1.5 Q111 7 92 13 Q73 19 63 24 L63 164 L97 164 L116 76 Q118 66 119.5 62 Q121 58 130 54 Q143 49 177.5 40.5 Q212 32 266 32 Q354 32 407 69 Q460 106 460 185 Q460 231 441 260 Q422 289 391 307.5 Q360 326 321.5 338 Q283 350 244 363 Q211 373 181.5 387.5 Q152 402 129.5 423 Q107 444 94 474.5 Q81 505 81 548 Q81 599 100 634.5 Q119 670 151.5 693 Q184 716 227.5 726.5 Q271 737 321 737 Q384 737 428.5 725.5 Q473 714 493 707 L493 554 L456 559 Z M233 766 L212 793 L388 926 L425 876 L233 766 Z " />
<glyph glyph-name="Scaron" unicode="&#x160;" horiz-adv-x="579" d="M456 559 L435 657 Q433 663 431.5 667.5 Q430 672 424 675 Q414 680 390.5 686.5 Q367 693 317 693 Q223 693 179 654.5 Q135 616 135 551 Q135 507 153.5 480 Q172 453 202 435 Q232 417 270 405.5 Q308 394 347 381 Q380 370 410 355.5 Q440 341 463.5 318.5 Q487 296 500.5 264 Q514 232 514 186 Q514 130 493.5 92.5 Q473 55 438.5 31.5 Q404 8 358 -2 Q312 -12 261 -12 Q226 -12 194.5 -8 Q163 -4 137 1.5 Q111 7 92 13 Q73 19 63 24 L63 164 L97 164 L116 76 Q118 66 119.5 62 Q121 58 130 54 Q143 49 177.5 40.5 Q212 32 266 32 Q354 32 407 69 Q460 106 460 185 Q460 231 441 260 Q422 289 391 307.5 Q360 326 321.5 338 Q283 350 244 363 Q211 373 181.5 387.5 Q152 402 129.5 423 Q107 444 94 474.5 Q81 505 81 548 Q81 599 100 634.5 Q119 670 151.5 693 Q184 716 227.5 726.5 Q271 737 321 737 Q384 737 428.5 725.5 Q473 714 493 707 L493 554 L456 559 Z M338 775 L271 775 L156 872 L185 898 L306 814 L424 898 L451 872 L338 775 Z " />
<glyph glyph-name="Scedilla" unicode="&#x15e;" horiz-adv-x="579" d="M211 -178 Q226 -181 246 -181 Q324 -181 324 -125 Q324 -104 309.5 -90 Q295 -76 249 -75 L258 -12 Q223 -12 192 -8 Q161 -4 135.5 1.5 Q110 7 91 13 Q72 19 63 24 L63 164 L97 164 L116 76 Q118 66 119.5 62 Q121 58 130 54 Q143 49 177.5 40.5 Q212 32 266 32 Q354 32 407 69 Q460 106 460 185 Q460 231 441 260 Q422 289 391 307.5 Q360 326 321.5 338 Q283 350 244 363 Q211 373 181.5 387.5 Q152 402 129.5 423 Q107 444 94 474.5 Q81 505 81 548 Q81 599 100 634.5 Q119 670 151.5 693 Q184 716 227.5 726.5 Q271 737 321 737 Q384 737 428.5 725.5 Q473 714 493 707 L493 554 L456 559 L435 657 Q433 663 431.5 667.5 Q430 672 424 675 Q414 680 390.5 686.5 Q367 693 317 693 Q223 693 179 654.5 Q135 616 135 551 Q135 507 153.5 480 Q172 453 202 435 Q232 417 270 405.5 Q308 394 347 381 Q380 370 410 355.5 Q440 341 463.5 318.5 Q487 296 500.5 264 Q514 232 514 186 Q514 136 497 100 Q480 64 451 41 Q422 18 383 5.5 Q344 -7 299 -10 L295 -42 Q331 -50 352 -69.5 Q373 -89 373 -123 Q373 -139 367 -156.5 Q361 -174 346.5 -188 Q332 -202 308.5 -211.5 Q285 -221 250 -221 Q228 -221 205 -217 L211 -178 Z " />
<glyph glyph-name="Scircumflex" unicode="&#x15c;" horiz-adv-x="579" d="M456 559 L435 657 Q433 663 431.5 667.5 Q430 672 424 675 Q414 680 390.5 686.5 Q367 693 317 693 Q223 693 179 654.5 Q135 616 135 551 Q135 507 153.5 480 Q172 453 202 435 Q232 417 270 405.5 Q308 394 347 381 Q380 370 410 355.5 Q440 341 463.5 318.5 Q487 296 500.5 264 Q514 232 514 186 Q514 130 493.5 92.5 Q473 55 438.5 31.5 Q404 8 358 -2 Q312 -12 261 -12 Q226 -12 194.5 -8 Q163 -4 137 1.5 Q111 7 92 13 Q73 19 63 24 L63 164 L97 164 L116 76 Q118 66 119.5 62 Q121 58 130 54 Q143 49 177.5 40.5 Q212 32 266 32 Q354 32 407 69 Q460 106 460 185 Q460 231 441 260 Q422 289 391 307.5 Q360 326 321.5 338 Q283 350 244 363 Q211 373 181.5 387.5 Q152 402 129.5 423 Q107 444 94 474.5 Q81 505 81 548 Q81 599 100 634.5 Q119 670 151.5 693 Q184 716 227.5 726.5 Q271 737 321 737 Q384 737 428.5 725.5 Q473 714 493 707 L493 554 L456 559 Z M314 851 L192 768 L164 794 L279 890 L349 890 L463 796 L434 769 L314 851 Z " />
<glyph glyph-name="Scommaaccent" unicode="&#x218;" horiz-adv-x="579" d="M456 559 L435 657 Q433 663 431.5 667.5 Q430 672 424 675 Q414 680 390.5 686.5 Q367 693 317 693 Q223 693 179 654.5 Q135 616 135 551 Q135 507 153.5 480 Q172 453 202 435 Q232 417 270 405.5 Q308 394 347 381 Q380 370 410 355.5 Q440 341 463.5 318.5 Q487 296 500.5 264 Q514 232 514 186 Q514 130 493.5 92.5 Q473 55 438.5 31.5 Q404 8 358 -2 Q312 -12 261 -12 Q226 -12 194.5 -8 Q163 -4 137 1.5 Q111 7 92 13 Q73 19 63 24 L63 164 L97 164 L116 76 Q118 66 119.5 62 Q121 58 130 54 Q143 49 177.5 40.5 Q212 32 266 32 Q354 32 407 69 Q460 106 460 185 Q460 231 441 260 Q422 289 391 307.5 Q360 326 321.5 338 Q283 350 244 363 Q211 373 181.5 387.5 Q152 402 129.5 423 Q107 444 94 474.5 Q81 505 81 548 Q81 599 100 634.5 Q119 670 151.5 693 Q184 716 227.5 726.5 Q271 737 321 737 Q384 737 428.5 725.5 Q473 714 493 707 L493 554 L456 559 Z M243 -233 L267 -138 Q268 -131 263 -128 L233 -113 L248 -65 Q286 -70 305.5 -79.5 Q325 -89 325 -118 Q325 -129 318.5 -143 Q312 -157 307 -168 L267 -242 L243 -233 Z " />
<glyph glyph-name="Tbar" unicode="&#x166;" horiz-adv-x="630" d="M172 0 L172 36 L275 43 Q286 44 288.5 48 Q291 52 291 63 L291 348 L153 348 L153 390 L291 390 L291 683 L101 683 Q93 683 90 681.5 Q87 680 85 672 L69 583 L32 583 L32 724 L600 724 L600 583 L563 583 L547 672 Q545 680 542 681.5 Q539 683 531 683 L339 683 L339 390 L480 390 L480 348 L339 348 L339 63 Q339 52 341.5 48.5 Q344 45 355 44 L465 36 L465 0 L172 0 Z " />
<glyph glyph-name="Tcaron" unicode="&#x164;" horiz-adv-x="629" d="M348 775 L281 775 L166 872 L195 898 L316 814 L434 898 L461 872 L348 775 Z M170 0 L170 36 L273 43 Q284 44 286.5 48 Q289 52 289 63 L289 683 L100 683 Q92 683 89 681.5 Q86 680 84 672 L68 583 L30 580 L30 724 L598 724 L598 580 L561 583 L545 672 Q543 680 540 681.5 Q537 683 529 683 L337 683 L337 63 Q337 52 339.5 48.5 Q342 45 353 44 L463 36 L463 0 L170 0 Z " />
<glyph glyph-name="uni0162" unicode="&#x162;" horiz-adv-x="630" d="M243 -178 Q258 -181 278 -181 Q356 -181 356 -125 Q356 -104 341.5 -90 Q327 -76 281 -75 L291 0 L172 0 L172 36 L275 43 Q286 44 288.5 48 Q291 52 291 63 L291 683 L101 683 Q93 683 90 681.5 Q87 680 85 672 L69 583 L32 583 L32 724 L600 724 L600 583 L563 583 L547 672 Q545 680 542 681.5 Q539 683 531 683 L339 683 L339 63 Q339 52 341.5 48.5 Q344 45 355 44 L465 36 L465 0 L332 0 L327 -42 Q363 -50 384 -69.5 Q405 -89 405 -123 Q405 -139 399 -156.5 Q393 -174 378.5 -188 Q364 -202 340.5 -211.5 Q317 -221 282 -221 Q260 -221 237 -217 L243 -178 Z " />
<glyph glyph-name="uni021A" unicode="&#x21a;" horiz-adv-x="629" d="M170 0 L170 36 L273 43 Q284 44 286.5 48 Q289 52 289 63 L289 683 L100 683 Q92 683 89 681.5 Q86 680 84 672 L68 583 L30 580 L30 724 L598 724 L598 580 L561 583 L545 672 Q543 680 540 681.5 Q537 683 529 683 L337 683 L337 63 Q337 52 339.5 48.5 Q342 45 353 44 L463 36 L463 0 L170 0 Z M271 -233 L295 -138 Q296 -131 291 -128 L261 -113 L276 -65 Q314 -70 333.5 -79.5 Q353 -89 353 -118 Q353 -129 346.5 -143 Q340 -157 335 -168 L295 -242 L271 -233 Z " />
<glyph glyph-name="Uacute" unicode="&#xda;" horiz-adv-x="790" d="M347 766 L326 793 L502 926 L539 876 L347 766 Z M595 662 Q595 673 592.5 677 Q590 681 579 682 L516 689 L516 724 L726 724 L726 689 L659 681 Q648 679 645.5 676 Q643 673 643 662 L643 229 Q643 108 579 48 Q515 -12 388 -12 Q322 -12 276.5 4 Q231 20 202 51 Q173 82 160 127 Q147 172 147 229 L147 662 Q147 673 144.5 677 Q142 681 131 682 L68 689 L68 724 L278 724 L278 689 L211 681 Q200 679 197.5 676 Q195 673 195 662 L195 227 Q195 171 209 133 Q223 95 249 72 Q275 49 312 39.5 Q349 30 394 30 Q441 30 478 40 Q515 50 541 72.5 Q567 95 581 132.5 Q595 170 595 226 L595 662 Z " />
<glyph glyph-name="Ubreve" unicode="&#x16c;" horiz-adv-x="790" d="M549 890 Q543 872 533.5 853 Q524 834 507.5 818.5 Q491 803 465.5 792.5 Q440 782 403 782 Q366 782 340.5 790.5 Q315 799 298 814 Q281 829 271.5 848.5 Q262 868 257 890 L300 904 Q307 885 314.5 870.5 Q322 856 333.5 846 Q345 836 362 830.5 Q379 825 406 825 Q433 825 450.5 832.5 Q468 840 479 851.5 Q490 863 497 877 Q504 891 509 904 L549 890 Z M595 662 Q595 673 592.5 677 Q590 681 579 682 L516 689 L516 724 L726 724 L726 689 L659 681 Q648 679 645.5 676 Q643 673 643 662 L643 229 Q643 108 579 48 Q515 -12 388 -12 Q322 -12 276.5 4 Q231 20 202 51 Q173 82 160 127 Q147 172 147 229 L147 662 Q147 673 144.5 677 Q142 681 131 682 L68 689 L68 724 L278 724 L278 689 L211 681 Q200 679 197.5 676 Q195 673 195 662 L195 227 Q195 171 209 133 Q223 95 249 72 Q275 49 312 39.5 Q349 30 394 30 Q441 30 478 40 Q515 50 541 72.5 Q567 95 581 132.5 Q595 170 595 226 L595 662 Z " />
<glyph glyph-name="Ucircumflex" unicode="&#xdb;" horiz-adv-x="790" d="M595 662 Q595 673 592.5 677 Q590 681 579 682 L516 689 L516 724 L726 724 L726 689 L659 681 Q648 679 645.5 676 Q643 673 643 662 L643 229 Q643 108 579 48 Q515 -12 388 -12 Q322 -12 276.5 4 Q231 20 202 51 Q173 82 160 127 Q147 172 147 229 L147 662 Q147 673 144.5 677 Q142 681 131 682 L68 689 L68 724 L278 724 L278 689 L211 681 Q200 679 197.5 676 Q195 673 195 662 L195 227 Q195 171 209 133 Q223 95 249 72 Q275 49 312 39.5 Q349 30 394 30 Q441 30 478 40 Q515 50 541 72.5 Q567 95 581 132.5 Q595 170 595 226 L595 662 Z M408 851 L286 768 L258 794 L373 890 L443 890 L557 796 L528 769 L408 851 Z " />
<glyph glyph-name="Udieresis" unicode="&#xdc;" horiz-adv-x="790" d="M346 826 Q346 806 333.5 794 Q321 782 300 782 Q280 782 267.5 794 Q255 806 255 826 Q255 846 267.5 858 Q280 870 300 870 Q321 870 333.5 858 Q346 846 346 826 Z M543 826 Q543 806 530 794 Q517 782 497 782 Q477 782 464.5 794 Q452 806 452 826 Q452 846 464.5 858 Q477 870 497 870 Q517 870 530 858 Q543 846 543 826 Z M595 662 Q595 673 592.5 677 Q590 681 579 682 L516 689 L516 724 L726 724 L726 689 L659 681 Q648 679 645.5 676 Q643 673 643 662 L643 229 Q643 108 579 48 Q515 -12 388 -12 Q322 -12 276.5 4 Q231 20 202 51 Q173 82 160 127 Q147 172 147 229 L147 662 Q147 673 144.5 677 Q142 681 131 682 L68 689 L68 724 L278 724 L278 689 L211 681 Q200 679 197.5 676 Q195 673 195 662 L195 227 Q195 171 209 133 Q223 95 249 72 Q275 49 312 39.5 Q349 30 394 30 Q441 30 478 40 Q515 50 541 72.5 Q567 95 581 132.5 Q595 170 595 226 L595 662 Z " />
<glyph glyph-name="Ugrave" unicode="&#xd9;" horiz-adv-x="790" d="M277 874 L314 925 L489 791 L469 765 L277 874 Z M595 662 Q595 673 592.5 677 Q590 681 579 682 L516 689 L516 724 L726 724 L726 689 L659 681 Q648 679 645.5 676 Q643 673 643 662 L643 229 Q643 108 579 48 Q515 -12 388 -12 Q322 -12 276.5 4 Q231 20 202 51 Q173 82 160 127 Q147 172 147 229 L147 662 Q147 673 144.5 677 Q142 681 131 682 L68 689 L68 724 L278 724 L278 689 L211 681 Q200 679 197.5 676 Q195 673 195 662 L195 227 Q195 171 209 133 Q223 95 249 72 Q275 49 312 39.5 Q349 30 394 30 Q441 30 478 40 Q515 50 541 72.5 Q567 95 581 132.5 Q595 170 595 226 L595 662 Z " />
<glyph glyph-name="Uhungarumlaut" unicode="&#x170;" horiz-adv-x="790" d="M595 662 Q595 673 592.5 677 Q590 681 579 682 L516 689 L516 724 L726 724 L726 689 L659 681 Q648 679 645.5 676 Q643 673 643 662 L643 229 Q643 108 579 48 Q515 -12 388 -12 Q322 -12 276.5 4 Q231 20 202 51 Q173 82 160 127 Q147 172 147 229 L147 662 Q147 673 144.5 677 Q142 681 131 682 L68 689 L68 724 L278 724 L278 689 L211 681 Q200 679 197.5 676 Q195 673 195 662 L195 227 Q195 171 209 133 Q223 95 249 72 Q275 49 312 39.5 Q349 30 394 30 Q441 30 478 40 Q515 50 541 72.5 Q567 95 581 132.5 Q595 170 595 226 L595 662 Z M304 765 L281 791 L429 956 L474 908 L304 765 Z M463 762 L438 791 L594 948 L637 899 L463 762 Z " />
<glyph glyph-name="Umacron" unicode="&#x16a;" horiz-adv-x="790" d="M248 800 L248 846 L549 846 L549 800 L248 800 Z M595 662 Q595 673 592.5 677 Q590 681 579 682 L516 689 L516 724 L726 724 L726 689 L659 681 Q648 679 645.5 676 Q643 673 643 662 L643 229 Q643 108 579 48 Q515 -12 388 -12 Q322 -12 276.5 4 Q231 20 202 51 Q173 82 160 127 Q147 172 147 229 L147 662 Q147 673 144.5 677 Q142 681 131 682 L68 689 L68 724 L278 724 L278 689 L211 681 Q200 679 197.5 676 Q195 673 195 662 L195 227 Q195 171 209 133 Q223 95 249 72 Q275 49 312 39.5 Q349 30 394 30 Q441 30 478 40 Q515 50 541 72.5 Q567 95 581 132.5 Q595 170 595 226 L595 662 Z " />
<glyph glyph-name="Uogonek" unicode="&#x172;" horiz-adv-x="790" d="M534 -189 Q519 -197 499 -202 Q479 -207 459 -207 Q426 -207 403 -190 Q380 -173 380 -135 Q380 -97 404 -64.5 Q428 -32 456 -7 Q440 -9 423 -10.5 Q406 -12 388 -12 Q322 -12 276.5 4 Q231 20 202 51 Q173 82 160 127 Q147 172 147 229 L147 662 Q147 673 144.5 677 Q142 681 131 682 L68 689 L68 724 L278 724 L278 689 L211 681 Q200 679 197.5 676 Q195 673 195 662 L195 227 Q195 171 209 133 Q223 95 249 72 Q275 49 312 39.5 Q349 30 394 30 Q441 30 478 40 Q515 50 541 72.5 Q567 95 581 132.5 Q595 170 595 226 L595 662 Q595 673 592.5 677 Q590 681 579 682 L516 689 L516 724 L726 724 L726 689 L659 681 Q648 679 645.5 676 Q643 673 643 662 L643 229 Q643 151 615.5 99.5 Q588 48 538 16 Q524 7 505.5 -9.5 Q487 -26 470.5 -45.5 Q454 -65 442.5 -86.5 Q431 -108 431 -128 Q431 -145 440.5 -155.5 Q450 -166 468 -166 Q481 -166 496 -162.5 Q511 -159 522 -154 L534 -189 Z " />
<glyph glyph-name="Uring" unicode="&#x16e;" horiz-adv-x="790" d="M595 662 Q595 673 592.5 677 Q590 681 579 682 L516 689 L516 724 L726 724 L726 689 L659 681 Q648 679 645.5 676 Q643 673 643 662 L643 229 Q643 108 579 48 Q515 -12 388 -12 Q322 -12 276.5 4 Q231 20 202 51 Q173 82 160 127 Q147 172 147 229 L147 662 Q147 673 144.5 677 Q142 681 131 682 L68 689 L68 724 L278 724 L278 689 L211 681 Q200 679 197.5 676 Q195 673 195 662 L195 227 Q195 171 209 133 Q223 95 249 72 Q275 49 312 39.5 Q349 30 394 30 Q441 30 478 40 Q515 50 541 72.5 Q567 95 581 132.5 Q595 170 595 226 L595 662 Z M505 841 Q505 799 481 779 Q457 759 413 759 Q371 759 347 778.5 Q323 798 323 840 Q323 882 349 902.5 Q375 923 413 923 Q453 923 479 904.5 Q505 886 505 841 Z M413 797 Q437 797 448.5 809 Q460 821 460 841 Q460 884 413 884 Q393 884 380.5 872.5 Q368 861 368 839 Q368 819 378.5 808 Q389 797 413 797 Z " />
<glyph glyph-name="Utilde" unicode="&#x168;" horiz-adv-x="790" d="M541 821 Q523 797 504.5 787.5 Q486 778 457 785 L324 820 Q314 823 308 817 L265 775 L237 796 L261 830 Q278 852 295 860 Q312 868 341 861 L476 825 Q486 822 492 828 L533 869 L561 850 L541 821 Z M595 662 Q595 673 592.5 677 Q590 681 579 682 L516 689 L516 724 L726 724 L726 689 L659 681 Q648 679 645.5 676 Q643 673 643 662 L643 229 Q643 108 579 48 Q515 -12 388 -12 Q322 -12 276.5 4 Q231 20 202 51 Q173 82 160 127 Q147 172 147 229 L147 662 Q147 673 144.5 677 Q142 681 131 682 L68 689 L68 724 L278 724 L278 689 L211 681 Q200 679 197.5 676 Q195 673 195 662 L195 227 Q195 171 209 133 Q223 95 249 72 Q275 49 312 39.5 Q349 30 394 30 Q441 30 478 40 Q515 50 541 72.5 Q567 95 581 132.5 Q595 170 595 226 L595 662 Z " />
<glyph glyph-name="Wacute" unicode="&#x1e82;" horiz-adv-x="958" d="M409 766 L388 793 L564 926 L601 876 L409 766 Z M638 0 L481 518 L321 0 L270 0 L95 660 Q93 670 89.5 673.5 Q86 677 75 679 L11 689 L21 724 L233 724 L233 689 L141 679 L299 64 L454 569 L512 569 L666 52 L824 679 L730 689 L740 724 L947 724 L947 689 L892 680 Q881 678 878 674.5 Q875 671 872 660 L697 0 L638 0 Z " />
<glyph glyph-name="Wcircumflex" unicode="&#x174;" horiz-adv-x="958" d="M638 0 L481 518 L321 0 L270 0 L95 660 Q93 670 89.5 673.5 Q86 677 75 679 L11 689 L21 724 L233 724 L233 689 L141 679 L299 64 L454 569 L512 569 L666 52 L824 679 L730 689 L740 724 L947 724 L947 689 L892 680 Q881 678 878 674.5 Q875 671 872 660 L697 0 L638 0 Z M488 851 L366 768 L338 794 L453 890 L523 890 L637 796 L608 769 L488 851 Z " />
<glyph glyph-name="Wdieresis" unicode="&#x1e84;" horiz-adv-x="958" d="M427 826 Q427 806 414.5 794 Q402 782 381 782 Q361 782 348.5 794 Q336 806 336 826 Q336 846 348.5 858 Q361 870 381 870 Q402 870 414.5 858 Q427 846 427 826 Z M624 826 Q624 806 611 794 Q598 782 578 782 Q558 782 545.5 794 Q533 806 533 826 Q533 846 545.5 858 Q558 870 578 870 Q598 870 611 858 Q624 846 624 826 Z M638 0 L481 518 L321 0 L270 0 L95 660 Q93 670 89.5 673.5 Q86 677 75 679 L11 689 L21 724 L233 724 L233 689 L141 679 L299 64 L454 569 L512 569 L666 52 L824 679 L730 689 L740 724 L947 724 L947 689 L892 680 Q881 678 878 674.5 Q875 671 872 660 L697 0 L638 0 Z " />
<glyph glyph-name="Wgrave" unicode="&#x1e80;" horiz-adv-x="958" d="M358 874 L395 925 L570 791 L550 765 L358 874 Z M638 0 L481 518 L321 0 L270 0 L95 660 Q93 670 89.5 673.5 Q86 677 75 679 L11 689 L21 724 L233 724 L233 689 L141 679 L299 64 L454 569 L512 569 L666 52 L824 679 L730 689 L740 724 L947 724 L947 689 L892 680 Q881 678 878 674.5 Q875 671 872 660 L697 0 L638 0 Z " />
<glyph glyph-name="Yacute" unicode="&#xdd;" horiz-adv-x="579" d="M162 0 L162 35 L254 42 Q265 43 267.5 47 Q270 51 270 62 L270 287 L68 661 Q61 674 44 678 L-1 689 L9 724 L188 724 L188 689 L115 680 L296 335 L471 680 L401 689 L411 724 L580 724 L580 689 L538 678 Q530 676 524 671.5 Q518 667 513 659 L319 290 L319 63 Q319 51 321.5 48 Q324 45 335 43 L429 35 L429 0 L162 0 Z M254 766 L233 793 L409 926 L446 876 L254 766 Z " />
<glyph glyph-name="Ycircumflex" unicode="&#x176;" horiz-adv-x="579" d="M162 0 L162 35 L254 42 Q265 43 267.5 47 Q270 51 270 62 L270 287 L68 661 Q61 674 44 678 L-1 689 L9 724 L188 724 L188 689 L115 680 L296 335 L471 680 L401 689 L411 724 L580 724 L580 689 L538 678 Q530 676 524 671.5 Q518 667 513 659 L319 290 L319 63 Q319 51 321.5 48 Q324 45 335 43 L429 35 L429 0 L162 0 Z M295 851 L173 768 L145 794 L260 890 L330 890 L444 796 L415 769 L295 851 Z " />
<glyph glyph-name="Ydieresis" unicode="&#x178;" horiz-adv-x="579" d="M162 0 L162 35 L254 42 Q265 43 267.5 47 Q270 51 270 62 L270 287 L68 661 Q61 674 44 678 L-1 689 L9 724 L188 724 L188 689 L115 680 L296 335 L471 680 L401 689 L411 724 L580 724 L580 689 L538 678 Q530 676 524 671.5 Q518 667 513 659 L319 290 L319 63 Q319 51 321.5 48 Q324 45 335 43 L429 35 L429 0 L162 0 Z M243 826 Q243 806 230.5 794 Q218 782 197 782 Q177 782 164.5 794 Q152 806 152 826 Q152 846 164.5 858 Q177 870 197 870 Q218 870 230.5 858 Q243 846 243 826 Z M440 826 Q440 806 427 794 Q414 782 394 782 Q374 782 361.5 794 Q349 806 349 826 Q349 846 361.5 858 Q374 870 394 870 Q414 870 427 858 Q440 846 440 826 Z " />
<glyph glyph-name="Ygrave" unicode="&#x1ef2;" horiz-adv-x="579" d="M162 0 L162 35 L254 42 Q265 43 267.5 47 Q270 51 270 62 L270 287 L68 661 Q61 674 44 678 L-1 689 L9 724 L188 724 L188 689 L115 680 L296 335 L471 680 L401 689 L411 724 L580 724 L580 689 L538 678 Q530 676 524 671.5 Q518 667 513 659 L319 290 L319 63 Q319 51 321.5 48 Q324 45 335 43 L429 35 L429 0 L162 0 Z M188 874 L225 925 L400 791 L380 765 L188 874 Z " />
<glyph glyph-name="Zacute" unicode="&#x179;" horiz-adv-x="625" d="M50 0 L50 33 L496 683 L138 683 Q130 683 127 681.5 Q124 680 122 672 L103 577 L65 574 L65 724 L557 724 L557 689 L113 42 L490 42 Q498 42 501 43.5 Q504 45 506 53 L526 161 L562 161 L562 0 L50 0 Z M236 766 L215 793 L391 926 L428 876 L236 766 Z " />
<glyph glyph-name="Zcaron" unicode="&#x17d;" horiz-adv-x="625" d="M341 775 L274 775 L159 872 L188 898 L309 814 L427 898 L454 872 L341 775 Z M50 0 L50 33 L496 683 L138 683 Q130 683 127 681.5 Q124 680 122 672 L103 577 L65 574 L65 724 L557 724 L557 689 L113 42 L490 42 Q498 42 501 43.5 Q504 45 506 53 L526 161 L562 161 L562 0 L50 0 Z " />
<glyph glyph-name="Zdotaccent" unicode="&#x17b;" horiz-adv-x="625" d="M353 826 Q353 782 307 782 Q285 782 272.5 793.5 Q260 805 260 826 Q260 847 272.5 859 Q285 871 307 871 Q329 871 341 859 Q353 847 353 826 Z M50 0 L50 33 L496 683 L138 683 Q130 683 127 681.5 Q124 680 122 672 L103 577 L65 574 L65 724 L557 724 L557 689 L113 42 L490 42 Q498 42 501 43.5 Q504 45 506 53 L526 161 L562 161 L562 0 L50 0 Z " />
<glyph glyph-name="aacute" unicode="&#xe1;" horiz-adv-x="529" d="M393 0 L384 73 Q341 33 295 10.5 Q249 -12 192 -12 Q145 -12 118 2 Q91 16 77 36.5 Q63 57 59 79 Q55 101 55 118 Q55 193 100.5 226 Q146 259 233 267 L383 280 L383 340 Q383 375 378.5 401 Q374 427 360.5 443.5 Q347 460 323 468 Q299 476 260 476 Q233 476 209.5 474.5 Q186 473 168.5 464.5 Q151 456 140.5 438 Q130 420 130 387 L82 394 Q82 437 100 461.5 Q118 486 144.5 498.5 Q171 511 202 514.5 Q233 518 260 518 Q310 518 343 509.5 Q376 501 396 481 Q416 461 424 427.5 Q432 394 432 344 L432 62 Q432 50 434.5 47 Q437 44 448 42 L501 35 L501 0 L393 0 Z M383 239 L238 226 Q199 223 173.5 214.5 Q148 206 133.5 193.5 Q119 181 113 163.5 Q107 146 107 124 Q107 75 130 52.5 Q153 30 200 30 Q229 30 255.5 38.5 Q282 47 305.5 60.5 Q329 74 348.5 90.5 Q368 107 383 124 L383 239 Z M198 571 L173 597 L328 754 L372 708 L198 571 Z " />
<glyph glyph-name="abreve" unicode="&#x103;" horiz-adv-x="529" d="M393 0 L384 73 Q341 33 295 10.5 Q249 -12 192 -12 Q145 -12 118 2 Q91 16 77 36.5 Q63 57 59 79 Q55 101 55 118 Q55 193 100.5 226 Q146 259 233 267 L383 280 L383 340 Q383 375 378.5 401 Q374 427 360.5 443.5 Q347 460 323 468 Q299 476 260 476 Q233 476 209.5 474.5 Q186 473 168.5 464.5 Q151 456 140.5 438 Q130 420 130 387 L82 394 Q82 437 100 461.5 Q118 486 144.5 498.5 Q171 511 202 514.5 Q233 518 260 518 Q310 518 343 509.5 Q376 501 396 481 Q416 461 424 427.5 Q432 394 432 344 L432 62 Q432 50 434.5 47 Q437 44 448 42 L501 35 L501 0 L393 0 Z M383 239 L238 226 Q199 223 173.5 214.5 Q148 206 133.5 193.5 Q119 181 113 163.5 Q107 146 107 124 Q107 75 130 52.5 Q153 30 200 30 Q229 30 255.5 38.5 Q282 47 305.5 60.5 Q329 74 348.5 90.5 Q368 107 383 124 L383 239 Z M406 704 Q398 676 386.5 652 Q375 628 358 610.5 Q341 593 316.5 583 Q292 573 258 573 Q224 573 199.5 582.5 Q175 592 158 609 Q141 626 130.5 650 Q120 674 114 704 L156 718 Q168 666 190 639.5 Q212 613 259 613 Q283 613 299.5 620.5 Q316 628 328.5 641.5 Q341 655 350 674.5 Q359 694 367 718 L406 704 Z " />
<glyph glyph-name="acircumflex" unicode="&#xe2;" horiz-adv-x="529" d="M393 0 L384 73 Q341 33 295 10.5 Q249 -12 192 -12 Q145 -12 118 2 Q91 16 77 36.5 Q63 57 59 79 Q55 101 55 118 Q55 193 100.5 226 Q146 259 233 267 L383 280 L383 340 Q383 375 378.5 401 Q374 427 360.5 443.5 Q347 460 323 468 Q299 476 260 476 Q233 476 209.5 474.5 Q186 473 168.5 464.5 Q151 456 140.5 438 Q130 420 130 387 L82 394 Q82 437 100 461.5 Q118 486 144.5 498.5 Q171 511 202 514.5 Q233 518 260 518 Q310 518 343 509.5 Q376 501 396 481 Q416 461 424 427.5 Q432 394 432 344 L432 62 Q432 50 434.5 47 Q437 44 448 42 L501 35 L501 0 L393 0 Z M383 239 L238 226 Q199 223 173.5 214.5 Q148 206 133.5 193.5 Q119 181 113 163.5 Q107 146 107 124 Q107 75 130 52.5 Q153 30 200 30 Q229 30 255.5 38.5 Q282 47 305.5 60.5 Q329 74 348.5 90.5 Q368 107 383 124 L383 239 Z M384 581 L260 686 L137 579 L107 605 L225 726 L295 726 L415 606 L384 581 Z " />
<glyph glyph-name="adieresis" unicode="&#xe4;" horiz-adv-x="529" d="M393 0 L384 73 Q341 33 295 10.5 Q249 -12 192 -12 Q145 -12 118 2 Q91 16 77 36.5 Q63 57 59 79 Q55 101 55 118 Q55 193 100.5 226 Q146 259 233 267 L383 280 L383 340 Q383 375 378.5 401 Q374 427 360.5 443.5 Q347 460 323 468 Q299 476 260 476 Q233 476 209.5 474.5 Q186 473 168.5 464.5 Q151 456 140.5 438 Q130 420 130 387 L82 394 Q82 437 100 461.5 Q118 486 144.5 498.5 Q171 511 202 514.5 Q233 518 260 518 Q310 518 343 509.5 Q376 501 396 481 Q416 461 424 427.5 Q432 394 432 344 L432 62 Q432 50 434.5 47 Q437 44 448 42 L501 35 L501 0 L393 0 Z M383 239 L238 226 Q199 223 173.5 214.5 Q148 206 133.5 193.5 Q119 181 113 163.5 Q107 146 107 124 Q107 75 130 52.5 Q153 30 200 30 Q229 30 255.5 38.5 Q282 47 305.5 60.5 Q329 74 348.5 90.5 Q368 107 383 124 L383 239 Z M208 656 Q208 636 195.5 624 Q183 612 162 612 Q142 612 129.5 624 Q117 636 117 656 Q117 676 129.5 688 Q142 700 162 700 Q183 700 195.5 688 Q208 676 208 656 Z M405 656 Q405 636 392 624 Q379 612 359 612 Q339 612 326.5 624 Q314 636 314 656 Q314 676 326.5 688 Q339 700 359 700 Q379 700 392 688 Q405 676 405 656 Z " />
<glyph glyph-name="aeacute" unicode="&#x1fd;" horiz-adv-x="835" d="M773 32 Q748 15 705 1.5 Q662 -12 610 -12 Q537 -12 490.5 13 Q444 38 418 82 Q358 32 304 10 Q250 -12 186 -12 Q142 -12 116 2 Q90 16 76.5 36 Q63 56 59 78 Q55 100 55 116 Q55 154 66.5 180.5 Q78 207 100.5 224.5 Q123 242 156 251.5 Q189 261 233 266 L382 281 L382 340 Q382 375 377.5 400.5 Q373 426 359.5 442.5 Q346 459 322 467 Q298 475 259 475 Q232 475 208.5 473.5 Q185 472 168 463.5 Q151 455 140.5 437.5 Q130 420 130 387 L82 394 Q82 437 100 461.5 Q118 486 144.5 498.5 Q171 511 202 514.5 Q233 518 260 518 Q332 518 369.5 499 Q407 480 422 433 Q486 518 601 518 Q641 518 676.5 505 Q712 492 738 464 Q764 436 779 391 Q794 346 794 282 Q794 274 793.5 266 Q793 258 792 248 L432 248 Q433 203 443 163.5 Q453 124 474.5 95 Q496 66 529.5 49.5 Q563 33 612 33 Q637 33 656 35.5 Q675 38 691.5 42.5 Q708 47 722.5 54.5 Q737 62 754 71 L773 32 Z M238 223 Q199 219 173.5 211 Q148 203 133 191 Q118 179 112.5 161.5 Q107 144 107 121 Q107 73 130 51 Q153 29 196 29 Q223 29 253.5 37.5 Q284 46 311.5 59.5 Q339 73 362 91 Q385 109 399 128 Q392 151 388 180 Q384 209 382 238 L238 223 Z M742 293 Q741 343 729 377 Q717 411 697.5 432 Q678 453 652.5 462.5 Q627 472 599 472 Q566 472 537.5 463 Q509 454 487 433 Q465 412 450.5 378 Q436 344 432 293 L742 293 Z M410 571 L385 597 L540 754 L584 708 L410 571 Z " />
<glyph glyph-name="agrave" unicode="&#xe0;" horiz-adv-x="529" d="M393 0 L384 73 Q341 33 295 10.5 Q249 -12 192 -12 Q145 -12 118 2 Q91 16 77 36.5 Q63 57 59 79 Q55 101 55 118 Q55 193 100.5 226 Q146 259 233 267 L383 280 L383 340 Q383 375 378.5 401 Q374 427 360.5 443.5 Q347 460 323 468 Q299 476 260 476 Q233 476 209.5 474.5 Q186 473 168.5 464.5 Q151 456 140.5 438 Q130 420 130 387 L82 394 Q82 437 100 461.5 Q118 486 144.5 498.5 Q171 511 202 514.5 Q233 518 260 518 Q310 518 343 509.5 Q376 501 396 481 Q416 461 424 427.5 Q432 394 432 344 L432 62 Q432 50 434.5 47 Q437 44 448 42 L501 35 L501 0 L393 0 Z M383 239 L238 226 Q199 223 173.5 214.5 Q148 206 133.5 193.5 Q119 181 113 163.5 Q107 146 107 124 Q107 75 130 52.5 Q153 30 200 30 Q229 30 255.5 38.5 Q282 47 305.5 60.5 Q329 74 348.5 90.5 Q368 107 383 124 L383 239 Z M329 571 L155 708 L198 753 L354 596 L329 571 Z " />
<glyph glyph-name="amacron" unicode="&#x101;" horiz-adv-x="529" d="M393 0 L384 73 Q341 33 295 10.5 Q249 -12 192 -12 Q145 -12 118 2 Q91 16 77 36.5 Q63 57 59 79 Q55 101 55 118 Q55 193 100.5 226 Q146 259 233 267 L383 280 L383 340 Q383 375 378.5 401 Q374 427 360.5 443.5 Q347 460 323 468 Q299 476 260 476 Q233 476 209.5 474.5 Q186 473 168.5 464.5 Q151 456 140.5 438 Q130 420 130 387 L82 394 Q82 437 100 461.5 Q118 486 144.5 498.5 Q171 511 202 514.5 Q233 518 260 518 Q310 518 343 509.5 Q376 501 396 481 Q416 461 424 427.5 Q432 394 432 344 L432 62 Q432 50 434.5 47 Q437 44 448 42 L501 35 L501 0 L393 0 Z M383 239 L238 226 Q199 223 173.5 214.5 Q148 206 133.5 193.5 Q119 181 113 163.5 Q107 146 107 124 Q107 75 130 52.5 Q153 30 200 30 Q229 30 255.5 38.5 Q282 47 305.5 60.5 Q329 74 348.5 90.5 Q368 107 383 124 L383 239 Z M110 620 L110 667 L411 667 L411 620 L110 620 Z " />
<glyph glyph-name="aogonek" unicode="&#x105;" horiz-adv-x="529" d="M500 -189 Q485 -197 465 -202 Q445 -207 425 -207 Q392 -207 369 -190 Q346 -173 346 -135 Q346 -94 373.5 -60 Q401 -26 439 0 L393 0 L384 73 Q341 33 295 10.5 Q249 -12 192 -12 Q145 -12 118 2 Q91 16 77 36.5 Q63 57 59 79 Q55 101 55 118 Q55 193 100.5 226 Q146 259 233 267 L383 280 L383 340 Q383 375 378.5 401 Q374 427 360.5 443.5 Q347 460 323 468 Q299 476 260 476 Q233 476 209.5 474.5 Q186 473 168.5 464.5 Q151 456 140.5 438 Q130 420 130 387 L82 394 Q82 437 100 461.5 Q118 486 144.5 498.5 Q171 511 202 514.5 Q233 518 260 518 Q310 518 343 509.5 Q376 501 396 481 Q416 461 424 427.5 Q432 394 432 344 L432 62 Q432 50 434.5 47 Q437 44 448 42 L501 35 L501 0 Q481 -11 462 -25 Q443 -39 428.5 -54.5 Q414 -70 405.5 -88 Q397 -106 397 -124 Q397 -166 434 -166 Q447 -166 462 -162.5 Q477 -159 488 -154 L500 -189 Z M383 239 L238 226 Q199 223 173.5 214.5 Q148 206 133.5 193.5 Q119 181 113 163.5 Q107 146 107 124 Q107 75 130 52.5 Q153 30 200 30 Q229 30 255.5 38.5 Q282 47 305.5 60.5 Q329 74 348.5 90.5 Q368 107 383 124 L383 239 Z " />
<glyph glyph-name="aring" unicode="&#xe5;" horiz-adv-x="529" d="M393 0 L384 73 Q341 33 295 10.5 Q249 -12 192 -12 Q145 -12 118 2 Q91 16 77 36.5 Q63 57 59 79 Q55 101 55 118 Q55 193 100.5 226 Q146 259 233 267 L383 280 L383 340 Q383 375 378.5 401 Q374 427 360.5 443.5 Q347 460 323 468 Q299 476 260 476 Q233 476 209.5 474.5 Q186 473 168.5 464.5 Q151 456 140.5 438 Q130 420 130 387 L82 394 Q82 437 100 461.5 Q118 486 144.5 498.5 Q171 511 202 514.5 Q233 518 260 518 Q310 518 343 509.5 Q376 501 396 481 Q416 461 424 427.5 Q432 394 432 344 L432 62 Q432 50 434.5 47 Q437 44 448 42 L501 35 L501 0 L393 0 Z M383 239 L238 226 Q199 223 173.5 214.5 Q148 206 133.5 193.5 Q119 181 113 163.5 Q107 146 107 124 Q107 75 130 52.5 Q153 30 200 30 Q229 30 255.5 38.5 Q282 47 305.5 60.5 Q329 74 348.5 90.5 Q368 107 383 124 L383 239 Z M353 655 Q353 613 328.5 593 Q304 573 261 573 Q219 573 195 592.5 Q171 612 171 653 Q171 695 197 716 Q223 737 261 737 Q301 737 327 718.5 Q353 700 353 655 Z M261 609 Q286 609 298 621.5 Q310 634 310 655 Q310 676 297.5 689 Q285 702 261 702 Q240 702 226.5 689 Q213 676 213 653 Q213 633 224.5 621 Q236 609 261 609 Z " />
<glyph glyph-name="aringacute" unicode="&#x1fb;" horiz-adv-x="529" d="M393 0 L384 73 Q341 33 295 10.5 Q249 -12 192 -12 Q145 -12 118 2 Q91 16 77 36.5 Q63 57 59 79 Q55 101 55 118 Q55 193 100.5 226 Q146 259 233 267 L383 280 L383 340 Q383 375 378.5 401 Q374 427 360.5 443.5 Q347 460 323 468 Q299 476 260 476 Q233 476 209.5 474.5 Q186 473 168.5 464.5 Q151 456 140.5 438 Q130 420 130 387 L82 394 Q82 437 100 461.5 Q118 486 144.5 498.5 Q171 511 202 514.5 Q233 518 260 518 Q310 518 343 509.5 Q376 501 396 481 Q416 461 424 427.5 Q432 394 432 344 L432 62 Q432 50 434.5 47 Q437 44 448 42 L501 35 L501 0 L393 0 Z M383 239 L238 226 Q199 223 173.5 214.5 Q148 206 133.5 193.5 Q119 181 113 163.5 Q107 146 107 124 Q107 75 130 52.5 Q153 30 200 30 Q229 30 255.5 38.5 Q282 47 305.5 60.5 Q329 74 348.5 90.5 Q368 107 383 124 L383 239 Z M364 645 Q364 603 339.5 583 Q315 563 272 563 Q230 563 206 582.5 Q182 602 182 643 Q182 685 208 706 Q234 727 272 727 Q312 727 338 708.5 Q364 690 364 645 Z M272 599 Q297 599 309 611.5 Q321 624 321 645 Q321 666 308.5 679 Q296 692 272 692 Q251 692 237.5 679 Q224 666 224 643 Q224 623 235.5 611 Q247 599 272 599 Z M209 745 L188 772 L364 905 L401 855 L209 745 Z " />
<glyph glyph-name="atilde" unicode="&#xe3;" horiz-adv-x="529" d="M393 0 L384 73 Q341 33 295 10.5 Q249 -12 192 -12 Q145 -12 118 2 Q91 16 77 36.5 Q63 57 59 79 Q55 101 55 118 Q55 193 100.5 226 Q146 259 233 267 L383 280 L383 340 Q383 375 378.5 401 Q374 427 360.5 443.5 Q347 460 323 468 Q299 476 260 476 Q233 476 209.5 474.5 Q186 473 168.5 464.5 Q151 456 140.5 438 Q130 420 130 387 L82 394 Q82 437 100 461.5 Q118 486 144.5 498.5 Q171 511 202 514.5 Q233 518 260 518 Q310 518 343 509.5 Q376 501 396 481 Q416 461 424 427.5 Q432 394 432 344 L432 62 Q432 50 434.5 47 Q437 44 448 42 L501 35 L501 0 L393 0 Z M383 239 L238 226 Q199 223 173.5 214.5 Q148 206 133.5 193.5 Q119 181 113 163.5 Q107 146 107 124 Q107 75 130 52.5 Q153 30 200 30 Q229 30 255.5 38.5 Q282 47 305.5 60.5 Q329 74 348.5 90.5 Q368 107 383 124 L383 239 Z M403 636 Q385 612 366.5 602.5 Q348 593 319 600 L186 635 Q176 638 170 632 L127 590 L99 611 L123 645 Q140 667 157 675 Q174 683 203 676 L338 640 Q348 637 354 643 L395 684 L423 665 L403 636 Z " />
<glyph glyph-name="cacute" unicode="&#x107;" horiz-adv-x="469" d="M217 571 L192 597 L347 754 L391 708 L217 571 Z M443 26 Q431 18 413 10 Q395 2 373.5 -4 Q352 -10 328.5 -13.5 Q305 -17 283 -17 Q221 -17 177 2.5 Q133 22 104.5 57 Q76 92 62.5 140 Q49 188 49 244 Q49 316 68 367 Q87 418 120.5 450.5 Q154 483 200.5 498 Q247 513 302 513 Q356 513 390 503.5 Q424 494 437 490 L437 376 L398 379 L386 448 Q385 453 383.5 455.5 Q382 458 375 460 Q364 464 341 467.5 Q318 471 293 471 Q252 471 217 458.5 Q182 446 156 418.5 Q130 391 115 348 Q100 305 100 245 Q100 134 151 80.5 Q202 27 288 27 Q326 27 362.5 37.5 Q399 48 424 65 L443 26 Z " />
<glyph glyph-name="ccaron" unicode="&#x10d;" horiz-adv-x="469" d="M244 574 L130 694 L161 721 L282 614 L407 720 L436 694 L314 574 L244 574 Z M443 26 Q431 18 413 10 Q395 2 373.5 -4 Q352 -10 328.5 -13.5 Q305 -17 283 -17 Q221 -17 177 2.5 Q133 22 104.5 57 Q76 92 62.5 140 Q49 188 49 244 Q49 316 68 367 Q87 418 120.5 450.5 Q154 483 200.5 498 Q247 513 302 513 Q356 513 390 503.5 Q424 494 437 490 L437 376 L398 379 L386 448 Q385 453 383.5 455.5 Q382 458 375 460 Q364 464 341 467.5 Q318 471 293 471 Q252 471 217 458.5 Q182 446 156 418.5 Q130 391 115 348 Q100 305 100 245 Q100 134 151 80.5 Q202 27 288 27 Q326 27 362.5 37.5 Q399 48 424 65 L443 26 Z " />
<glyph glyph-name="ccedilla" unicode="&#xe7;" horiz-adv-x="469" d="M201 -178 Q216 -181 236 -181 Q314 -181 314 -125 Q314 -104 299.5 -90 Q285 -76 239 -75 L248 -10 Q195 -5 157.5 16.5 Q120 38 96 72.5 Q72 107 60.5 152 Q49 197 49 249 Q49 321 68 372 Q87 423 120.5 455.5 Q154 488 200.5 503 Q247 518 302 518 Q356 518 390 508.5 Q424 499 437 495 L437 381 L398 384 L386 453 Q385 458 383.5 460.5 Q382 463 375 465 Q364 469 341 472.5 Q318 476 293 476 Q252 476 217 463.5 Q182 451 156 423.5 Q130 396 115 353 Q100 310 100 250 Q100 139 151 85.5 Q202 32 288 32 Q326 32 362.5 42.5 Q399 53 424 70 L443 31 Q420 14 376.5 2 Q333 -10 289 -12 L285 -42 Q321 -50 342 -69.5 Q363 -89 363 -123 Q363 -139 357 -156.5 Q351 -174 336.5 -188 Q322 -202 298.5 -211.5 Q275 -221 240 -221 Q218 -221 195 -217 L201 -178 Z " />
<glyph glyph-name="ccircumflex" unicode="&#x109;" horiz-adv-x="469" d="M403 581 L279 686 L156 579 L126 605 L244 726 L314 726 L434 606 L403 581 Z M443 26 Q431 18 413 10 Q395 2 373.5 -4 Q352 -10 328.5 -13.5 Q305 -17 283 -17 Q221 -17 177 2.5 Q133 22 104.5 57 Q76 92 62.5 140 Q49 188 49 244 Q49 316 68 367 Q87 418 120.5 450.5 Q154 483 200.5 498 Q247 513 302 513 Q356 513 390 503.5 Q424 494 437 490 L437 376 L398 379 L386 448 Q385 453 383.5 455.5 Q382 458 375 460 Q364 464 341 467.5 Q318 471 293 471 Q252 471 217 458.5 Q182 446 156 418.5 Q130 391 115 348 Q100 305 100 245 Q100 134 151 80.5 Q202 27 288 27 Q326 27 362.5 37.5 Q399 48 424 65 L443 26 Z " />
<glyph glyph-name="cdotaccent" unicode="&#x10b;" horiz-adv-x="469" d="M443 26 Q431 18 413 10 Q395 2 373.5 -4 Q352 -10 328.5 -13.5 Q305 -17 283 -17 Q221 -17 177 2.5 Q133 22 104.5 57 Q76 92 62.5 140 Q49 188 49 244 Q49 316 68 367 Q87 418 120.5 450.5 Q154 483 200.5 498 Q247 513 302 513 Q356 513 390 503.5 Q424 494 437 490 L437 376 L398 379 L386 448 Q385 453 383.5 455.5 Q382 458 375 460 Q364 464 341 467.5 Q318 471 293 471 Q252 471 217 458.5 Q182 446 156 418.5 Q130 391 115 348 Q100 305 100 245 Q100 134 151 80.5 Q202 27 288 27 Q326 27 362.5 37.5 Q399 48 424 65 L443 26 Z M339 686 Q339 643 293 643 Q271 643 258.5 654 Q246 665 246 686 Q246 708 258.5 719.5 Q271 731 293 731 Q339 731 339 686 Z " />
<glyph glyph-name="dcaron" unicode="&#x10f;" horiz-adv-x="617" d="M531 587 Q538 607 544 628 Q550 649 550 677 Q550 703 544.5 718.5 Q539 734 534 743 L581 769 Q596 755 602.5 745 Q609 735 609 718 Q609 710 607.5 699 Q606 688 601 672 Q591 642 582 620.5 Q573 599 564 577 L531 587 Z M432 0 L426 71 Q389 37 345 12.5 Q301 -12 240 -12 Q198 -12 163.5 2 Q129 16 104 46.5 Q79 77 65.5 124.5 Q52 172 52 240 Q52 313 67 365.5 Q82 418 109.5 452 Q137 486 175.5 502 Q214 518 262 518 Q309 518 349.5 500.5 Q390 483 422 457 L422 685 Q422 701 409 705 L347 724 L355 755 L473 755 L473 62 Q473 50 475.5 47 Q478 44 489 42 L542 35 L542 0 L432 0 Z M422 406 Q409 419 391 431.5 Q373 444 351.5 454 Q330 464 305.5 470 Q281 476 255 476 Q214 476 185.5 459.5 Q157 443 138 412.5 Q119 382 110.5 338.5 Q102 295 102 242 Q102 178 114 137 Q126 96 145.5 72 Q165 48 191 39 Q217 30 244 30 Q302 30 344.5 58 Q387 86 422 126 L422 406 Z " />
<glyph glyph-name="dcroat" unicode="&#x111;" horiz-adv-x="587" d="M432 0 L426 71 Q389 37 345 12.5 Q301 -12 240 -12 Q198 -12 163.5 2 Q129 16 104 45 Q79 74 65.5 120 Q52 166 52 230 Q52 300 67 351 Q82 402 109.5 434.5 Q137 467 175.5 482.5 Q214 498 262 498 Q309 498 349.5 480.5 Q390 463 422 437 L422 589 L222 589 L222 632 L422 632 L422 685 Q422 701 409 705 L347 724 L355 755 L473 755 L473 632 L546 632 L546 589 L473 589 L473 62 Q473 50 475.5 47 Q478 44 489 42 L542 35 L542 0 L432 0 Z M422 386 Q409 399 391 411.5 Q373 424 351.5 434 Q330 444 305.5 450 Q281 456 255 456 Q174 456 138 395.5 Q102 335 102 232 Q102 172 114 133 Q126 94 145.5 71 Q165 48 191 39 Q217 30 244 30 Q302 30 344.5 58 Q387 86 422 126 L422 386 Z " />
<glyph glyph-name="eacute" unicode="&#xe9;" horiz-adv-x="502" d="M201 571 L176 597 L331 754 L375 708 L201 571 Z M446 31 Q417 11 373.5 -0.5 Q330 -12 279 -12 Q213 -12 169 9 Q125 30 98.5 66 Q72 102 60.5 151 Q49 200 49 256 Q49 323 65.5 372.5 Q82 422 111.5 454 Q141 486 180.5 502 Q220 518 266 518 Q308 518 343.5 505.5 Q379 493 405 465 Q431 437 445.5 392.5 Q460 348 460 285 Q460 274 459.5 266 Q459 258 458 248 L99 248 Q100 201 110.5 161.5 Q121 122 142.5 93 Q164 64 198 48 Q232 32 281 32 Q331 32 364 42.5 Q397 53 427 70 L446 31 Z M408 288 Q406 388 366.5 431.5 Q327 475 265 475 Q234 475 206 465.5 Q178 456 156 434.5 Q134 413 119.5 377 Q105 341 102 288 L408 288 Z " />
<glyph glyph-name="ebreve" unicode="&#x115;" horiz-adv-x="502" d="M446 31 Q417 11 373.5 -0.5 Q330 -12 279 -12 Q213 -12 169 9 Q125 30 98.5 66 Q72 102 60.5 151 Q49 200 49 256 Q49 323 65.5 372.5 Q82 422 111.5 454 Q141 486 180.5 502 Q220 518 266 518 Q308 518 343.5 505.5 Q379 493 405 465 Q431 437 445.5 392.5 Q460 348 460 285 Q460 274 459.5 266 Q459 258 458 248 L99 248 Q100 201 110.5 161.5 Q121 122 142.5 93 Q164 64 198 48 Q232 32 281 32 Q331 32 364 42.5 Q397 53 427 70 L446 31 Z M408 288 Q406 388 366.5 431.5 Q327 475 265 475 Q234 475 206 465.5 Q178 456 156 434.5 Q134 413 119.5 377 Q105 341 102 288 L408 288 Z M409 704 Q401 676 389.5 652 Q378 628 361 610.5 Q344 593 319.5 583 Q295 573 261 573 Q227 573 202.5 582.5 Q178 592 161 609 Q144 626 133.5 650 Q123 674 117 704 L159 718 Q171 666 193 639.5 Q215 613 262 613 Q286 613 302.5 620.5 Q319 628 331.5 641.5 Q344 655 353 674.5 Q362 694 370 718 L409 704 Z " />
<glyph glyph-name="ecaron" unicode="&#x11b;" horiz-adv-x="502" d="M227 574 L113 694 L144 721 L265 614 L390 720 L419 694 L297 574 L227 574 Z M446 31 Q417 11 373.5 -0.5 Q330 -12 279 -12 Q213 -12 169 9 Q125 30 98.5 66 Q72 102 60.5 151 Q49 200 49 256 Q49 323 65.5 372.5 Q82 422 111.5 454 Q141 486 180.5 502 Q220 518 266 518 Q308 518 343.5 505.5 Q379 493 405 465 Q431 437 445.5 392.5 Q460 348 460 285 Q460 274 459.5 266 Q459 258 458 248 L99 248 Q100 201 110.5 161.5 Q121 122 142.5 93 Q164 64 198 48 Q232 32 281 32 Q331 32 364 42.5 Q397 53 427 70 L446 31 Z M408 288 Q406 388 366.5 431.5 Q327 475 265 475 Q234 475 206 465.5 Q178 456 156 434.5 Q134 413 119.5 377 Q105 341 102 288 L408 288 Z " />
<glyph glyph-name="ecircumflex" unicode="&#xea;" horiz-adv-x="502" d="M387 581 L263 686 L140 579 L110 605 L228 726 L298 726 L418 606 L387 581 Z M446 31 Q417 11 373.5 -0.5 Q330 -12 279 -12 Q213 -12 169 9 Q125 30 98.5 66 Q72 102 60.5 151 Q49 200 49 256 Q49 323 65.5 372.5 Q82 422 111.5 454 Q141 486 180.5 502 Q220 518 266 518 Q308 518 343.5 505.5 Q379 493 405 465 Q431 437 445.5 392.5 Q460 348 460 285 Q460 274 459.5 266 Q459 258 458 248 L99 248 Q100 201 110.5 161.5 Q121 122 142.5 93 Q164 64 198 48 Q232 32 281 32 Q331 32 364 42.5 Q397 53 427 70 L446 31 Z M408 288 Q406 388 366.5 431.5 Q327 475 265 475 Q234 475 206 465.5 Q178 456 156 434.5 Q134 413 119.5 377 Q105 341 102 288 L408 288 Z " />
<glyph glyph-name="edieresis" unicode="&#xeb;" horiz-adv-x="502" d="M211 656 Q211 636 198.5 624 Q186 612 165 612 Q145 612 132.5 624 Q120 636 120 656 Q120 676 132.5 688 Q145 700 165 700 Q186 700 198.5 688 Q211 676 211 656 Z M408 656 Q408 636 395 624 Q382 612 362 612 Q342 612 329.5 624 Q317 636 317 656 Q317 676 329.5 688 Q342 700 362 700 Q382 700 395 688 Q408 676 408 656 Z M446 31 Q417 11 373.5 -0.5 Q330 -12 279 -12 Q213 -12 169 9 Q125 30 98.5 66 Q72 102 60.5 151 Q49 200 49 256 Q49 323 65.5 372.5 Q82 422 111.5 454 Q141 486 180.5 502 Q220 518 266 518 Q308 518 343.5 505.5 Q379 493 405 465 Q431 437 445.5 392.5 Q460 348 460 285 Q460 274 459.5 266 Q459 258 458 248 L99 248 Q100 201 110.5 161.5 Q121 122 142.5 93 Q164 64 198 48 Q232 32 281 32 Q331 32 364 42.5 Q397 53 427 70 L446 31 Z M408 288 Q406 388 366.5 431.5 Q327 475 265 475 Q234 475 206 465.5 Q178 456 156 434.5 Q134 413 119.5 377 Q105 341 102 288 L408 288 Z " />
<glyph glyph-name="edotaccent" unicode="&#x117;" horiz-adv-x="502" d="M446 31 Q417 11 373.5 -0.5 Q330 -12 279 -12 Q213 -12 169 9 Q125 30 98.5 66 Q72 102 60.5 151 Q49 200 49 256 Q49 323 65.5 372.5 Q82 422 111.5 454 Q141 486 180.5 502 Q220 518 266 518 Q308 518 343.5 505.5 Q379 493 405 465 Q431 437 445.5 392.5 Q460 348 460 285 Q460 274 459.5 266 Q459 258 458 248 L99 248 Q100 201 110.5 161.5 Q121 122 142.5 93 Q164 64 198 48 Q232 32 281 32 Q331 32 364 42.5 Q397 53 427 70 L446 31 Z M408 288 Q406 388 366.5 431.5 Q327 475 265 475 Q234 475 206 465.5 Q178 456 156 434.5 Q134 413 119.5 377 Q105 341 102 288 L408 288 Z M309 686 Q309 643 263 643 Q241 643 228.5 654 Q216 665 216 686 Q216 708 228.5 719.5 Q241 731 263 731 Q309 731 309 686 Z " />
<glyph glyph-name="egrave" unicode="&#xe8;" horiz-adv-x="502" d="M446 31 Q417 11 373.5 -0.5 Q330 -12 279 -12 Q213 -12 169 9 Q125 30 98.5 66 Q72 102 60.5 151 Q49 200 49 256 Q49 323 65.5 372.5 Q82 422 111.5 454 Q141 486 180.5 502 Q220 518 266 518 Q308 518 343.5 505.5 Q379 493 405 465 Q431 437 445.5 392.5 Q460 348 460 285 Q460 274 459.5 266 Q459 258 458 248 L99 248 Q100 201 110.5 161.5 Q121 122 142.5 93 Q164 64 198 48 Q232 32 281 32 Q331 32 364 42.5 Q397 53 427 70 L446 31 Z M408 288 Q406 388 366.5 431.5 Q327 475 265 475 Q234 475 206 465.5 Q178 456 156 434.5 Q134 413 119.5 377 Q105 341 102 288 L408 288 Z M332 571 L158 708 L201 753 L357 596 L332 571 Z " />
<glyph glyph-name="emacron" unicode="&#x113;" horiz-adv-x="502" d="M446 31 Q417 11 373.5 -0.5 Q330 -12 279 -12 Q213 -12 169 9 Q125 30 98.5 66 Q72 102 60.5 151 Q49 200 49 256 Q49 323 65.5 372.5 Q82 422 111.5 454 Q141 486 180.5 502 Q220 518 266 518 Q308 518 343.5 505.5 Q379 493 405 465 Q431 437 445.5 392.5 Q460 348 460 285 Q460 274 459.5 266 Q459 258 458 248 L99 248 Q100 201 110.5 161.5 Q121 122 142.5 93 Q164 64 198 48 Q232 32 281 32 Q331 32 364 42.5 Q397 53 427 70 L446 31 Z M408 288 Q406 388 366.5 431.5 Q327 475 265 475 Q234 475 206 465.5 Q178 456 156 434.5 Q134 413 119.5 377 Q105 341 102 288 L408 288 Z M113 620 L113 667 L414 667 L414 620 L113 620 Z " />
<glyph glyph-name="eogonek" unicode="&#x119;" horiz-adv-x="502" d="M400 -189 Q385 -197 365 -202 Q345 -207 325 -207 Q292 -207 269 -190 Q246 -173 246 -135 Q246 -98 268.5 -66.5 Q291 -35 318 -10 Q308 -11 298.5 -11.5 Q289 -12 279 -12 Q213 -12 169 9 Q125 30 98.5 66 Q72 102 60.5 151 Q49 200 49 256 Q49 323 65.5 372.5 Q82 422 111.5 454 Q141 486 180.5 502 Q220 518 266 518 Q308 518 343.5 505.5 Q379 493 405 465 Q431 437 445.5 392.5 Q460 348 460 285 Q460 274 459.5 266 Q459 258 458 248 L99 248 Q100 201 110.5 161.5 Q121 122 142.5 93 Q164 64 198 48 Q232 32 281 32 Q331 32 364 42.5 Q397 53 427 70 L446 31 Q434 23 419.5 15.5 Q405 8 390 0 Q374 -8 357.5 -22 Q341 -36 327.5 -53 Q314 -70 305.5 -89.5 Q297 -109 297 -128 Q297 -145 306.5 -155.5 Q316 -166 334 -166 Q347 -166 362 -162.5 Q377 -159 388 -154 L400 -189 Z M408 288 Q406 388 366.5 431.5 Q327 475 265 475 Q234 475 206 465.5 Q178 456 156 434.5 Q134 413 119.5 377 Q105 341 102 288 L408 288 Z " />
<glyph glyph-name="gbreve" unicode="&#x11f;" horiz-adv-x="527" d="M423 459 Q443 437 453.5 410 Q464 383 464 346 Q464 300 448.5 264.5 Q433 229 406 205 Q379 181 341.5 169 Q304 157 260 157 Q233 157 206 161.5 Q179 166 162 174 L114 76 L339 58 Q383 54 415 46 Q447 38 468 23.5 Q489 9 499 -13.5 Q509 -36 509 -68 Q509 -140 449 -182.5 Q389 -225 258 -225 Q196 -225 153.5 -216.5 Q111 -208 85 -192 Q59 -176 48 -153.5 Q37 -131 37 -102 Q37 -62 58 -31.5 Q79 -1 114 31 Q65 34 65 70 Q65 81 70 93 Q75 105 83 118 L126 192 Q97 212 77.5 248 Q58 284 58 332 Q58 418 113 468 Q168 518 265 518 Q289 518 310.5 515.5 Q332 513 348 508 L519 508 L519 466 L423 459 Z M415 336 Q415 405 376.5 442 Q338 479 265 479 Q194 479 151 443 Q108 407 108 335 Q108 306 116 281 Q124 256 142.5 237.5 Q161 219 190.5 208 Q220 197 263 197 Q298 197 326.5 207.5 Q355 218 374.5 237 Q394 256 404.5 281 Q415 306 415 336 Z M164 24 Q153 14 140 1 Q127 -12 116 -27 Q105 -42 97.5 -58.5 Q90 -75 90 -92 Q90 -116 99 -133 Q108 -150 129.5 -161 Q151 -172 186.5 -177 Q222 -182 274 -182 Q325 -182 360 -173 Q395 -164 416.5 -148 Q438 -132 447 -112 Q456 -92 456 -69 Q456 -24 424.5 -8 Q393 8 336 12 L164 24 Z M417 704 Q409 676 397.5 652 Q386 628 369 610.5 Q352 593 327.5 583 Q303 573 269 573 Q235 573 210.5 582.5 Q186 592 169 609 Q152 626 141.5 650 Q131 674 125 704 L167 718 Q179 666 201 639.5 Q223 613 270 613 Q294 613 310.5 620.5 Q327 628 339.5 641.5 Q352 655 361 674.5 Q370 694 378 718 L417 704 Z " />
<glyph glyph-name="gcircumflex" unicode="&#x11d;" horiz-adv-x="527" d="M388 581 L264 686 L141 579 L111 605 L229 726 L299 726 L419 606 L388 581 Z M423 459 Q443 437 453.5 410 Q464 383 464 346 Q464 300 448.5 264.5 Q433 229 406 205 Q379 181 341.5 169 Q304 157 260 157 Q233 157 206 161.5 Q179 166 162 174 L114 76 L339 58 Q383 54 415 46 Q447 38 468 23.5 Q489 9 499 -13.5 Q509 -36 509 -68 Q509 -140 449 -182.5 Q389 -225 258 -225 Q196 -225 153.5 -216.5 Q111 -208 85 -192 Q59 -176 48 -153.5 Q37 -131 37 -102 Q37 -62 58 -31.5 Q79 -1 114 31 Q65 34 65 70 Q65 81 70 93 Q75 105 83 118 L126 192 Q97 212 77.5 248 Q58 284 58 332 Q58 418 113 468 Q168 518 265 518 Q289 518 310.5 515.5 Q332 513 348 508 L519 508 L519 466 L423 459 Z M415 336 Q415 405 376.5 442 Q338 479 265 479 Q194 479 151 443 Q108 407 108 335 Q108 306 116 281 Q124 256 142.5 237.5 Q161 219 190.5 208 Q220 197 263 197 Q298 197 326.5 207.5 Q355 218 374.5 237 Q394 256 404.5 281 Q415 306 415 336 Z M164 24 Q153 14 140 1 Q127 -12 116 -27 Q105 -42 97.5 -58.5 Q90 -75 90 -92 Q90 -116 99 -133 Q108 -150 129.5 -161 Q151 -172 186.5 -177 Q222 -182 274 -182 Q325 -182 360 -173 Q395 -164 416.5 -148 Q438 -132 447 -112 Q456 -92 456 -69 Q456 -24 424.5 -8 Q393 8 336 12 L164 24 Z " />
<glyph glyph-name="gcommaaccent" unicode="&#x123;" horiz-adv-x="527" d="M302 742 L275 647 Q274 640 279 637 L313 621 L297 569 Q255 574 234 584.5 Q213 595 213 624 Q213 635 219.5 649.5 Q226 664 231 675 L273 754 L302 742 Z M423 459 Q443 437 453.5 410 Q464 383 464 346 Q464 300 448.5 264.5 Q433 229 406 205 Q379 181 341.5 169 Q304 157 260 157 Q233 157 206 161.5 Q179 166 162 174 L114 76 L339 58 Q383 54 415 46 Q447 38 468 23.5 Q489 9 499 -13.5 Q509 -36 509 -68 Q509 -140 449 -182.5 Q389 -225 258 -225 Q196 -225 153.5 -216.5 Q111 -208 85 -192 Q59 -176 48 -153.5 Q37 -131 37 -102 Q37 -62 58 -31.5 Q79 -1 114 31 Q65 34 65 70 Q65 81 70 93 Q75 105 83 118 L126 192 Q97 212 77.5 248 Q58 284 58 332 Q58 418 113 468 Q168 518 265 518 Q289 518 310.5 515.5 Q332 513 348 508 L519 508 L519 466 L423 459 Z M415 336 Q415 405 376.5 442 Q338 479 265 479 Q194 479 151 443 Q108 407 108 335 Q108 306 116 281 Q124 256 142.5 237.5 Q161 219 190.5 208 Q220 197 263 197 Q298 197 326.5 207.5 Q355 218 374.5 237 Q394 256 404.5 281 Q415 306 415 336 Z M164 24 Q153 14 140 1 Q127 -12 116 -27 Q105 -42 97.5 -58.5 Q90 -75 90 -92 Q90 -116 99 -133 Q108 -150 129.5 -161 Q151 -172 186.5 -177 Q222 -182 274 -182 Q325 -182 360 -173 Q395 -164 416.5 -148 Q438 -132 447 -112 Q456 -92 456 -69 Q456 -24 424.5 -8 Q393 8 336 12 L164 24 Z " />
<glyph glyph-name="gdotaccent" unicode="&#x121;" horiz-adv-x="527" d="M423 459 Q443 437 453.5 410 Q464 383 464 346 Q464 300 448.5 264.5 Q433 229 406 205 Q379 181 341.5 169 Q304 157 260 157 Q233 157 206 161.5 Q179 166 162 174 L114 76 L339 58 Q383 54 415 46 Q447 38 468 23.5 Q489 9 499 -13.5 Q509 -36 509 -68 Q509 -140 449 -182.5 Q389 -225 258 -225 Q196 -225 153.5 -216.5 Q111 -208 85 -192 Q59 -176 48 -153.5 Q37 -131 37 -102 Q37 -62 58 -31.5 Q79 -1 114 31 Q65 34 65 70 Q65 81 70 93 Q75 105 83 118 L126 192 Q97 212 77.5 248 Q58 284 58 332 Q58 418 113 468 Q168 518 265 518 Q289 518 310.5 515.5 Q332 513 348 508 L519 508 L519 466 L423 459 Z M415 336 Q415 405 376.5 442 Q338 479 265 479 Q194 479 151 443 Q108 407 108 335 Q108 306 116 281 Q124 256 142.5 237.5 Q161 219 190.5 208 Q220 197 263 197 Q298 197 326.5 207.5 Q355 218 374.5 237 Q394 256 404.5 281 Q415 306 415 336 Z M164 24 Q153 14 140 1 Q127 -12 116 -27 Q105 -42 97.5 -58.5 Q90 -75 90 -92 Q90 -116 99 -133 Q108 -150 129.5 -161 Q151 -172 186.5 -177 Q222 -182 274 -182 Q325 -182 360 -173 Q395 -164 416.5 -148 Q438 -132 447 -112 Q456 -92 456 -69 Q456 -24 424.5 -8 Q393 8 336 12 L164 24 Z M324 686 Q324 643 278 643 Q256 643 243.5 654 Q231 665 231 686 Q231 708 243.5 719.5 Q256 731 278 731 Q324 731 324 686 Z " />
<glyph glyph-name="hbar" unicode="&#x127;" horiz-adv-x="633" d="M403 0 L403 36 L458 42 Q469 44 470.5 46.5 Q472 49 472 60 L472 303 Q472 388 442 421 Q412 454 357 454 Q327 454 297.5 444 Q268 434 243 420.5 Q218 407 199 392 Q180 377 171 368 L171 62 Q171 50 173.5 47 Q176 44 187 42 L250 35 L250 0 L52 0 L52 36 L106 42 Q117 44 119.5 47.5 Q122 51 122 62 L122 591 L52 591 L52 632 L122 632 L122 683 Q122 700 109 704 L47 723 L54 755 L172 755 L172 632 L376 632 L376 591 L172 591 L172 417 Q194 434 215.5 449 Q237 464 259.5 475 Q282 486 307 492 Q332 498 362 498 Q400 498 430 489 Q460 480 480.5 458 Q501 436 511.5 397.5 Q522 359 522 301 L522 62 Q522 50 524.5 47 Q527 44 538 42 L600 35 L600 0 L403 0 Z " />
<glyph glyph-name="hcircumflex" unicode="&#x125;" horiz-adv-x="633" d="M122 877 L15 792 L-11 818 L90 914 L154 914 L256 818 L230 792 L122 877 Z M403 0 L403 36 L458 42 Q469 44 470.5 46.5 Q472 49 472 60 L472 323 Q472 408 442 441 Q412 474 357 474 Q327 474 297.5 464 Q268 454 243 440.5 Q218 427 199 412 Q180 397 171 388 L171 62 Q171 50 173.5 47 Q176 44 187 42 L250 35 L250 0 L52 0 L52 36 L106 42 Q117 44 119.5 47.5 Q122 51 122 62 L122 683 Q122 700 109 704 L47 723 L54 755 L172 755 L172 437 Q194 454 215.5 469 Q237 484 259.5 495 Q282 506 307 512 Q332 518 362 518 Q400 518 430 509 Q460 500 480.5 478 Q501 456 511.5 417.5 Q522 379 522 321 L522 62 Q522 50 524.5 47 Q527 44 538 42 L600 35 L600 0 L403 0 Z " />
<glyph glyph-name="iacute" unicode="&#xed;" horiz-adv-x="283" d="M29 0 L29 36 L106 42 Q117 44 119.5 47.5 Q122 51 122 62 L122 436 Q122 453 109 457 L50 476 L57 508 L171 508 L171 62 Q171 50 173.5 47 Q176 44 187 42 L262 35 L262 0 L29 0 Z M75 571 L50 597 L205 754 L249 708 L75 571 Z " />
<glyph glyph-name="ibreve" unicode="&#x12d;" horiz-adv-x="283" d="M281 695 Q265 635 229 599.5 Q193 564 129 564 Q66 564 28.5 598 Q-9 632 -25 692 L14 709 Q30 657 56.5 631.5 Q83 606 127 606 Q175 606 200 632 Q225 658 240 709 L281 695 Z M29 0 L29 36 L106 42 Q117 44 119.5 47.5 Q122 51 122 62 L122 436 Q122 453 109 457 L50 476 L57 508 L171 508 L171 62 Q171 50 173.5 47 Q176 44 187 42 L262 35 L262 0 L29 0 Z " />
<glyph glyph-name="icircumflex" unicode="&#xee;" horiz-adv-x="283" d="M229 584 L128 686 L29 584 L-3 608 L93 726 L163 726 L259 608 L229 584 Z M29 0 L29 36 L106 42 Q117 44 119.5 47.5 Q122 51 122 62 L122 436 Q122 453 109 457 L50 476 L57 508 L171 508 L171 62 Q171 50 173.5 47 Q176 44 187 42 L262 35 L262 0 L29 0 Z " />
<glyph glyph-name="idieresis" unicode="&#xef;" horiz-adv-x="283" d="M88 656 Q88 636 75.5 624 Q63 612 43 612 Q22 612 9.5 624 Q-3 636 -3 656 Q-3 676 9.5 688 Q22 700 43 700 Q63 700 75.5 688 Q88 676 88 656 Z M247 656 Q247 636 234.5 624 Q222 612 202 612 Q182 612 169 624 Q156 636 156 656 Q156 676 169 688 Q182 700 202 700 Q222 700 234.5 688 Q247 676 247 656 Z M29 0 L29 36 L106 42 Q117 44 119.5 47.5 Q122 51 122 62 L122 436 Q122 453 109 457 L50 476 L57 508 L171 508 L171 62 Q171 50 173.5 47 Q176 44 187 42 L262 35 L262 0 L29 0 Z " />
<glyph glyph-name="igrave" unicode="&#xec;" horiz-adv-x="283" d="M29 0 L29 36 L106 42 Q117 44 119.5 47.5 Q122 51 122 62 L122 436 Q122 453 109 457 L50 476 L57 508 L171 508 L171 62 Q171 50 173.5 47 Q176 44 187 42 L262 35 L262 0 L29 0 Z M178 571 L4 708 L47 753 L203 596 L178 571 Z " />
<glyph glyph-name="imacron" unicode="&#x12b;" horiz-adv-x="283" d="M9 583 L9 630 L241 630 L241 583 L9 583 Z M29 0 L29 36 L106 42 Q117 44 119.5 47.5 Q122 51 122 62 L122 436 Q122 453 109 457 L50 476 L57 508 L171 508 L171 62 Q171 50 173.5 47 Q176 44 187 42 L262 35 L262 0 L29 0 Z " />
<glyph glyph-name="iogonek" unicode="&#x12f;" horiz-adv-x="283" d="M200 -189 Q185 -197 165 -202 Q145 -207 125 -207 Q92 -207 69 -190 Q46 -173 46 -135 Q46 -115 53.5 -96 Q61 -77 73 -60 Q85 -43 99.5 -28 Q114 -13 129 0 L29 0 L29 36 L106 42 Q117 44 119.5 47.5 Q122 51 122 62 L122 436 Q122 453 109 457 L50 476 L57 508 L171 508 L171 62 Q171 50 173.5 47 Q176 44 187 42 L262 35 L262 0 L183 0 Q169 -11 154 -25.5 Q139 -40 126.5 -57 Q114 -74 105.5 -92 Q97 -110 97 -128 Q97 -145 106.5 -155.5 Q116 -166 134 -166 Q147 -166 162 -162.5 Q177 -159 188 -154 L200 -189 Z M180 687 Q180 666 167.5 655 Q155 644 133 644 Q87 644 87 687 Q87 731 133 731 Q155 731 167.5 720 Q180 709 180 687 Z " />
<glyph glyph-name="itilde" unicode="&#x129;" horiz-adv-x="283" d="M257 636 Q239 612 220.5 602.5 Q202 593 173 600 L70 635 Q60 638 54 632 L10 589 L-18 610 L7 644 Q24 666 41 674 Q58 682 87 675 L192 639 Q202 636 208 642 L250 683 L277 663 L257 636 Z M29 0 L29 36 L106 42 Q117 44 119.5 47.5 Q122 51 122 62 L122 436 Q122 453 109 457 L50 476 L57 508 L171 508 L171 62 Q171 50 173.5 47 Q176 44 187 42 L262 35 L262 0 L29 0 Z " />
<glyph glyph-name="jcircumflex" unicode="&#x135;" horiz-adv-x="268" d="M120 436 Q120 447 118.5 451 Q117 455 109 457 L38 476 L45 508 L169 508 L169 -80 Q169 -154 141 -188.5 Q113 -223 46 -223 Q10 -223 -19.5 -211.5 Q-49 -200 -70 -183 L-43 -145 Q-29 -156 -4.5 -167.5 Q20 -179 48 -179 Q72 -179 86 -172.5 Q100 -166 107.5 -152.5 Q115 -139 117.5 -119 Q120 -99 120 -72 L120 436 Z M237 571 L113 676 L-10 569 L-40 595 L78 716 L148 716 L268 596 L237 571 Z " />
<glyph glyph-name="kcommaaccent" unicode="&#x137;" horiz-adv-x="570" d="M251 -232 L275 -138 Q276 -131 271 -128 L241 -113 L256 -65 Q294 -70 313.5 -79.5 Q333 -89 333 -118 Q333 -129 326.5 -143 Q320 -157 315 -168 L275 -241 L251 -232 Z M369 0 L369 37 L431 45 L274 285 L171 163 L171 62 Q171 50 173.5 47 Q176 44 187 42 L256 35 L256 0 L35 0 L35 36 L106 42 Q117 44 119.5 47.5 Q122 51 122 62 L122 683 Q122 700 109 704 L47 723 L54 755 L171 755 L171 229 L404 508 L496 508 L496 475 L435 461 Q426 458 421.5 456 Q417 454 410 446 L306 324 L475 62 Q481 53 485.5 50.5 Q490 48 504 46 L559 35 L559 0 L369 0 Z " />
<glyph glyph-name="lacute" unicode="&#x13a;" horiz-adv-x="283" d="M57 791 L36 818 L212 951 L249 901 L57 791 Z M35 0 L35 36 L106 42 Q117 43 119.5 47 Q122 51 122 62 L122 683 Q122 700 109 704 L47 723 L54 755 L171 755 L171 62 Q171 50 173.5 47 Q176 44 187 42 L256 35 L256 0 L35 0 Z " />
<glyph glyph-name="lcaron" unicode="&#x13e;" horiz-adv-x="294" d="M223 591 Q230 611 236 632 Q242 653 242 681 Q242 707 236.5 722.5 Q231 738 226 747 L273 773 Q288 759 294.5 749 Q301 739 301 722 Q301 714 299.5 703 Q298 692 293 676 Q283 646 274 624.5 Q265 603 256 581 L223 591 Z M35 0 L35 36 L106 42 Q117 43 119.5 47 Q122 51 122 62 L122 683 Q122 700 109 704 L47 723 L54 755 L171 755 L171 62 Q171 50 173.5 47 Q176 44 187 42 L256 35 L256 0 L35 0 Z " />
<glyph glyph-name="lcommaaccent" unicode="&#x13c;" horiz-adv-x="283" d="M109 -232 L133 -138 Q134 -131 129 -128 L99 -113 L114 -65 Q152 -70 171.5 -79.5 Q191 -89 191 -118 Q191 -129 184.5 -143 Q178 -157 173 -168 L133 -241 L109 -232 Z M35 0 L35 36 L106 42 Q117 43 119.5 47 Q122 51 122 62 L122 683 Q122 700 109 704 L47 723 L54 755 L171 755 L171 62 Q171 50 173.5 47 Q176 44 187 42 L256 35 L256 0 L35 0 Z " />
<glyph glyph-name="ldot" unicode="&#x140;" horiz-adv-x="270" d="M35 0 L35 36 L106 42 Q117 43 119.5 47 Q122 51 122 62 L122 683 Q122 700 109 704 L47 723 L54 755 L171 755 L171 62 Q171 50 173.5 47 Q176 44 187 42 L256 35 L256 0 L35 0 Z M330 379 Q330 335 284 335 Q262 335 249.5 346.5 Q237 358 237 379 Q237 400 249.5 412 Q262 424 284 424 Q306 424 318 412 Q330 400 330 379 Z " />
<glyph glyph-name="lslash" unicode="&#x142;" horiz-adv-x="304" d="M35 0 L35 36 L106 42 Q117 43 119.5 47 Q122 51 122 62 L122 351 L32 307 L32 357 L122 401 L122 683 Q122 700 109 704 L47 723 L54 755 L171 755 L171 424 L273 475 L273 425 L171 375 L171 62 Q171 50 173.5 47 Q176 44 187 42 L256 35 L256 0 L35 0 Z " />
<glyph glyph-name="nacute" unicode="&#x144;" horiz-adv-x="633" d="M272 571 L247 597 L402 754 L446 708 L272 571 Z M403 0 L403 36 L458 42 Q469 44 470.5 46.5 Q472 49 472 60 L472 303 Q472 354 464.5 387 Q457 420 443 439.5 Q429 459 408 466.5 Q387 474 359 474 Q327 474 296.5 464 Q266 454 240.5 440 Q215 426 196.5 412 Q178 398 171 390 L171 62 Q171 50 173.5 47 Q176 44 187 42 L250 35 L250 0 L52 0 L52 36 L106 42 Q117 44 119.5 47.5 Q122 51 122 62 L122 436 Q122 453 109 457 L50 476 L57 508 L160 508 L169 439 Q187 453 208.5 467 Q230 481 255 492.5 Q280 504 308.5 511 Q337 518 369 518 Q413 518 442.5 504.5 Q472 491 489.5 465.5 Q507 440 514.5 404 Q522 368 522 322 L522 62 Q522 50 524.5 47 Q527 44 538 42 L600 35 L600 0 L403 0 Z " />
<glyph glyph-name="napostrophe" unicode="&#x149;" horiz-adv-x="677" d="M42 522 L64 590 Q67 599 61 602 L36 613 L54 668 Q87 666 105.5 658 Q124 650 124 625 Q124 614 120 605 Q116 596 111 587 L71 510 L42 522 Z M447 0 L447 36 L502 42 Q513 44 514.5 46.5 Q516 49 516 60 L516 303 Q516 354 508.5 387 Q501 420 487 439.5 Q473 459 452 466.5 Q431 474 403 474 Q371 474 340.5 464 Q310 454 284.5 440 Q259 426 240.5 412 Q222 398 215 390 L215 62 Q215 50 217.5 47 Q220 44 231 42 L294 35 L294 0 L96 0 L96 36 L150 42 Q161 44 163.5 47.5 Q166 51 166 62 L166 436 Q166 453 153 457 L94 476 L101 508 L204 508 L213 439 Q231 453 252.5 467 Q274 481 299 492.5 Q324 504 352.5 511 Q381 518 413 518 Q457 518 486.5 504.5 Q516 491 533.5 465.5 Q551 440 558.5 404 Q566 368 566 322 L566 62 Q566 50 568.5 47 Q571 44 582 42 L644 35 L644 0 L447 0 Z " />
<glyph glyph-name="ncaron" unicode="&#x148;" horiz-adv-x="633" d="M279 574 L165 694 L196 721 L317 614 L442 720 L471 694 L349 574 L279 574 Z M403 0 L403 36 L458 42 Q469 44 470.5 46.5 Q472 49 472 60 L472 303 Q472 354 464.5 387 Q457 420 443 439.5 Q429 459 408 466.5 Q387 474 359 474 Q327 474 296.5 464 Q266 454 240.5 440 Q215 426 196.5 412 Q178 398 171 390 L171 62 Q171 50 173.5 47 Q176 44 187 42 L250 35 L250 0 L52 0 L52 36 L106 42 Q117 44 119.5 47.5 Q122 51 122 62 L122 436 Q122 453 109 457 L50 476 L57 508 L160 508 L169 439 Q187 453 208.5 467 Q230 481 255 492.5 Q280 504 308.5 511 Q337 518 369 518 Q413 518 442.5 504.5 Q472 491 489.5 465.5 Q507 440 514.5 404 Q522 368 522 322 L522 62 Q522 50 524.5 47 Q527 44 538 42 L600 35 L600 0 L403 0 Z " />
<glyph glyph-name="ncommaaccent" unicode="&#x146;" horiz-adv-x="633" d="M282 -232 L306 -138 Q307 -131 302 -128 L272 -113 L287 -65 Q325 -70 344.5 -79.5 Q364 -89 364 -118 Q364 -129 357.5 -143 Q351 -157 346 -168 L306 -241 L282 -232 Z M403 0 L403 36 L458 42 Q469 44 470.5 46.5 Q472 49 472 60 L472 303 Q472 354 464.5 387 Q457 420 443 439.5 Q429 459 408 466.5 Q387 474 359 474 Q327 474 296.5 464 Q266 454 240.5 440 Q215 426 196.5 412 Q178 398 171 390 L171 62 Q171 50 173.5 47 Q176 44 187 42 L250 35 L250 0 L52 0 L52 36 L106 42 Q117 44 119.5 47.5 Q122 51 122 62 L122 436 Q122 453 109 457 L50 476 L57 508 L160 508 L169 439 Q187 453 208.5 467 Q230 481 255 492.5 Q280 504 308.5 511 Q337 518 369 518 Q413 518 442.5 504.5 Q472 491 489.5 465.5 Q507 440 514.5 404 Q522 368 522 322 L522 62 Q522 50 524.5 47 Q527 44 538 42 L600 35 L600 0 L403 0 Z " />
<glyph glyph-name="ntilde" unicode="&#xf1;" horiz-adv-x="633" d="M403 0 L403 36 L458 42 Q469 44 470.5 46.5 Q472 49 472 60 L472 303 Q472 354 464.5 387 Q457 420 443 439.5 Q429 459 408 466.5 Q387 474 359 474 Q327 474 296.5 464 Q266 454 240.5 440 Q215 426 196.5 412 Q178 398 171 390 L171 62 Q171 50 173.5 47 Q176 44 187 42 L250 35 L250 0 L52 0 L52 36 L106 42 Q117 44 119.5 47.5 Q122 51 122 62 L122 436 Q122 453 109 457 L50 476 L57 508 L160 508 L169 439 Q187 453 208.5 467 Q230 481 255 492.5 Q280 504 308.5 511 Q337 518 369 518 Q413 518 442.5 504.5 Q472 491 489.5 465.5 Q507 440 514.5 404 Q522 368 522 322 L522 62 Q522 50 524.5 47 Q527 44 538 42 L600 35 L600 0 L403 0 Z M458 636 Q440 612 421.5 602.5 Q403 593 374 600 L241 635 Q231 638 225 632 L182 590 L154 611 L178 645 Q195 667 212 675 Q229 683 258 676 L393 640 Q403 637 409 643 L450 684 L478 665 L458 636 Z " />
<glyph glyph-name="oacute" unicode="&#xf3;" horiz-adv-x="559" d="M226 571 L201 597 L356 754 L400 708 L226 571 Z M278 -12 Q218 -12 174.5 8 Q131 28 103 63.5 Q75 99 62 148 Q49 197 49 255 Q49 313 63.5 361.5 Q78 410 107.5 444.5 Q137 479 182 498.5 Q227 518 288 518 Q348 518 390.5 499 Q433 480 459.5 446 Q486 412 498.5 365 Q511 318 511 263 Q511 201 497 150 Q483 99 454.5 63 Q426 27 382 7.5 Q338 -12 278 -12 Z M281 29 Q371 29 415.5 87.5 Q460 146 460 255 Q460 362 418 419 Q376 476 286 476 Q195 476 147 418.5 Q99 361 99 254 Q99 148 144.5 88.5 Q190 29 281 29 Z " />
<glyph glyph-name="obreve" unicode="&#x14f;" horiz-adv-x="559" d="M278 -12 Q218 -12 174.5 8 Q131 28 103 63.5 Q75 99 62 148 Q49 197 49 255 Q49 313 63.5 361.5 Q78 410 107.5 444.5 Q137 479 182 498.5 Q227 518 288 518 Q348 518 390.5 499 Q433 480 459.5 446 Q486 412 498.5 365 Q511 318 511 263 Q511 201 497 150 Q483 99 454.5 63 Q426 27 382 7.5 Q338 -12 278 -12 Z M281 29 Q371 29 415.5 87.5 Q460 146 460 255 Q460 362 418 419 Q376 476 286 476 Q195 476 147 418.5 Q99 361 99 254 Q99 148 144.5 88.5 Q190 29 281 29 Z M434 704 Q426 676 414.5 652 Q403 628 386 610.5 Q369 593 344.5 583 Q320 573 286 573 Q252 573 227.5 582.5 Q203 592 186 609 Q169 626 158.5 650 Q148 674 142 704 L184 718 Q196 666 218 639.5 Q240 613 287 613 Q311 613 327.5 620.5 Q344 628 356.5 641.5 Q369 655 378 674.5 Q387 694 395 718 L434 704 Z " />
<glyph glyph-name="ocircumflex" unicode="&#xf4;" horiz-adv-x="559" d="M412 581 L288 686 L165 579 L135 605 L253 726 L323 726 L443 606 L412 581 Z M278 -12 Q218 -12 174.5 8 Q131 28 103 63.5 Q75 99 62 148 Q49 197 49 255 Q49 313 63.5 361.5 Q78 410 107.5 444.5 Q137 479 182 498.5 Q227 518 288 518 Q348 518 390.5 499 Q433 480 459.5 446 Q486 412 498.5 365 Q511 318 511 263 Q511 201 497 150 Q483 99 454.5 63 Q426 27 382 7.5 Q338 -12 278 -12 Z M281 29 Q371 29 415.5 87.5 Q460 146 460 255 Q460 362 418 419 Q376 476 286 476 Q195 476 147 418.5 Q99 361 99 254 Q99 148 144.5 88.5 Q190 29 281 29 Z " />
<glyph glyph-name="odieresis" unicode="&#xf6;" horiz-adv-x="559" d="M233 656 Q233 636 220.5 624 Q208 612 187 612 Q167 612 154.5 624 Q142 636 142 656 Q142 676 154.5 688 Q167 700 187 700 Q208 700 220.5 688 Q233 676 233 656 Z M430 656 Q430 636 417 624 Q404 612 384 612 Q364 612 351.5 624 Q339 636 339 656 Q339 676 351.5 688 Q364 700 384 700 Q404 700 417 688 Q430 676 430 656 Z M278 -12 Q218 -12 174.5 8 Q131 28 103 63.5 Q75 99 62 148 Q49 197 49 255 Q49 313 63.5 361.5 Q78 410 107.5 444.5 Q137 479 182 498.5 Q227 518 288 518 Q348 518 390.5 499 Q433 480 459.5 446 Q486 412 498.5 365 Q511 318 511 263 Q511 201 497 150 Q483 99 454.5 63 Q426 27 382 7.5 Q338 -12 278 -12 Z M281 29 Q371 29 415.5 87.5 Q460 146 460 255 Q460 362 418 419 Q376 476 286 476 Q195 476 147 418.5 Q99 361 99 254 Q99 148 144.5 88.5 Q190 29 281 29 Z " />
<glyph glyph-name="ograve" unicode="&#xf2;" horiz-adv-x="559" d="M278 -12 Q218 -12 174.5 8 Q131 28 103 63.5 Q75 99 62 148 Q49 197 49 255 Q49 313 63.5 361.5 Q78 410 107.5 444.5 Q137 479 182 498.5 Q227 518 288 518 Q348 518 390.5 499 Q433 480 459.5 446 Q486 412 498.5 365 Q511 318 511 263 Q511 201 497 150 Q483 99 454.5 63 Q426 27 382 7.5 Q338 -12 278 -12 Z M281 29 Q371 29 415.5 87.5 Q460 146 460 255 Q460 362 418 419 Q376 476 286 476 Q195 476 147 418.5 Q99 361 99 254 Q99 148 144.5 88.5 Q190 29 281 29 Z M357 571 L183 708 L226 753 L382 596 L357 571 Z " />
<glyph glyph-name="ohungarumlaut" unicode="&#x151;" horiz-adv-x="559" d="M182 574 L155 595 L286 774 L335 733 L182 574 Z M337 574 L309 595 L442 772 L491 733 L337 574 Z M278 -12 Q218 -12 174.5 8 Q131 28 103 63.5 Q75 99 62 148 Q49 197 49 255 Q49 313 63.5 361.5 Q78 410 107.5 444.5 Q137 479 182 498.5 Q227 518 288 518 Q348 518 390.5 499 Q433 480 459.5 446 Q486 412 498.5 365 Q511 318 511 263 Q511 201 497 150 Q483 99 454.5 63 Q426 27 382 7.5 Q338 -12 278 -12 Z M281 29 Q371 29 415.5 87.5 Q460 146 460 255 Q460 362 418 419 Q376 476 286 476 Q195 476 147 418.5 Q99 361 99 254 Q99 148 144.5 88.5 Q190 29 281 29 Z " />
<glyph glyph-name="omacron" unicode="&#x14d;" horiz-adv-x="559" d="M138 620 L138 667 L439 667 L439 620 L138 620 Z M278 -12 Q218 -12 174.5 8 Q131 28 103 63.5 Q75 99 62 148 Q49 197 49 255 Q49 313 63.5 361.5 Q78 410 107.5 444.5 Q137 479 182 498.5 Q227 518 288 518 Q348 518 390.5 499 Q433 480 459.5 446 Q486 412 498.5 365 Q511 318 511 263 Q511 201 497 150 Q483 99 454.5 63 Q426 27 382 7.5 Q338 -12 278 -12 Z M281 29 Q371 29 415.5 87.5 Q460 146 460 255 Q460 362 418 419 Q376 476 286 476 Q195 476 147 418.5 Q99 361 99 254 Q99 148 144.5 88.5 Q190 29 281 29 Z " />
<glyph glyph-name="oslash" unicode="&#xf8;" horiz-adv-x="559" d="M106 -92 L154 17 Q98 49 73.5 111.5 Q49 174 49 255 Q49 313 63.5 361.5 Q78 410 107.5 444.5 Q137 479 182 498.5 Q227 518 288 518 Q311 518 331.5 515.5 Q352 513 371 506 L406 584 L458 584 L415 487 Q466 455 488.5 396.5 Q511 338 511 263 Q511 201 497 150 Q483 99 454.5 63 Q426 27 382 7.5 Q338 -12 278 -12 Q255 -12 235.5 -9 Q216 -6 198 -1 L159 -92 L106 -92 Z M99 254 Q99 185 117.5 135 Q136 85 173 57 L351 465 Q337 468 321 471 Q305 474 286 474 Q195 474 147 417.5 Q99 361 99 254 Z M281 27 Q371 27 415.5 86.5 Q460 146 460 255 Q460 391 394 444 L217 37 Q244 27 281 27 Z " />
<glyph glyph-name="oslashacute" unicode="&#x1ff;" horiz-adv-x="559" d="M106 -92 L154 17 Q98 49 73.5 111.5 Q49 174 49 255 Q49 313 63.5 361.5 Q78 410 107.5 444.5 Q137 479 182 498.5 Q227 518 288 518 Q311 518 331.5 515.5 Q352 513 371 506 L406 584 L458 584 L415 487 Q466 455 488.5 396.5 Q511 338 511 263 Q511 201 497 150 Q483 99 454.5 63 Q426 27 382 7.5 Q338 -12 278 -12 Q255 -12 235.5 -9 Q216 -6 198 -1 L159 -92 L106 -92 Z M99 254 Q99 185 117.5 135 Q136 85 173 57 L351 465 Q337 468 321 471 Q305 474 286 474 Q195 474 147 417.5 Q99 361 99 254 Z M281 27 Q371 27 415.5 86.5 Q460 146 460 255 Q460 391 394 444 L217 37 Q244 27 281 27 Z M249 571 L224 597 L379 754 L423 708 L249 571 Z " />
<glyph glyph-name="otilde" unicode="&#xf5;" horiz-adv-x="559" d="M278 -12 Q218 -12 174.5 8 Q131 28 103 63.5 Q75 99 62 148 Q49 197 49 255 Q49 313 63.5 361.5 Q78 410 107.5 444.5 Q137 479 182 498.5 Q227 518 288 518 Q348 518 390.5 499 Q433 480 459.5 446 Q486 412 498.5 365 Q511 318 511 263 Q511 201 497 150 Q483 99 454.5 63 Q426 27 382 7.5 Q338 -12 278 -12 Z M281 29 Q371 29 415.5 87.5 Q460 146 460 255 Q460 362 418 419 Q376 476 286 476 Q195 476 147 418.5 Q99 361 99 254 Q99 148 144.5 88.5 Q190 29 281 29 Z M431 636 Q413 612 394.5 602.5 Q376 593 347 600 L214 635 Q204 638 198 632 L155 590 L127 611 L151 645 Q168 667 185 675 Q202 683 231 676 L366 640 Q376 637 382 643 L423 684 L451 665 L431 636 Z " />
<glyph glyph-name="racute" unicode="&#x155;" horiz-adv-x="415" d="M177 571 L152 597 L307 754 L351 708 L177 571 Z M52 0 L52 36 L106 42 Q117 44 119.5 47.5 Q122 51 122 62 L122 436 Q122 453 109 457 L50 476 L57 508 L159 508 L168 443 Q184 456 201.5 469.5 Q219 483 238.5 494 Q258 505 279.5 511.5 Q301 518 324 518 Q341 518 356 515.5 Q371 513 385 509 L385 381 L349 384 L335 466 Q334 471 332.5 472.5 Q331 474 323 474 Q301 474 278.5 465.5 Q256 457 235.5 445 Q215 433 198 419 Q181 405 171 394 L171 61 Q171 49 173.5 46 Q176 43 187 41 L276 35 L276 0 L52 0 Z " />
<glyph glyph-name="rcaron" unicode="&#x159;" horiz-adv-x="415" d="M204 574 L90 694 L121 721 L242 614 L367 720 L396 694 L274 574 L204 574 Z M52 0 L52 36 L106 42 Q117 44 119.5 47.5 Q122 51 122 62 L122 436 Q122 453 109 457 L50 476 L57 508 L159 508 L168 443 Q184 456 201.5 469.5 Q219 483 238.5 494 Q258 505 279.5 511.5 Q301 518 324 518 Q341 518 356 515.5 Q371 513 385 509 L385 381 L349 384 L335 466 Q334 471 332.5 472.5 Q331 474 323 474 Q301 474 278.5 465.5 Q256 457 235.5 445 Q215 433 198 419 Q181 405 171 394 L171 61 Q171 49 173.5 46 Q176 43 187 41 L276 35 L276 0 L52 0 Z " />
<glyph glyph-name="rcommaaccent" unicode="&#x157;" horiz-adv-x="415" d="M127 -232 L151 -138 Q152 -131 147 -128 L117 -113 L132 -65 Q170 -70 189.5 -79.5 Q209 -89 209 -118 Q209 -129 202.5 -143 Q196 -157 191 -168 L151 -241 L127 -232 Z M52 0 L52 36 L106 42 Q117 44 119.5 47.5 Q122 51 122 62 L122 436 Q122 453 109 457 L50 476 L57 508 L159 508 L168 443 Q184 456 201.5 469.5 Q219 483 238.5 494 Q258 505 279.5 511.5 Q301 518 324 518 Q341 518 356 515.5 Q371 513 385 509 L385 381 L349 384 L335 466 Q334 471 332.5 472.5 Q331 474 323 474 Q301 474 278.5 465.5 Q256 457 235.5 445 Q215 433 198 419 Q181 405 171 394 L171 61 Q171 49 173.5 46 Q176 43 187 41 L276 35 L276 0 L52 0 Z " />
<glyph glyph-name="sacute" unicode="&#x15b;" horiz-adv-x="441" d="M174 571 L149 597 L304 754 L348 708 L174 571 Z M343 377 L331 451 Q330 455 328.5 458 Q327 461 320 464 Q309 468 284 472.5 Q259 477 231 477 Q197 477 173 469 Q149 461 134 447.5 Q119 434 112 416 Q105 398 105 379 Q105 353 115.5 336.5 Q126 320 144 309 Q162 298 185.5 290.5 Q209 283 234 277 Q262 269 291 260 Q320 251 343.5 235 Q367 219 381.5 194 Q396 169 396 131 Q396 90 379.5 62.5 Q363 35 336.5 18.5 Q310 2 277 -5 Q244 -12 210 -12 Q181 -12 153.5 -8.5 Q126 -5 102.5 0.5 Q79 6 62.5 11.5 Q46 17 39 20 L39 134 L76 132 L87 62 Q88 58 89.5 55 Q91 52 98 50 Q109 46 139.5 38 Q170 30 215 30 Q274 30 309 53.5 Q344 77 344 131 Q344 157 333.5 174 Q323 191 306 202.5 Q289 214 266.5 221 Q244 228 220 234 Q189 242 159.5 250.5 Q130 259 107 274 Q84 289 70 313 Q56 337 56 375 Q56 415 72.5 442.5 Q89 470 115.5 486.5 Q142 503 175 510.5 Q208 518 242 518 Q267 518 289.5 515 Q312 512 330 507.5 Q348 503 361 499 Q374 495 380 492 L380 374 L343 377 Z " />
<glyph glyph-name="scaron" unicode="&#x161;" horiz-adv-x="441" d="M191 574 L77 694 L108 721 L229 614 L354 720 L383 694 L261 574 L191 574 Z M343 377 L331 451 Q330 455 328.5 458 Q327 461 320 464 Q309 468 284 472.5 Q259 477 231 477 Q197 477 173 469 Q149 461 134 447.5 Q119 434 112 416 Q105 398 105 379 Q105 353 115.5 336.5 Q126 320 144 309 Q162 298 185.5 290.5 Q209 283 234 277 Q262 269 291 260 Q320 251 343.5 235 Q367 219 381.5 194 Q396 169 396 131 Q396 90 379.5 62.5 Q363 35 336.5 18.5 Q310 2 277 -5 Q244 -12 210 -12 Q181 -12 153.5 -8.5 Q126 -5 102.5 0.5 Q79 6 62.5 11.5 Q46 17 39 20 L39 134 L76 132 L87 62 Q88 58 89.5 55 Q91 52 98 50 Q109 46 139.5 38 Q170 30 215 30 Q274 30 309 53.5 Q344 77 344 131 Q344 157 333.5 174 Q323 191 306 202.5 Q289 214 266.5 221 Q244 228 220 234 Q189 242 159.5 250.5 Q130 259 107 274 Q84 289 70 313 Q56 337 56 375 Q56 415 72.5 442.5 Q89 470 115.5 486.5 Q142 503 175 510.5 Q208 518 242 518 Q267 518 289.5 515 Q312 512 330 507.5 Q348 503 361 499 Q374 495 380 492 L380 374 L343 377 Z " />
<glyph glyph-name="scedilla" unicode="&#x15f;" horiz-adv-x="441" d="M144 -178 Q159 -181 179 -181 Q257 -181 257 -125 Q257 -104 242.5 -90 Q228 -76 182 -75 L191 -11 Q165 -10 140 -6 Q115 -2 94.5 2.5 Q74 7 59.5 12 Q45 17 39 20 L39 134 L76 132 L87 62 Q88 58 89.5 55 Q91 52 98 50 Q109 46 139.5 38 Q170 30 215 30 Q274 30 309 53.5 Q344 77 344 131 Q344 157 333.5 174 Q323 191 306 202.5 Q289 214 266.5 221 Q244 228 220 234 Q189 242 159.5 250.5 Q130 259 107 274 Q84 289 70 313 Q56 337 56 375 Q56 415 72.5 442.5 Q89 470 115.5 486.5 Q142 503 175 510.5 Q208 518 242 518 Q267 518 289.5 515 Q312 512 330 507.5 Q348 503 361 499 Q374 495 380 492 L380 374 L343 377 L331 451 Q330 455 328.5 458 Q327 461 320 464 Q309 468 284 472.5 Q259 477 231 477 Q197 477 173 469 Q149 461 134 447.5 Q119 434 112 416 Q105 398 105 379 Q105 353 115.5 336.5 Q126 320 144 309 Q162 298 185.5 290.5 Q209 283 234 277 Q262 269 291 260 Q320 251 343.5 235 Q367 219 381.5 194 Q396 169 396 131 Q396 93 382 67 Q368 41 345 24 Q322 7 292.5 -1 Q263 -9 232 -11 L228 -42 Q264 -50 285 -69.5 Q306 -89 306 -123 Q306 -139 300 -156.5 Q294 -174 279.5 -188 Q265 -202 241.5 -211.5 Q218 -221 183 -221 Q161 -221 138 -217 L144 -178 Z " />
<glyph glyph-name="scircumflex" unicode="&#x15d;" horiz-adv-x="441" d="M350 581 L226 686 L103 579 L73 605 L191 726 L261 726 L381 606 L350 581 Z M343 377 L331 451 Q330 455 328.5 458 Q327 461 320 464 Q309 468 284 472.5 Q259 477 231 477 Q197 477 173 469 Q149 461 134 447.5 Q119 434 112 416 Q105 398 105 379 Q105 353 115.5 336.5 Q126 320 144 309 Q162 298 185.5 290.5 Q209 283 234 277 Q262 269 291 260 Q320 251 343.5 235 Q367 219 381.5 194 Q396 169 396 131 Q396 90 379.5 62.5 Q363 35 336.5 18.5 Q310 2 277 -5 Q244 -12 210 -12 Q181 -12 153.5 -8.5 Q126 -5 102.5 0.5 Q79 6 62.5 11.5 Q46 17 39 20 L39 134 L76 132 L87 62 Q88 58 89.5 55 Q91 52 98 50 Q109 46 139.5 38 Q170 30 215 30 Q274 30 309 53.5 Q344 77 344 131 Q344 157 333.5 174 Q323 191 306 202.5 Q289 214 266.5 221 Q244 228 220 234 Q189 242 159.5 250.5 Q130 259 107 274 Q84 289 70 313 Q56 337 56 375 Q56 415 72.5 442.5 Q89 470 115.5 486.5 Q142 503 175 510.5 Q208 518 242 518 Q267 518 289.5 515 Q312 512 330 507.5 Q348 503 361 499 Q374 495 380 492 L380 374 L343 377 Z " />
<glyph glyph-name="scommaaccent" unicode="&#x219;" horiz-adv-x="441" d="M179 -232 L203 -138 Q204 -131 199 -128 L169 -113 L184 -65 Q222 -70 241.5 -79.5 Q261 -89 261 -118 Q261 -129 254.5 -143 Q248 -157 243 -168 L203 -241 L179 -232 Z M343 377 L331 451 Q330 455 328.5 458 Q327 461 320 464 Q309 468 284 472.5 Q259 477 231 477 Q197 477 173 469 Q149 461 134 447.5 Q119 434 112 416 Q105 398 105 379 Q105 353 115.5 336.5 Q126 320 144 309 Q162 298 185.5 290.5 Q209 283 234 277 Q262 269 291 260 Q320 251 343.5 235 Q367 219 381.5 194 Q396 169 396 131 Q396 90 379.5 62.5 Q363 35 336.5 18.5 Q310 2 277 -5 Q244 -12 210 -12 Q181 -12 153.5 -8.5 Q126 -5 102.5 0.5 Q79 6 62.5 11.5 Q46 17 39 20 L39 134 L76 132 L87 62 Q88 58 89.5 55 Q91 52 98 50 Q109 46 139.5 38 Q170 30 215 30 Q274 30 309 53.5 Q344 77 344 131 Q344 157 333.5 174 Q323 191 306 202.5 Q289 214 266.5 221 Q244 228 220 234 Q189 242 159.5 250.5 Q130 259 107 274 Q84 289 70 313 Q56 337 56 375 Q56 415 72.5 442.5 Q89 470 115.5 486.5 Q142 503 175 510.5 Q208 518 242 518 Q267 518 289.5 515 Q312 512 330 507.5 Q348 503 361 499 Q374 495 380 492 L380 374 L343 377 Z " />
<glyph glyph-name="tbar" unicode="&#x167;" horiz-adv-x="391" d="M358 16 Q332 4 302.5 -4 Q273 -12 238 -12 Q178 -12 147 18 Q116 48 116 102 L116 245 L34 245 L34 287 L116 287 L116 457 Q116 462 115 464.5 Q114 467 108 467 L34 467 L34 497 Q61 501 77.5 508 Q94 515 104.5 529 Q115 543 120.5 566 Q126 589 131 625 L166 625 L166 518 Q166 513 167 510.5 Q168 508 174 508 L324 508 L324 467 L166 467 L166 287 L324 287 L324 245 L166 245 L166 126 Q166 77 183.5 54 Q201 31 246 31 Q272 31 296.5 38.5 Q321 46 343 55 L358 16 Z " />
<glyph glyph-name="tcaron" unicode="&#x165;" horiz-adv-x="400" d="M243 574 Q250 594 256 615 Q262 636 262 664 Q262 690 256.5 705.5 Q251 721 246 730 L293 756 Q308 742 314.5 732 Q321 722 321 705 Q321 697 319.5 686 Q318 675 313 659 Q303 629 294 607.5 Q285 586 276 564 L243 574 Z M367 16 Q341 4 311.5 -4 Q282 -12 247 -12 Q187 -12 156 18 Q125 48 125 102 L125 457 Q125 462 124 464.5 Q123 467 117 467 L43 467 L43 497 Q70 501 86.5 508 Q103 515 113.5 529 Q124 543 129.5 566 Q135 589 140 625 L175 625 L175 518 Q175 513 176 510.5 Q177 508 183 508 L333 508 L333 467 L175 467 L175 126 Q175 77 192.5 54 Q210 31 255 31 Q281 31 305.5 38.5 Q330 46 352 55 L367 16 Z " />
<glyph glyph-name="uni0163" unicode="&#x163;" horiz-adv-x="391" d="M153 -178 Q168 -181 188 -181 Q266 -181 266 -125 Q266 -104 251.5 -90 Q237 -76 191 -75 L200 -8 Q158 1 137 29 Q116 57 116 102 L116 457 Q116 462 115 464.5 Q114 467 108 467 L34 467 L34 497 Q61 501 77.5 508 Q94 515 104.5 529 Q115 543 120.5 566 Q126 589 131 625 L166 625 L166 518 Q166 513 167 510.5 Q168 508 174 508 L324 508 L324 467 L166 467 L166 126 Q166 77 183.5 54 Q201 31 246 31 Q272 31 296.5 38.5 Q321 46 343 55 L358 16 Q333 4 303.5 -3.5 Q274 -11 241 -12 L237 -42 Q273 -50 294 -69.5 Q315 -89 315 -123 Q315 -139 309 -156.5 Q303 -174 288.5 -188 Q274 -202 250.5 -211.5 Q227 -221 192 -221 Q170 -221 147 -217 L153 -178 Z " />
<glyph glyph-name="uni021B" unicode="&#x21b;" horiz-adv-x="391" d="M188 -232 L212 -138 Q213 -131 208 -128 L178 -113 L193 -65 Q231 -70 250.5 -79.5 Q270 -89 270 -118 Q270 -129 263.5 -143 Q257 -157 252 -168 L212 -241 L188 -232 Z M358 16 Q332 4 302.5 -4 Q273 -12 238 -12 Q178 -12 147 18 Q116 48 116 102 L116 457 Q116 462 115 464.5 Q114 467 108 467 L34 467 L34 497 Q61 501 77.5 508 Q94 515 104.5 529 Q115 543 120.5 566 Q126 589 131 625 L166 625 L166 518 Q166 513 167 510.5 Q168 508 174 508 L324 508 L324 467 L166 467 L166 126 Q166 77 183.5 54 Q201 31 246 31 Q272 31 296.5 38.5 Q321 46 343 55 L358 16 Z " />
<glyph glyph-name="uacute" unicode="&#xfa;" horiz-adv-x="630" d="M278 571 L253 597 L408 754 L452 708 L278 571 Z M479 0 L472 79 Q456 64 435 47.5 Q414 31 388.5 18 Q363 5 332.5 -3.5 Q302 -12 268 -12 Q226 -12 198 1 Q170 14 153.5 38.5 Q137 63 130.5 97.5 Q124 132 124 174 L124 435 Q124 447 121.5 452.5 Q119 458 108 460 L54 477 L61 508 L173 508 L173 181 Q173 144 177.5 115.5 Q182 87 193.5 68 Q205 49 225.5 39 Q246 29 278 29 Q308 29 335.5 38.5 Q363 48 388 63 Q413 78 434 96 Q455 114 472 131 L472 436 Q472 448 469.5 453 Q467 458 456 460 L399 477 L405 508 L521 508 L521 63 Q521 43 533 42 L590 35 L590 0 L479 0 Z " />
<glyph glyph-name="ubreve" unicode="&#x16d;" horiz-adv-x="625" d="M472 0 L465 79 Q449 64 428 47.5 Q407 31 381.5 18 Q356 5 325.5 -3.5 Q295 -12 261 -12 Q219 -12 191 1 Q163 14 146.5 38.5 Q130 63 123.5 97.5 Q117 132 117 174 L117 435 Q117 447 114.5 452.5 Q112 458 101 460 L47 477 L54 508 L166 508 L166 181 Q166 144 170.5 115.5 Q175 87 186.5 68 Q198 49 218.5 39 Q239 29 271 29 Q301 29 328.5 38.5 Q356 48 381 63 Q406 78 427 96 Q448 114 465 131 L465 436 Q465 448 462.5 453 Q460 458 449 460 L392 477 L398 508 L514 508 L514 63 Q514 43 526 42 L583 35 L583 0 L472 0 Z M449 704 Q441 676 429.5 652 Q418 628 401 610.5 Q384 593 359.5 583 Q335 573 301 573 Q267 573 242.5 582.5 Q218 592 201 609 Q184 626 173.5 650 Q163 674 157 704 L199 718 Q211 666 233 639.5 Q255 613 302 613 Q326 613 342.5 620.5 Q359 628 371.5 641.5 Q384 655 393 674.5 Q402 694 410 718 L449 704 Z " />
<glyph glyph-name="ucircumflex" unicode="&#xfb;" horiz-adv-x="630" d="M434 581 L310 686 L187 579 L157 605 L275 726 L345 726 L465 606 L434 581 Z M479 0 L472 79 Q456 64 435 47.5 Q414 31 388.5 18 Q363 5 332.5 -3.5 Q302 -12 268 -12 Q226 -12 198 1 Q170 14 153.5 38.5 Q137 63 130.5 97.5 Q124 132 124 174 L124 435 Q124 447 121.5 452.5 Q119 458 108 460 L54 477 L61 508 L173 508 L173 181 Q173 144 177.5 115.5 Q182 87 193.5 68 Q205 49 225.5 39 Q246 29 278 29 Q308 29 335.5 38.5 Q363 48 388 63 Q413 78 434 96 Q455 114 472 131 L472 436 Q472 448 469.5 453 Q467 458 456 460 L399 477 L405 508 L521 508 L521 63 Q521 43 533 42 L590 35 L590 0 L479 0 Z " />
<glyph glyph-name="udieresis" unicode="&#xfc;" horiz-adv-x="630" d="M258 656 Q258 636 245.5 624 Q233 612 212 612 Q192 612 179.5 624 Q167 636 167 656 Q167 676 179.5 688 Q192 700 212 700 Q233 700 245.5 688 Q258 676 258 656 Z M455 656 Q455 636 442 624 Q429 612 409 612 Q389 612 376.5 624 Q364 636 364 656 Q364 676 376.5 688 Q389 700 409 700 Q429 700 442 688 Q455 676 455 656 Z M479 0 L472 79 Q456 64 435 47.5 Q414 31 388.5 18 Q363 5 332.5 -3.5 Q302 -12 268 -12 Q226 -12 198 1 Q170 14 153.5 38.5 Q137 63 130.5 97.5 Q124 132 124 174 L124 435 Q124 447 121.5 452.5 Q119 458 108 460 L54 477 L61 508 L173 508 L173 181 Q173 144 177.5 115.5 Q182 87 193.5 68 Q205 49 225.5 39 Q246 29 278 29 Q308 29 335.5 38.5 Q363 48 388 63 Q413 78 434 96 Q455 114 472 131 L472 436 Q472 448 469.5 453 Q467 458 456 460 L399 477 L405 508 L521 508 L521 63 Q521 43 533 42 L590 35 L590 0 L479 0 Z " />
<glyph glyph-name="ugrave" unicode="&#xf9;" horiz-adv-x="625" d="M472 0 L465 79 Q449 64 428 47.5 Q407 31 381.5 18 Q356 5 325.5 -3.5 Q295 -12 261 -12 Q219 -12 191 1 Q163 14 146.5 38.5 Q130 63 123.5 97.5 Q117 132 117 174 L117 435 Q117 447 114.5 452.5 Q112 458 101 460 L47 477 L54 508 L166 508 L166 181 Q166 144 170.5 115.5 Q175 87 186.5 68 Q198 49 218.5 39 Q239 29 271 29 Q301 29 328.5 38.5 Q356 48 381 63 Q406 78 427 96 Q448 114 465 131 L465 436 Q465 448 462.5 453 Q460 458 449 460 L392 477 L398 508 L514 508 L514 63 Q514 43 526 42 L583 35 L583 0 L472 0 Z M372 571 L198 708 L241 753 L397 596 L372 571 Z " />
<glyph glyph-name="uhungarumlaut" unicode="&#x171;" horiz-adv-x="625" d="M472 0 L465 79 Q449 64 428 47.5 Q407 31 381.5 18 Q356 5 325.5 -3.5 Q295 -12 261 -12 Q219 -12 191 1 Q163 14 146.5 38.5 Q130 63 123.5 97.5 Q117 132 117 174 L117 435 Q117 447 114.5 452.5 Q112 458 101 460 L47 477 L54 508 L166 508 L166 181 Q166 144 170.5 115.5 Q175 87 186.5 68 Q198 49 218.5 39 Q239 29 271 29 Q301 29 328.5 38.5 Q356 48 381 63 Q406 78 427 96 Q448 114 465 131 L465 436 Q465 448 462.5 453 Q460 458 449 460 L392 477 L398 508 L514 508 L514 63 Q514 43 526 42 L583 35 L583 0 L472 0 Z M217 574 L190 595 L321 774 L370 733 L217 574 Z M372 574 L344 595 L477 772 L526 733 L372 574 Z " />
<glyph glyph-name="umacron" unicode="&#x16b;" horiz-adv-x="625" d="M472 0 L465 79 Q449 64 428 47.5 Q407 31 381.5 18 Q356 5 325.5 -3.5 Q295 -12 261 -12 Q219 -12 191 1 Q163 14 146.5 38.5 Q130 63 123.5 97.5 Q117 132 117 174 L117 435 Q117 447 114.5 452.5 Q112 458 101 460 L47 477 L54 508 L166 508 L166 181 Q166 144 170.5 115.5 Q175 87 186.5 68 Q198 49 218.5 39 Q239 29 271 29 Q301 29 328.5 38.5 Q356 48 381 63 Q406 78 427 96 Q448 114 465 131 L465 436 Q465 448 462.5 453 Q460 458 449 460 L392 477 L398 508 L514 508 L514 63 Q514 43 526 42 L583 35 L583 0 L472 0 Z M153 620 L153 667 L454 667 L454 620 L153 620 Z " />
<glyph glyph-name="uogonek" unicode="&#x173;" horiz-adv-x="625" d="M576 -189 Q561 -197 541 -202 Q521 -207 501 -207 Q468 -207 445 -190 Q422 -173 422 -135 Q422 -115 430 -96 Q438 -77 451.5 -59.5 Q465 -42 482.5 -27 Q500 -12 519 0 L472 0 L465 79 Q449 64 428 47.5 Q407 31 381.5 18 Q356 5 325.5 -3.5 Q295 -12 261 -12 Q219 -12 191 1 Q163 14 146.5 38.5 Q130 63 123.5 97.5 Q117 132 117 174 L117 435 Q117 447 114.5 452.5 Q112 458 101 460 L47 477 L54 508 L166 508 L166 181 Q166 144 170.5 115.5 Q175 87 186.5 68 Q198 49 218.5 39 Q239 29 271 29 Q301 29 328.5 38.5 Q356 48 381 63 Q406 78 427 96 Q448 114 465 131 L465 436 Q465 448 462.5 453 Q460 458 449 460 L392 477 L398 508 L514 508 L514 63 Q514 43 526 42 L583 35 L583 0 Q560 -11 540 -25.5 Q520 -40 505 -57 Q490 -74 481.5 -92 Q473 -110 473 -128 Q473 -145 482.5 -155.5 Q492 -166 510 -166 Q523 -166 538 -162.5 Q553 -159 564 -154 L576 -189 Z " />
<glyph glyph-name="uring" unicode="&#x16f;" horiz-adv-x="630" d="M406 635 Q406 593 381.5 573 Q357 553 314 553 Q272 553 248 572.5 Q224 592 224 633 Q224 675 250 696 Q276 717 314 717 Q354 717 380 698.5 Q406 680 406 635 Z M314 589 Q339 589 351 601.5 Q363 614 363 635 Q363 656 350.5 669 Q338 682 314 682 Q293 682 279.5 669 Q266 656 266 633 Q266 613 277.5 601 Q289 589 314 589 Z M479 0 L472 79 Q456 64 435 47.5 Q414 31 388.5 18 Q363 5 332.5 -3.5 Q302 -12 268 -12 Q226 -12 198 1 Q170 14 153.5 38.5 Q137 63 130.5 97.5 Q124 132 124 174 L124 435 Q124 447 121.5 452.5 Q119 458 108 460 L54 477 L61 508 L173 508 L173 181 Q173 144 177.5 115.5 Q182 87 193.5 68 Q205 49 225.5 39 Q246 29 278 29 Q308 29 335.5 38.5 Q363 48 388 63 Q413 78 434 96 Q455 114 472 131 L472 436 Q472 448 469.5 453 Q467 458 456 460 L399 477 L405 508 L521 508 L521 63 Q521 43 533 42 L590 35 L590 0 L479 0 Z " />
<glyph glyph-name="utilde" unicode="&#x169;" horiz-adv-x="625" d="M472 0 L465 79 Q449 64 428 47.5 Q407 31 381.5 18 Q356 5 325.5 -3.5 Q295 -12 261 -12 Q219 -12 191 1 Q163 14 146.5 38.5 Q130 63 123.5 97.5 Q117 132 117 174 L117 435 Q117 447 114.5 452.5 Q112 458 101 460 L47 477 L54 508 L166 508 L166 181 Q166 144 170.5 115.5 Q175 87 186.5 68 Q198 49 218.5 39 Q239 29 271 29 Q301 29 328.5 38.5 Q356 48 381 63 Q406 78 427 96 Q448 114 465 131 L465 436 Q465 448 462.5 453 Q460 458 449 460 L392 477 L398 508 L514 508 L514 63 Q514 43 526 42 L583 35 L583 0 L472 0 Z M446 636 Q428 612 409.5 602.5 Q391 593 362 600 L229 635 Q219 638 213 632 L170 590 L142 611 L166 645 Q183 667 200 675 Q217 683 246 676 L381 640 Q391 637 397 643 L438 684 L466 665 L446 636 Z " />
<glyph glyph-name="wacute" unicode="&#x1e83;" horiz-adv-x="814" d="M351 571 L326 597 L481 754 L525 708 L351 571 Z M534 0 L416 443 L288 0 L227 0 L75 448 Q72 457 67.5 460 Q63 463 54 465 L11 474 L20 508 L193 508 L193 474 L124 466 L259 47 L385 493 L449 493 L570 50 L698 466 L628 474 L637 508 L802 508 L802 474 L766 468 Q751 466 747 462 Q743 458 740 448 Q720 379 707 338 Q694 297 685 270 Q676 243 668.5 223 Q661 203 652 176.5 Q643 150 629.5 109 Q616 68 596 0 L534 0 Z " />
<glyph glyph-name="wcircumflex" unicode="&#x175;" horiz-adv-x="814" d="M537 581 L413 686 L290 579 L260 605 L378 726 L448 726 L568 606 L537 581 Z M534 0 L416 443 L288 0 L227 0 L75 448 Q72 457 67.5 460 Q63 463 54 465 L11 474 L20 508 L193 508 L193 474 L124 466 L259 47 L385 493 L449 493 L570 50 L698 466 L628 474 L637 508 L802 508 L802 474 L766 468 Q751 466 747 462 Q743 458 740 448 Q720 379 707 338 Q694 297 685 270 Q676 243 668.5 223 Q661 203 652 176.5 Q643 150 629.5 109 Q616 68 596 0 L534 0 Z " />
</font>
</svg>
