<?xml version="1.0" encoding="utf-8" ?>
<svg xmlns="http://www.w3.org/2000/svg" xmlns:xlink="http://www.w3.org/1999/xlink" width="116" height="116">
	<defs>
		<clipPath id="clip_0">
			<rect x="-789" y="-704" width="1682" height="11838" clip-rule="evenodd"/>
		</clipPath>
	</defs>
	<g clip-path="url(#clip_0)">
		<path fill="rgb(35,114,185)" stroke="none" d="M115.336 21.2778L94.719 0.663602C94.2942 0.238797 93.718 0 93.1172 0L25.8281 0C22.0803 0 19.0313 3.04908 19.0313 6.79688L19.0313 11.1161C7.90137 15.4819 0 26.33 0 38.9894C0 40.2404 1.01455 41.255 2.26563 41.255L29.9269 41.255C31.1779 41.255 32.1925 40.2404 32.1925 38.9894L32.1925 11.3281C32.1925 10.077 31.1779 9.0625 29.9269 9.0625C27.7433 9.0625 25.6145 9.29971 23.5625 9.74604L23.5625 6.79688C23.5625 5.54761 24.5789 4.53125 25.8281 4.53125L90.8516 4.53125L90.8516 18.3516C90.8516 22.0994 93.9006 25.1484 97.6484 25.1484L111.469 25.1484L111.469 109.203C111.469 110.452 110.452 111.469 109.203 111.469L25.8281 111.469C24.5789 111.469 23.5625 110.452 23.5625 109.203L23.5625 89.7942C23.5625 88.5431 22.548 87.5286 21.2969 87.5286C20.0458 87.5286 19.0313 88.5431 19.0313 89.7942L19.0313 109.203C19.0313 112.951 22.0803 116 25.8281 116L109.203 116C112.951 116 116 112.951 116 109.203L116 22.8799C116 22.279 115.761 21.7026 115.336 21.2778ZM95.3828 18.3516C95.3828 19.6008 96.3992 20.6172 97.6484 20.6172L108.267 20.6172L95.3828 7.73484L95.3828 18.3516ZM27.661 13.6941L27.661 36.7237L4.63139 36.7237C5.71459 24.5238 15.4613 14.7773 27.661 13.6941Z" fill-rule="evenodd"/>
	</g>
	<defs>
		<clipPath id="clip_1">
			<rect x="-789" y="-704" width="1682" height="11838" clip-rule="evenodd"/>
		</clipPath>
	</defs>
	<g clip-path="url(#clip_1)">
		<path fill="rgb(35,114,185)" stroke="none" transform="translate(19 79)" d="M4.26725 0.7325C3.8025 0.26725 3.1575 0 2.5 0C1.8425 0 1.1975 0.26725 0.7325 0.7325C0.2675 1.1975 0 1.8425 0 2.5C0 3.1575 0.26725 3.8025 0.7325 4.26725C1.1975 4.7325 1.8425 5 2.5 5C3.1575 5 3.8025 4.7325 4.26725 4.26725C4.7325 3.8025 5 3.1575 5 2.5C5 1.8425 4.7325 1.1975 4.26725 0.7325Z"/>
	</g>
	<defs>
		<clipPath id="clip_2">
			<rect x="-789" y="-704" width="1682" height="11838" clip-rule="evenodd"/>
		</clipPath>
	</defs>
	<g clip-path="url(#clip_2)">
		<path fill="rgb(35,114,185)" stroke="none" transform="translate(8 17)" d="M29.9999 0C28.7457 0 27.7287 1.01703 27.7287 2.27117L27.7287 27.7287L2.27117 27.7287C1.01703 27.7287 0 28.7457 0 29.9999C0 46.542 13.4578 60 29.9999 60C46.542 60 60 46.542 60 29.9999C60 13.4578 46.542 0 29.9999 0ZM32.2711 4.64295C37.5879 5.1149 42.4393 7.22936 46.3151 10.473L32.2711 24.5168L32.2711 4.64295ZM4.64295 32.2711C5.79512 45.249 16.7278 55.4577 29.9999 55.4577C44.0373 55.4577 55.4577 44.0373 55.4577 29.9999C55.4577 23.7973 53.2276 18.1058 49.5276 13.6845L31.6061 31.6058L31.6051 31.6065C31.1941 32.0171 30.6267 32.2711 29.9999 32.2711L4.64295 32.2711Z" fill-rule="evenodd"/>
	</g>
	<defs>
		<clipPath id="clip_3">
			<rect x="-789" y="-704" width="1682" height="11838" clip-rule="evenodd"/>
		</clipPath>
	</defs>
	<g clip-path="url(#clip_3)">
		<path fill="rgb(35,114,185)" stroke="none" transform="translate(35 71)" d="M64.2202 0C60.4818 0 57.4404 3.01301 57.4404 6.71648C57.4404 7.64469 57.6316 8.52925 57.9767 9.33411L44.9565 22.2327C44.0618 21.8008 43.0575 21.5579 41.9971 21.5579C40.9618 21.5579 39.9806 21.7898 39.1021 22.2024L30.456 13.6371C30.7557 12.8795 30.922 12.0558 30.922 11.1939C30.922 7.49044 27.8806 4.47743 24.1422 4.47743C20.4038 4.47743 17.3624 7.49044 17.3624 11.1939C17.3624 12.1973 17.5873 13.1493 17.9873 14.0052L9.69445 22.2206C8.81104 21.8019 7.82255 21.567 6.77981 21.567C3.04142 21.567 0 24.5801 0 28.2835C0 31.987 3.04142 35 6.77981 35C10.5182 35 13.5596 31.987 13.5596 28.2835C13.5596 27.2454 13.3205 26.2616 12.8943 25.3834L21.1408 17.2139C22.0464 17.659 23.0651 17.9104 24.1427 17.9104C25.3597 17.9104 26.5016 17.5896 27.4899 17.0312L35.8921 25.3549C35.46 26.2381 35.2173 27.2286 35.2173 28.2743C35.2173 31.9778 38.2587 34.9908 41.9971 34.9908C45.7355 34.9908 48.7769 31.9778 48.7769 28.2743C48.7769 27.2539 48.545 26.2863 48.1321 25.4194L61.0307 12.6413C61.9819 13.1459 63.0678 13.433 64.2202 13.433C67.9586 13.433 71 10.4199 71 6.71648C71 3.01301 67.9586 0 64.2202 0ZM61.9598 6.71625C61.9598 7.95074 62.9736 8.95508 64.2197 8.95508C65.4659 8.95508 66.4797 7.95074 66.4797 6.71625C66.4797 5.48176 65.4659 4.47743 64.2197 4.47743C62.9738 4.47743 61.9598 5.48176 61.9598 6.71625ZM21.8823 11.1939C21.8823 12.4284 22.8961 13.4327 24.1422 13.4327C25.3884 13.4327 26.4022 12.4284 26.4022 11.1939C26.4022 9.95941 25.3884 8.95508 24.1422 8.95508C22.8961 8.95508 21.8823 9.95941 21.8823 11.1939ZM41.9966 30.5132C40.7505 30.5132 39.7367 29.5088 39.7367 28.2743C39.7367 27.0399 40.7505 26.0355 41.9966 26.0355C43.2428 26.0355 44.2566 27.0399 44.2566 28.2743C44.2566 29.5088 43.2428 30.5132 41.9966 30.5132ZM6.77959 30.5226C5.53346 30.5226 4.51965 29.5182 4.51965 28.2837C4.51965 27.0493 5.53346 26.0449 6.77959 26.0449C7.38638 26.0449 7.93667 26.2843 8.34301 26.6711C8.35205 26.6805 8.35996 26.6906 8.36923 26.6998C8.38007 26.7105 8.39182 26.7195 8.4029 26.7298C8.79613 27.1328 9.03952 27.6804 9.03952 28.2837C9.03952 29.518 8.02571 30.5226 6.77959 30.5226Z" fill-rule="evenodd"/>
	</g>
	<defs>
		<clipPath id="clip_4">
			<rect x="-789" y="-704" width="1682" height="11838" clip-rule="evenodd"/>
		</clipPath>
	</defs>
	<g clip-path="url(#clip_4)">
		<path fill="rgb(35,114,185)" stroke="none" transform="translate(74 53)" d="M14.6642 0L2.33584 0C1.04599 0 0 1.1195 0 2.5C0 3.8805 1.04575 5 2.33584 5L14.6642 5C15.954 5 17 3.8805 17 2.5C17 1.1195 15.954 0 14.6642 0Z"/>
	</g>
	<defs>
		<clipPath id="clip_5">
			<rect x="-789" y="-704" width="1682" height="11838" clip-rule="evenodd"/>
		</clipPath>
	</defs>
	<g clip-path="url(#clip_5)">
		<path fill="rgb(35,114,185)" stroke="none" transform="translate(96 53)" d="M4.26725 0.7325C3.8025 0.2675 3.1575 0 2.5 0C1.8425 0 1.1975 0.26725 0.7325 0.7325C0.2675 1.1975 0 1.8425 0 2.5C0 3.1575 0.26725 3.8025 0.7325 4.26725C1.1975 4.73225 1.84 5 2.5 5C3.1575 5 3.8025 4.7325 4.26725 4.26725C4.73225 3.8025 5 3.1575 5 2.5C5 1.8425 4.7325 1.1975 4.26725 0.7325Z"/>
	</g>
	<defs>
		<clipPath id="clip_6">
			<rect x="-789" y="-704" width="1682" height="11838" clip-rule="evenodd"/>
		</clipPath>
	</defs>
	<g clip-path="url(#clip_6)">
		<path fill="rgb(35,114,185)" stroke="none" transform="translate(74 32)" d="M29.7489 0L2.25108 0C1.00803 0 0 1.1195 0 2.5C0 3.8805 1.00781 5 2.25108 5L29.7489 5C30.992 5 32 3.8805 32 2.5C32 1.1195 30.992 0 29.7489 0Z"/>
	</g>
	<defs>
		<clipPath id="clip_7">
			<rect x="-789" y="-704" width="1682" height="11838" clip-rule="evenodd"/>
		</clipPath>
	</defs>
	<g clip-path="url(#clip_7)">
		<path fill="rgb(35,114,185)" stroke="none" transform="translate(74 42)" d="M29.7489 0L2.25108 0C1.00803 0 0 1.1195 0 2.5C0 3.8805 1.00781 5 2.25108 5L29.7489 5C30.992 5 32 3.8805 32 2.5C32 1.1195 30.992 0 29.7489 0Z"/>
	</g>
</svg>
