<?xml version="1.0" encoding="utf-8" ?>
<svg xmlns="http://www.w3.org/2000/svg" xmlns:xlink="http://www.w3.org/1999/xlink" width="74" height="74">
	<defs>
		<clipPath id="clip_0">
			<rect x="-225.70898" y="-5167.46" width="1665.1801" height="11719.62" clip-rule="evenodd"/>
		</clipPath>
	</defs>
	<g clip-path="url(#clip_0)">
		<path fill="#2272b8" stroke="none" transform="matrix(0.99 0 0 0.99 1 0.340088)" d="M63.1615 10.8402C48.7101 -3.61339 25.2936 -3.61339 10.8422 10.8402C-3.07277 24.7419 -3.59381 46.9817 9.27911 61.5119C9.27911 61.5119 13.0768 65.7812 18.1829 68.8536C32.435 77.2529 50.9935 75.337 63.1615 63.1672C77.6128 48.7137 77.6128 25.2937 63.1615 10.8402ZM39.5695 48.7118L47.4947 42.2573C51.5386 38.989 53.858 34.1375 53.858 28.9468C53.858 19.513 46.1832 11.8382 36.7494 11.8382C27.3156 11.8382 19.6407 19.513 19.6407 28.9468L25.2809 28.9468C25.2809 22.623 30.4256 17.4784 36.7494 17.4784C43.0732 17.4784 48.2178 22.623 48.2178 28.9468C48.2178 32.4259 46.6622 35.6784 43.9412 37.8771L33.9293 46.0312L33.9293 51.6956L39.5695 51.6956L39.5695 48.7118ZM39.7434 62.5671L34.1032 62.5671L34.1032 56.9269L39.7434 56.9269L39.7434 62.5671Z" fill-rule="evenodd"/>
	</g>
</svg>
