<?xml version="1.0" encoding="utf-8" ?>
<svg xmlns="http://www.w3.org/2000/svg" xmlns:xlink="http://www.w3.org/1999/xlink" width="23" height="22">
	<defs>
		<clipPath id="clip_0">
			<rect x="19.041016" y="0.063648224" width="3.5679951" height="3.5679882" clip-rule="evenodd"/>
		</clipPath>
	</defs>
	<g clip-path="url(#clip_0)">
		<path fill="rgb(255,255,255)" stroke="none" transform="translate(19.041 0.0636406)" d="M2.64653 0.217958C2.3906 0.0706565 2.09714 0.00133795 1.8019 6.37119e-05L1.78368 0C0.699877 0 -0.167624 0.979889 0.0275892 2.10039C0.0765199 2.38181 0.195279 2.6485 0.370933 2.87385C0.714404 3.31442 1.22206 3.56341 1.76928 3.56793L1.78432 3.56799C2.75968 3.56799 3.5599 2.77427 3.56793 1.79878C3.57322 1.15401 3.23848 0.55869 2.64653 0.217958"/>
	</g>
	<defs>
		<clipPath id="clip_1">
			<rect x="-268" y="-1817" width="1366" height="11838" clip-rule="evenodd"/>
		</clipPath>
	</defs>
	<g clip-path="url(#clip_1)">
		<path fill="rgb(255,255,255)" stroke="none" transform="translate(19 1)" d="M1.00117 1.99998L0.956367 1.99969C0.842934 1.99889 0.729559 1.97907 0.625898 1.93319C0.0638759 1.68471 -0.161847 1.06276 0.123764 0.498568C0.281656 0.186734 0.609725 -0.00232095 0.959396 2.15175e-05L1.00003 0.000307185C1.19055 0.00156412 1.37947 0.0518987 1.53873 0.156396C1.94058 0.420238 2.10395 0.905015 1.93235 1.37288C1.79114 1.75773 1.41113 2.00272 1.00117 1.99998"/>
	</g>
	<defs>
		<clipPath id="clip_2">
			<rect x="-268" y="-1817" width="1366" height="11838" clip-rule="evenodd"/>
		</clipPath>
	</defs>
	<g clip-path="url(#clip_2)">
		<path fill="rgb(255,255,255)" stroke="none" transform="translate(0 9)" d="M1.51235 5.35705e-05L1.49976 0C0.67954 0 0.00680146 0.667381 5.15667e-05 1.48771C-0.00675189 2.31467 0.660523 2.99314 1.4876 3L1.50008 3C2.32035 3 2.9932 2.33262 2.99995 1.51235C3.00675 0.685327 2.33937 0.00685702 1.51235 5.35705e-05"/>
	</g>
	<defs>
		<clipPath id="clip_3">
			<rect x="-268" y="-1817" width="1366" height="11838" clip-rule="evenodd"/>
		</clipPath>
	</defs>
	<g clip-path="url(#clip_3)">
		<path fill="rgb(255,255,255)" stroke="none" transform="translate(1 10)" d="M0.966864 1.99998L0.966864 1.99998C0.592012 1.99746 0.245445 1.78167 0.0948754 1.43832C-0.224549 0.709787 0.309273 0 0.999778 0L1.00829 0C1.57166 0.00462905 2.02388 0.476849 1.99902 1.04456C1.97531 1.58633 1.50903 2.00363 0.966864 1.99998"/>
	</g>
	<defs>
		<clipPath id="clip_4">
			<rect x="-268" y="-1817" width="1366" height="11838" clip-rule="evenodd"/>
		</clipPath>
	</defs>
	<g clip-path="url(#clip_4)">
		<path fill="rgb(255,255,255)" stroke="none" transform="translate(6 3)" d="M1.51237 5.35695e-05L1.49979 0C0.679528 0 0.00674776 0.667369 5.15617e-05 1.48763C-0.00675178 2.31469 0.660565 2.99314 1.48757 2.99995L1.50016 3C2.32036 3 2.9932 2.33263 2.99995 1.51237C3.00675 0.685261 2.33938 0.00680333 1.51237 5.35695e-05"/>
	</g>
	<defs>
		<clipPath id="clip_5">
			<rect x="-268" y="-1817" width="1366" height="11838" clip-rule="evenodd"/>
		</clipPath>
	</defs>
	<g clip-path="url(#clip_5)">
		<path fill="rgb(255,255,255)" stroke="none" transform="translate(7 4)" d="M1.00022 2L1.00022 2C0.551143 1.99697 0.148524 1.70051 0.0347553 1.26606C-0.139126 0.601886 0.363833 0 0.999761 0C1.44878 0.00302857 1.85128 0.299429 1.96517 0.733829C2.13928 1.398 1.63626 2 1.00022 2"/>
	</g>
	<defs>
		<clipPath id="clip_6">
			<rect x="-268" y="-1817" width="1366" height="11838" clip-rule="evenodd"/>
		</clipPath>
	</defs>
	<g clip-path="url(#clip_6)">
		<path fill="rgb(255,255,255)" stroke="none" transform="translate(11 8)" d="M1.51237 5.35695e-05L1.49979 0C0.679528 0 0.00680133 0.667369 5.15576e-05 1.48763C-0.00675178 2.31469 0.660618 2.99314 1.48763 2.99995L1.50016 3C2.32036 3 2.9932 2.33263 2.99995 1.51237C3.00675 0.685261 2.33938 0.0068569 1.51237 5.35695e-05"/>
	</g>
	<defs>
		<clipPath id="clip_7">
			<rect x="-268" y="-1817" width="1366" height="11838" clip-rule="evenodd"/>
		</clipPath>
	</defs>
	<g clip-path="url(#clip_7)">
		<path fill="rgb(255,255,255)" stroke="none" transform="translate(12 8)" d="M1.0003 2L1.0003 2C0.551237 1.99697 0.148695 1.70057 0.0348017 1.26611C-0.13921 0.601943 0.363739 0 0.999782 0L1.00824 5.71429e-05C1.55965 0.00457143 2.00454 0.456914 1.99997 1.00829C1.99556 1.55509 1.54708 2 1.0003 2"/>
	</g>
	<defs>
		<clipPath id="clip_8">
			<rect x="-268" y="-1817" width="1366" height="11838" clip-rule="evenodd"/>
		</clipPath>
	</defs>
	<g clip-path="url(#clip_8)">
		<path fill="rgb(255,255,255)" stroke="none" transform="translate(14 3)" d="M0 5.55291L5.55084 0L6 0.447029L0.449163 6L0 5.55291Z"/>
	</g>
	<defs>
		<clipPath id="clip_9">
			<rect x="-268" y="-1817" width="1366" height="11838" clip-rule="evenodd"/>
		</clipPath>
	</defs>
	<g clip-path="url(#clip_9)">
		<path fill="rgb(255,255,255)" stroke="none" transform="translate(9 5)" d="M0 0.428923L0.428923 0L3 2.57102L2.57108 3L0 0.428923Z"/>
	</g>
	<defs>
		<clipPath id="clip_10">
			<rect x="-268" y="-1817" width="1366" height="11838" clip-rule="evenodd"/>
		</clipPath>
	</defs>
	<g clip-path="url(#clip_10)">
		<path fill="rgb(255,255,255)" stroke="none" transform="translate(2 5)" d="M0 4.5451L4.5451 0L5 0.454839L0.454834 5L0 4.5451Z"/>
	</g>
	<defs>
		<clipPath id="clip_11">
			<rect width="22" height="22" clip-rule="evenodd"/>
		</clipPath>
	</defs>
	<g clip-path="url(#clip_11)">
		<path fill="rgb(255,255,255)" stroke="none" transform="translate(18 7)" d="M0 15L4 15L4 0L0 0L0 15Z"/>
	</g>
	<defs>
		<clipPath id="clip_12">
			<rect width="22" height="22" clip-rule="evenodd"/>
		</clipPath>
	</defs>
	<g clip-path="url(#clip_12)">
		<path fill="rgb(255,255,255)" stroke="none" transform="translate(19 7)" d="M6.97658e-05 14L0 0L3 0L3 14L6.97658e-05 14Z"/>
	</g>
	<defs>
		<clipPath id="clip_13">
			<rect width="22" height="22" clip-rule="evenodd"/>
		</clipPath>
	</defs>
	<g clip-path="url(#clip_13)">
		<path fill="rgb(255,255,255)" stroke="none" transform="translate(12 13)" d="M0 9L4 9L4 0L0 0L0 9Z"/>
	</g>
	<defs>
		<clipPath id="clip_14">
			<rect width="22" height="22" clip-rule="evenodd"/>
		</clipPath>
	</defs>
	<g clip-path="url(#clip_14)">
		<path fill="rgb(255,255,255)" stroke="none" transform="translate(13 14)" d="M0 8L3 8L3 0L0 0L0 8Z"/>
	</g>
	<defs>
		<clipPath id="clip_15">
			<rect width="22" height="22" clip-rule="evenodd"/>
		</clipPath>
	</defs>
	<g clip-path="url(#clip_15)">
		<path fill="rgb(255,255,255)" stroke="none" transform="translate(6 13)" d="M0 9L4 9L4 0L0 0L0 9Z"/>
	</g>
	<defs>
		<clipPath id="clip_16">
			<rect width="22" height="22" clip-rule="evenodd"/>
		</clipPath>
	</defs>
	<g clip-path="url(#clip_16)">
		<path fill="rgb(255,255,255)" stroke="none" transform="translate(7 13)" d="M0 8L3 8L3 0L0 0L0 8Z"/>
	</g>
	<defs>
		<clipPath id="clip_17">
			<rect width="22" height="22" clip-rule="evenodd"/>
		</clipPath>
	</defs>
	<g clip-path="url(#clip_17)">
		<path fill="rgb(255,255,255)" stroke="none" transform="translate(0 15)" d="M0 0L0 7L3.99994 7L4 0L0 0Z"/>
	</g>
	<defs>
		<clipPath id="clip_18">
			<rect width="22" height="22" clip-rule="evenodd"/>
		</clipPath>
	</defs>
	<g clip-path="url(#clip_18)">
		<path fill="rgb(255,255,255)" stroke="none" transform="translate(1 16)" d="M0 6L3 6L3 0L0 0L0 6Z"/>
	</g>
</svg>
