<?xml version="1.0" encoding="UTF-8"?>
<svg width="18px" height="18px" viewBox="0 0 18 18" version="1.1" xmlns="http://www.w3.org/2000/svg" xmlns:xlink="http://www.w3.org/1999/xlink">
    <!-- Generator: Sketch 51.2 (57519) - http://www.bohemiancoding.com/sketch -->
    <title>arrow-alt-circle-dow</title>
    <desc>Created with Sketch.</desc>
    <defs></defs>
    <g id="Symbols" stroke="none" stroke-width="1" fill="none" fill-rule="evenodd">
        <g id="button/green/arrow" transform="translate(-124.000000, -10.000000)" fill="#FFFFFF">
            <path d="M132.999979,10.5312869 C134.570287,10.5312869 136.023409,10.9238642 137.359343,11.7090184 C138.695277,12.4941726 139.755822,13.5547172 140.540976,14.8906515 C141.32613,16.2265858 141.718708,17.6797072 141.718708,19.2500161 C141.718708,20.820325 141.32613,22.2734464 140.540976,23.6093807 C139.755822,24.945315 138.695277,26.0058595 137.359343,26.7910137 C136.023409,27.5761679 134.570287,27.9687453 132.999979,27.9687453 C131.42967,27.9687453 129.976548,27.5761679 128.640614,26.7910137 C127.30468,26.0058595 126.244135,24.945315 125.458981,23.6093807 C124.673827,22.2734464 124.281249,20.820325 124.281249,19.2500161 C124.281249,17.6797072 124.673827,16.2265858 125.458981,14.8906515 C126.244135,13.5547172 127.30468,12.4941726 128.640614,11.7090184 C129.976548,10.9238642 131.42967,10.5312869 132.999979,10.5312869 Z M132.999979,26.2812493 C134.265601,26.2812493 135.437473,25.9648438 136.515595,25.3320328 C137.593718,24.6992219 138.449184,23.8437553 139.081995,22.7656327 C139.714806,21.6875101 140.031212,20.5156381 140.031212,19.2500161 C140.031212,17.9843941 139.714806,16.8125221 139.081995,15.7343995 C138.449184,14.6562769 137.593718,13.8008103 136.515595,13.1679993 C135.437473,12.5351884 134.265601,12.2187829 132.999979,12.2187829 C131.734357,12.2187829 130.562485,12.5351884 129.484362,13.1679993 C128.406239,13.8008103 127.550773,14.6562769 126.917962,15.7343995 C126.285151,16.8125221 125.968745,17.9843941 125.968745,19.2500161 C125.968745,20.5156381 126.285151,21.6875101 126.917962,22.7656327 C127.550773,23.8437553 128.406239,24.6992219 129.484362,25.3320328 C130.562485,25.9648438 131.734357,26.2812493 132.999979,26.2812493 Z M131.874981,15.1719008 C131.874981,15.0547138 131.915997,14.9551043 131.998028,14.8730734 C132.080059,14.7910425 132.179668,14.7500268 132.296855,14.7500268 L133.703102,14.7500268 C133.820289,14.7500268 133.919898,14.7910425 134.001929,14.8730734 C134.08396,14.9551043 134.124976,15.0547138 134.124976,15.1719008 L134.124976,19.2500161 L136.480439,19.2500161 C136.667938,19.2500161 136.796844,19.3379065 136.867157,19.5136873 C136.937469,19.6894682 136.914032,19.8359524 136.796844,19.9531394 L133.316384,23.4335999 C133.222634,23.5273498 133.117166,23.5742245 132.999979,23.5742245 C132.882792,23.5742245 132.789042,23.5273498 132.718729,23.4335999 L129.238269,19.9531394 C129.097644,19.8359524 129.062488,19.6894682 129.1328,19.5136873 C129.203113,19.3379065 129.332019,19.2500161 129.519518,19.2500161 L131.874981,19.2500161 L131.874981,15.1719008 Z" id="arrow-alt-circle-dow" transform="translate(132.999979, 19.250016) rotate(-90.000000) translate(-132.999979, -19.250016) "></path>
        </g>
    </g>
</svg>