<?xml version="1.0" encoding="utf-8" ?>
<svg xmlns="http://www.w3.org/2000/svg" xmlns:xlink="http://www.w3.org/1999/xlink" width="168" height="157">
	<defs>
		<clipPath id="clip_0">
			<rect x="-922" y="-4606" width="1366" height="11838" clip-rule="evenodd"/>
		</clipPath>
	</defs>
	<g clip-path="url(#clip_0)">
		<path fill="rgb(244,123,39)" stroke="none" transform="translate(0 0.000244141)" d="M47.878 154.244C47.881 155.487 48.916 156.5 50.185 156.5L117.384 156.5C118.653 156.5 119.688 155.487 119.691 154.244C119.702 150.577 118.316 147.162 115.791 144.631C113.266 142.098 109.857 140.704 106.192 140.704L105.356 140.704L100.82 122.559L155.554 122.559C162.253 122.559 167.703 117.109 167.703 110.411L167.703 12.148C167.703 5.449 162.253 0 155.554 0L12.148 0C5.449 0 0 5.449 0 12.148L0 110.74C0 117.439 5.449 122.888 12.148 122.888L66.523 122.888L62.069 140.704L61.377 140.704C57.712 140.704 54.303 142.098 51.778 144.631C49.253 147.162 47.868 150.577 47.878 154.244ZM4.592 12.126C4.592 7.971 7.971 4.592 12.126 4.592L155.577 4.592C159.731 4.592 163.111 7.971 163.111 12.126L163.111 95.56L4.592 95.56L4.592 12.126ZM13.8394 22.2002L13.8394 83.8002C13.8394 85.0332 14.8204 86.0672 16.0264 86.1052C16.0264 86.1052 16.1354 86.1072 16.1364 86.1072C16.8234 86.1072 17.4024 85.8922 17.8094 85.4852C18.2164 85.0782 18.4314 84.4992 18.4314 83.8122L18.4314 22.1892C18.4314 20.7942 17.5304 19.8942 16.1354 19.8942L16.0264 19.8952C14.8204 19.9342 13.8394 20.9682 13.8394 22.2002ZM4.592 110.762C4.592 114.917 7.971 118.297 12.126 118.297L155.356 118.297C159.705 118.297 163.111 114.891 163.111 110.543L163.111 100.481L4.592 100.481L4.592 110.762ZM100.397 140.704L67.172 140.704L71.626 122.888L95.943 122.888L100.397 140.704ZM61.378 145.296C57.527 145.296 54.261 147.631 53.057 151.243L52.835 151.908L115.015 151.908L114.793 151.243C113.589 147.631 110.323 145.296 106.472 145.296L61.378 145.296Z" fill-rule="evenodd"/>
	</g>
	<defs>
		<clipPath id="clip_1">
			<rect x="-922" y="-4606" width="1366" height="11838" clip-rule="evenodd"/>
		</clipPath>
	</defs>
	<g clip-path="url(#clip_1)">
		<path fill="rgb(244,123,39)" stroke="none" transform="translate(25.2617 22.7366)" d="M2.29587 4.592C1.59487 4.592 1.00887 4.369 0.600866 3.948C0.185866 3.519 -0.0221345 2.91 0.00186554 2.187C0.0408655 0.982 1.07487 0 2.30587 0L7.89887 0C8.59987 0 9.18587 0.223 9.59387 0.645C10.0089 1.074 10.2159 1.683 10.1929 2.406C10.1529 3.611 9.11987 4.592 7.88787 4.592L2.29587 4.592Z"/>
	</g>
	<defs>
		<clipPath id="clip_2">
			<rect x="-922" y="-4606" width="1366" height="11838" clip-rule="evenodd"/>
		</clipPath>
	</defs>
	<g clip-path="url(#clip_2)">
		<path fill="rgb(244,123,39)" stroke="none" transform="translate(25.2734 33.9402)" d="M2.29573 4.592C1.59473 4.592 1.00873 4.369 0.600728 3.948C0.185728 3.519 -0.0212722 2.91 0.00172776 2.187C0.0417278 0.981 1.07473 0 2.30573 0L13.5007 0C14.2017 0 14.7877 0.223 15.1957 0.645C15.6107 1.073 15.8177 1.682 15.7947 2.405C15.7547 3.611 14.7207 4.592 13.4897 4.592L2.29573 4.592Z"/>
	</g>
	<defs>
		<clipPath id="clip_3">
			<rect x="-922" y="-4606" width="1366" height="11838" clip-rule="evenodd"/>
		</clipPath>
	</defs>
	<g clip-path="url(#clip_3)">
		<path fill="rgb(244,123,39)" stroke="none" transform="translate(25.2617 45.1438)" d="M2.29587 4.592C1.59487 4.592 1.00887 4.369 0.600873 3.947C0.184873 3.518 -0.0221268 2.909 0.00187323 2.186C0.0418732 0.981 1.07487 0 2.30587 0L7.89887 0C8.59987 0 9.18587 0.223 9.59387 0.645C10.0089 1.074 10.2159 1.683 10.1929 2.405C10.1529 3.611 9.11987 4.592 7.88787 4.592L2.29587 4.592Z"/>
	</g>
	<defs>
		<clipPath id="clip_4">
			<rect x="-922" y="-4606" width="1366" height="11838" clip-rule="evenodd"/>
		</clipPath>
	</defs>
	<g clip-path="url(#clip_4)">
		<path fill="rgb(244,123,39)" stroke="none" transform="translate(25.2734 56.3474)" d="M2.29573 4.592C1.59473 4.592 1.00873 4.369 0.600728 3.948C0.185728 3.519 -0.0212722 2.91 0.00172776 2.187C0.0417278 0.981 1.07473 0 2.30673 0L13.5007 0C14.2017 0 14.7877 0.223 15.1957 0.645C15.6107 1.073 15.8177 1.682 15.7947 2.405C15.7547 3.611 14.7207 4.592 13.4897 4.592L2.29573 4.592Z"/>
	</g>
	<defs>
		<clipPath id="clip_5">
			<rect x="-922" y="-4606" width="1366" height="11838" clip-rule="evenodd"/>
		</clipPath>
	</defs>
	<g clip-path="url(#clip_5)">
		<path fill="rgb(244,123,39)" stroke="none" transform="translate(25.2617 67.551)" d="M2.29587 4.592C1.59487 4.592 1.00887 4.369 0.600866 3.947C0.185866 3.519 -0.0221345 2.91 0.00186554 2.187C0.0418655 0.981 1.07487 0 2.30587 0L7.89887 0C8.59987 0 9.18587 0.223 9.59387 0.645C10.0089 1.074 10.2159 1.683 10.1929 2.405C10.1529 3.611 9.11987 4.592 7.88787 4.592L2.29587 4.592Z"/>
	</g>
	<defs>
		<clipPath id="clip_6">
			<rect x="-922" y="-4606" width="1366" height="11838" clip-rule="evenodd"/>
		</clipPath>
	</defs>
	<g clip-path="url(#clip_6)">
		<path fill="rgb(244,123,39)" stroke="none" transform="translate(25.2734 78.7546)" d="M2.29573 4.592C1.59473 4.592 1.00873 4.369 0.600728 3.947C0.185728 3.518 -0.0212722 2.91 0.00172776 2.187C0.0417278 0.982 1.07473 0 2.30573 0L13.5007 0C14.2017 0 14.7877 0.223 15.1957 0.645C15.6107 1.073 15.8177 1.682 15.7947 2.405C15.7547 3.611 14.7207 4.592 13.4897 4.592L2.29573 4.592Z"/>
	</g>
	<defs>
		<clipPath id="clip_7">
			<path d="M145 18L57 18Q56.795 18 56.5931 18.0186Q56.3913 18.0373 56.1943 18.0744Q55.9972 18.1116 55.8066 18.1669Q55.616 18.2222 55.4333 18.2953Q55.2507 18.3683 55.0775 18.4585Q54.9043 18.5487 54.742 18.6553Q54.5797 18.7619 54.4296 18.884Q54.2795 19.0062 54.1429 19.1429Q54.0062 19.2795 53.8841 19.4296Q53.7619 19.5797 53.6553 19.742Q53.5487 19.9043 53.4585 20.0775Q53.3683 20.2507 53.2953 20.4333Q53.2222 20.616 53.1669 20.8066Q53.1116 20.9972 53.0744 21.1943Q53.0373 21.3913 53.0186 21.5931Q53 21.795 53 22L53 80Q53 80.205 53.0186 80.4069Q53.0373 80.6087 53.0744 80.8058Q53.1116 81.0028 53.1669 81.1934Q53.2222 81.384 53.2953 81.5667Q53.3683 81.7493 53.4585 81.9225Q53.5487 82.0957 53.6553 82.258Q53.7619 82.4203 53.8841 82.5704Q54.0062 82.7205 54.1429 82.8571Q54.2795 82.9938 54.4296 83.116Q54.5797 83.2381 54.742 83.3447Q54.9043 83.4513 55.0775 83.5415Q55.2507 83.6317 55.4333 83.7048Q55.616 83.7778 55.8066 83.8331Q55.9972 83.8885 56.1943 83.9256Q56.3913 83.9627 56.5931 83.9814Q56.795 84 57 84L145 84Q145.205 84 145.407 83.9814Q145.609 83.9627 145.806 83.9256Q146.003 83.8885 146.193 83.8331Q146.384 83.7778 146.567 83.7048Q146.749 83.6317 146.923 83.5415Q147.096 83.4513 147.258 83.3447Q147.42 83.2381 147.57 83.116Q147.72 82.9938 147.857 82.8571Q147.994 82.7205 148.116 82.5704Q148.238 82.4203 148.345 82.258Q148.451 82.0957 148.542 81.9225Q148.632 81.7493 148.705 81.5667Q148.778 81.384 148.833 81.1934Q148.888 81.0028 148.926 80.8058Q148.963 80.6087 148.981 80.4069Q149 80.205 149 80L149 22Q149 21.795 148.981 21.5931Q148.963 21.3913 148.926 21.1943Q148.888 20.9972 148.833 20.8066Q148.778 20.616 148.705 20.4333Q148.632 20.2507 148.542 20.0775Q148.451 19.9043 148.345 19.742Q148.238 19.5797 148.116 19.4296Q147.994 19.2795 147.857 19.1429Q147.72 19.0062 147.57 18.884Q147.42 18.7619 147.258 18.6553Q147.096 18.5487 146.923 18.4585Q146.749 18.3683 146.567 18.2953Q146.384 18.2222 146.193 18.1669Q146.003 18.1116 145.806 18.0744Q145.609 18.0373 145.407 18.0186Q145.205 18 145 18Z" clip-rule="evenodd"/>
		</clipPath>
	</defs>
	<g clip-path="url(#clip_7)">
		<path fill="none" stroke="rgb(244,123,39)" stroke-width="8" stroke-miterlimit="4" transform="translate(53 18)" d="M4 0L92 0Q92.205 0 92.4069 0.0186425Q92.6087 0.037285 92.8057 0.0744179Q93.0028 0.111551 93.1934 0.166871Q93.384 0.222192 93.5667 0.295249Q93.7493 0.368306 93.9225 0.458503Q94.0957 0.5487 94.258 0.655303Q94.4203 0.761905 94.5704 0.884043Q94.7205 1.00618 94.8571 1.14286Q94.9938 1.27953 95.116 1.42964Q95.2381 1.57974 95.3447 1.74204Q95.4513 1.90434 95.5415 2.07752Q95.6317 2.2507 95.7048 2.43334Q95.7778 2.61598 95.8331 2.8066Q95.8885 2.99721 95.9256 3.19425Q95.9627 3.39129 95.9814 3.59314Q96 3.79499 96 4L96 62Q96 62.205 95.9814 62.4069Q95.9627 62.6087 95.9256 62.8058Q95.8885 63.0028 95.8331 63.1934Q95.7778 63.384 95.7048 63.5667Q95.6317 63.7493 95.5415 63.9225Q95.4513 64.0957 95.3447 64.258Q95.2381 64.4203 95.116 64.5704Q94.9938 64.7205 94.8571 64.8571Q94.7205 64.9938 94.5704 65.116Q94.4203 65.2381 94.258 65.3447Q94.0957 65.4513 93.9225 65.5415Q93.7493 65.6317 93.5667 65.7048Q93.384 65.7778 93.1934 65.8331Q93.0028 65.8885 92.8057 65.9256Q92.6087 65.9627 92.4069 65.9814Q92.205 66 92 66L4 66Q3.79499 66 3.59314 65.9814Q3.39129 65.9627 3.19425 65.9256Q2.99721 65.8885 2.8066 65.8331Q2.61598 65.7778 2.43334 65.7048Q2.2507 65.6317 2.07752 65.5415Q1.90434 65.4513 1.74204 65.3447Q1.57974 65.2381 1.42964 65.116Q1.27953 64.9938 1.14286 64.8571Q1.00618 64.7205 0.884043 64.5704Q0.761905 64.4203 0.655303 64.258Q0.5487 64.0957 0.458503 63.9225Q0.368306 63.7493 0.295249 63.5667Q0.222192 63.384 0.166871 63.1934Q0.111551 63.0028 0.0744179 62.8058Q0.037285 62.6087 0.0186425 62.4069Q0 62.205 0 62L0 4Q0 3.79499 0.0186425 3.59314Q0.037285 3.39129 0.0744179 3.19425Q0.111551 2.99721 0.166871 2.8066Q0.222192 2.61598 0.295249 2.43334Q0.368306 2.2507 0.458503 2.07752Q0.5487 1.90434 0.655303 1.74204Q0.761905 1.57974 0.884043 1.42964Q1.00618 1.27953 1.14286 1.14286Q1.27953 1.00618 1.42964 0.884043Q1.57974 0.761905 1.74204 0.655303Q1.90434 0.5487 2.07752 0.458503Q2.2507 0.368306 2.43334 0.295249Q2.61598 0.222192 2.8066 0.166871Q2.99721 0.111551 3.19425 0.0744179Q3.39129 0.037285 3.59314 0.0186425Q3.79499 0 4 0Z"/>
	</g>
	<defs>
		<clipPath id="clip_8">
			<rect x="-922" y="-4606" width="1366" height="11838" clip-rule="evenodd"/>
		</clipPath>
	</defs>
	<g clip-path="url(#clip_8)">
		<path fill="none" stroke="rgb(244,123,39)" stroke-width="4" stroke-miterlimit="4" transform="translate(55 49)" d="M0.5 1.5L91 1.5"/>
	</g>
	<defs>
		<clipPath id="clip_9">
			<rect x="-922" y="-4606" width="1366" height="11838" clip-rule="evenodd"/>
		</clipPath>
	</defs>
	<g clip-path="url(#clip_9)">
		<path fill="none" stroke="rgb(244,123,39)" stroke-width="4" stroke-miterlimit="4" transform="translate(84 20)" d="M0.25 0.5L0.25 61.5"/>
	</g>
	<defs>
		<clipPath id="clip_10">
			<rect x="-922" y="-4606" width="1366" height="11838" clip-rule="evenodd"/>
		</clipPath>
	</defs>
	<g clip-path="url(#clip_10)">
		<path fill="none" stroke="rgb(244,123,39)" stroke-width="4" stroke-miterlimit="4" transform="translate(116 20)" d="M0.25 0.5L0.25 61.5"/>
	</g>
</svg>
