<?xml version="1.0" encoding="utf-8" ?>
<svg xmlns="http://www.w3.org/2000/svg" xmlns:xlink="http://www.w3.org/1999/xlink" width="168" height="157">
	<defs>
		<clipPath id="clip_0">
			<rect x="-458" y="-4606" width="1682" height="11838" clip-rule="evenodd"/>
		</clipPath>
	</defs>
	<g clip-path="url(#clip_0)">
		<path fill="rgb(244,123,39)" stroke="none" transform="translate(0 0.000244141)" d="M47.878 154.244C47.881 155.487 48.916 156.5 50.185 156.5L117.384 156.5C118.653 156.5 119.688 155.487 119.691 154.244C119.702 150.577 118.316 147.162 115.791 144.631C113.266 142.098 109.857 140.704 106.192 140.704L105.356 140.704L100.82 122.559L155.554 122.559C162.253 122.559 167.703 117.109 167.703 110.411L167.703 12.148C167.703 5.449 162.253 0 155.554 0L12.148 0C5.449 0 0 5.449 0 12.148L0 110.74C0 117.439 5.449 122.888 12.148 122.888L66.523 122.888L62.069 140.704L61.377 140.704C57.712 140.704 54.303 142.098 51.778 144.631C49.253 147.162 47.868 150.577 47.878 154.244ZM4.592 12.126C4.592 7.971 7.971 4.592 12.126 4.592L155.577 4.592C159.731 4.592 163.111 7.971 163.111 12.126L163.111 95.56L4.592 95.56L4.592 12.126ZM13.8394 83.8002C13.8394 85.0332 14.8204 86.0672 16.0264 86.1052C16.0264 86.1052 16.1354 86.1072 16.1364 86.1072C16.8234 86.1072 17.4024 85.8922 17.8094 85.4852C18.2164 85.0782 18.4314 84.4992 18.4314 83.8122L18.4314 22.1892C18.4314 20.7942 17.5304 19.8942 16.1354 19.8942L16.0264 19.8952C14.8204 19.9342 13.8394 20.9682 13.8394 22.2002L13.8394 83.8002ZM4.592 110.762C4.592 114.917 7.971 118.297 12.126 118.297L155.356 118.297C159.705 118.297 163.111 114.891 163.111 110.543L163.111 100.481L4.592 100.481L4.592 110.762ZM100.397 140.704L67.172 140.704L71.626 122.888L95.943 122.888L100.397 140.704ZM61.378 145.296C57.527 145.296 54.261 147.631 53.057 151.243L52.835 151.908L115.015 151.908L114.793 151.243C113.589 147.631 110.323 145.296 106.472 145.296L61.378 145.296Z" fill-rule="evenodd"/>
	</g>
	<defs>
		<clipPath id="clip_1">
			<rect x="-458" y="-4606" width="1682" height="11838" clip-rule="evenodd"/>
		</clipPath>
	</defs>
	<g clip-path="url(#clip_1)">
		<path fill="rgb(244,123,39)" stroke="none" transform="translate(25.2617 22.7366)" d="M2.29587 4.592C1.59487 4.592 1.00887 4.369 0.600866 3.948C0.185866 3.519 -0.0221345 2.91 0.00186554 2.187C0.0408655 0.982 1.07487 0 2.30587 0L7.89887 0C8.59987 0 9.18587 0.223 9.59387 0.645C10.0089 1.074 10.2159 1.683 10.1929 2.406C10.1529 3.611 9.11987 4.592 7.88787 4.592L2.29587 4.592Z"/>
	</g>
	<defs>
		<clipPath id="clip_2">
			<rect x="-458" y="-4606" width="1682" height="11838" clip-rule="evenodd"/>
		</clipPath>
	</defs>
	<g clip-path="url(#clip_2)">
		<path fill="rgb(244,123,39)" stroke="none" transform="translate(25.2734 33.9402)" d="M2.29573 4.592C1.59473 4.592 1.00873 4.369 0.600728 3.948C0.185728 3.519 -0.0212722 2.91 0.00172776 2.187C0.0417278 0.981 1.07473 0 2.30573 0L13.5007 0C14.2017 0 14.7877 0.223 15.1957 0.645C15.6107 1.073 15.8177 1.682 15.7947 2.405C15.7547 3.611 14.7207 4.592 13.4897 4.592L2.29573 4.592Z"/>
	</g>
	<defs>
		<clipPath id="clip_3">
			<rect x="-458" y="-4606" width="1682" height="11838" clip-rule="evenodd"/>
		</clipPath>
	</defs>
	<g clip-path="url(#clip_3)">
		<path fill="rgb(244,123,39)" stroke="none" transform="translate(25.2617 45.1438)" d="M2.29587 4.592C1.59487 4.592 1.00887 4.369 0.600873 3.947C0.184873 3.518 -0.0221268 2.909 0.00187323 2.186C0.0418732 0.981 1.07487 0 2.30587 0L7.89887 0C8.59987 0 9.18587 0.223 9.59387 0.645C10.0089 1.074 10.2159 1.683 10.1929 2.405C10.1529 3.611 9.11987 4.592 7.88787 4.592L2.29587 4.592Z"/>
	</g>
	<defs>
		<clipPath id="clip_4">
			<rect x="-458" y="-4606" width="1682" height="11838" clip-rule="evenodd"/>
		</clipPath>
	</defs>
	<g clip-path="url(#clip_4)">
		<path fill="rgb(244,123,39)" stroke="none" transform="translate(25.2734 56.3474)" d="M2.29573 4.592C1.59473 4.592 1.00873 4.369 0.600728 3.948C0.185728 3.519 -0.0212722 2.91 0.00172776 2.187C0.0417278 0.981 1.07473 0 2.30673 0L13.5007 0C14.2017 0 14.7877 0.223 15.1957 0.645C15.6107 1.073 15.8177 1.682 15.7947 2.405C15.7547 3.611 14.7207 4.592 13.4897 4.592L2.29573 4.592Z"/>
	</g>
	<defs>
		<clipPath id="clip_5">
			<rect x="-458" y="-4606" width="1682" height="11838" clip-rule="evenodd"/>
		</clipPath>
	</defs>
	<g clip-path="url(#clip_5)">
		<path fill="rgb(244,123,39)" stroke="none" transform="translate(25.2617 67.551)" d="M2.29587 4.592C1.59487 4.592 1.00887 4.369 0.600866 3.947C0.185866 3.519 -0.0221345 2.91 0.00186554 2.187C0.0418655 0.981 1.07487 0 2.30587 0L7.89887 0C8.59987 0 9.18587 0.223 9.59387 0.645C10.0089 1.074 10.2159 1.683 10.1929 2.405C10.1529 3.611 9.11987 4.592 7.88787 4.592L2.29587 4.592Z"/>
	</g>
	<defs>
		<clipPath id="clip_6">
			<rect x="-458" y="-4606" width="1682" height="11838" clip-rule="evenodd"/>
		</clipPath>
	</defs>
	<g clip-path="url(#clip_6)">
		<path fill="rgb(244,123,39)" stroke="none" transform="translate(25.2734 78.7546)" d="M2.29573 4.592C1.59473 4.592 1.00873 4.369 0.600728 3.947C0.185728 3.518 -0.0212722 2.91 0.00172776 2.187C0.0417278 0.982 1.07473 0 2.30573 0L13.5007 0C14.2017 0 14.7877 0.223 15.1957 0.645C15.6107 1.073 15.8177 1.682 15.7947 2.405C15.7547 3.611 14.7207 4.592 13.4897 4.592L2.29573 4.592Z"/>
	</g>
	<defs>
		<clipPath id="clip_7">
			<rect x="-458" y="-4606" width="1682" height="11838" clip-rule="evenodd"/>
		</clipPath>
	</defs>
	<g clip-path="url(#clip_7)">
		<path fill="rgb(244,123,39)" stroke="none" transform="translate(53.3145 27.6794)" d="M93.857 4.382C92.092 4.382 90.657 5.819 90.657 7.583C90.657 9.348 92.092 10.784 93.857 10.784C95.623 10.784 97.058 9.348 97.058 7.583C97.058 5.819 95.623 4.382 93.857 4.382M50.72 15.166C48.955 15.166 47.519 16.602 47.519 18.367C47.519 20.132 48.955 21.569 50.72 21.569C52.485 21.569 53.92 20.132 53.92 18.367C53.92 16.602 52.485 15.166 50.72 15.166M72.289 34.039C70.523 34.039 69.087 35.475 69.087 37.24C69.087 39.005 70.523 40.441 72.289 40.441C74.053 40.441 75.49 39.005 75.49 37.24C75.49 35.475 74.053 34.039 72.289 34.039M29.151 36.735C27.386 36.735 25.951 38.171 25.951 39.936C25.951 41.701 27.386 43.137 29.151 43.137C30.917 43.137 32.352 41.701 32.352 39.936C32.352 38.171 30.917 36.735 29.151 36.735M7.583 47.519C5.818 47.519 4.382 48.955 4.382 50.72C4.382 52.486 5.818 53.921 7.583 53.921C9.348 53.921 10.784 52.486 10.784 50.72C10.784 48.955 9.348 47.519 7.583 47.519M7.583 58.304C3.401 58.304 0 54.903 0 50.72C0 46.539 3.401 43.137 7.583 43.137C9.551 43.137 11.419 43.893 12.841 45.264L13.098 45.512L21.671 41.226L21.628 40.872C21.59 40.565 21.568 40.253 21.568 39.936C21.568 35.754 24.969 32.352 29.151 32.352C30.294 32.352 31.392 32.602 32.418 33.093L32.74 33.248L44.03 21.957L43.877 21.635C43.385 20.609 43.136 19.509 43.136 18.367C43.136 14.186 46.539 10.784 50.72 10.784C54.902 10.784 58.303 14.186 58.303 18.367C58.303 19.332 58.122 20.275 57.763 21.171L57.63 21.503L68.264 30.807L68.576 30.632C69.707 29.994 70.991 29.656 72.289 29.656C73.02 29.656 73.748 29.763 74.448 29.972L74.791 30.074L87.813 12.169L87.61 11.875C86.736 10.607 86.274 9.123 86.274 7.583C86.274 3.402 89.675 0 93.857 0C98.039 0 101.44 3.402 101.44 7.583C101.44 11.765 98.039 15.167 93.857 15.167C93.126 15.167 92.399 15.061 91.698 14.852L91.355 14.75L78.333 32.654L78.536 32.948C79.41 34.216 79.872 35.7 79.872 37.24C79.872 41.421 76.47 44.823 72.289 44.823C68.107 44.823 64.706 41.421 64.706 37.24C64.706 36.274 64.887 35.331 65.246 34.436L65.378 34.104L54.745 24.8L54.432 24.976C53.302 25.613 52.018 25.95 50.72 25.95C49.577 25.95 48.478 25.701 47.453 25.21L47.13 25.055L35.841 36.346L35.995 36.668C36.486 37.695 36.735 38.794 36.735 39.936C36.735 44.117 33.333 47.519 29.151 47.519C27.183 47.519 25.315 46.764 23.893 45.392L23.636 45.144L15.063 49.431L15.107 49.785C15.144 50.091 15.167 50.403 15.167 50.72C15.167 54.903 11.764 58.304 7.583 58.304"/>
	</g>
</svg>
