<?xml version="1.0" encoding="UTF-8"?>
<svg width="23px" height="23px" viewBox="0 0 23 23" version="1.1" xmlns="http://www.w3.org/2000/svg" xmlns:xlink="http://www.w3.org/1999/xlink">
    <!-- Generator: Sketch 51.2 (57519) - http://www.bohemiancoding.com/sketch -->
    <title>Group</title>
    <desc>Created with Sketch.</desc>
    <defs></defs>
    <g id="Symbols" stroke="none" stroke-width="1" fill="none" fill-rule="evenodd">
        <g id="button/blue/play" transform="translate(-129.000000, -13.000000)" fill="#FFFFFF">
            <g id="button/download/blue">
                <g id="Group" transform="translate(129.000000, 13.000000)">
                    <polygon id="Triangle" transform="translate(12.150000, 11.860294) rotate(90.000000) translate(-12.150000, -11.860294) " points="12.15 8.71029412 16.0102941 15.0102941 8.28970588 15.0102941"></polygon>
                    <path d="M11.5,23 C5.14872538,23 0,17.8512746 0,11.5 C0,5.14872538 5.14872538,0 11.5,0 C17.8512746,0 23,5.14872538 23,11.5 C23,17.8512746 17.8512746,23 11.5,23 Z M11.5,21 C16.7467051,21 21,16.7467051 21,11.5 C21,6.25329488 16.7467051,2 11.5,2 C6.25329488,2 2,6.25329488 2,11.5 C2,16.7467051 6.25329488,21 11.5,21 Z" id="Oval-2" fill-rule="nonzero"></path>
                </g>
            </g>
        </g>
    </g>
</svg>